<svg xmlns="http://www.w3.org/2000/svg" viewBox="0 0 1860.22 3790.49"><defs><style>.cls-1{fill:#1595e5;}.cls-2{fill:#dce3ff;}.cls-3{fill:#8934ec;}.cls-4{fill:#3055c3;}</style></defs><title>3Pstars</title><g id="Layer_2" data-name="Layer 2"><g id="Background"><g id="Layer_30" data-name="Layer 30"><polygon class="cls-1" points="1823.24 46.06 1838.7 48.95 1852.64 46.26 1838.7 42.19 1823.24 46.06"/><polygon class="cls-1" points="1838.21 28.81 1835.32 44.27 1838.21 61.65 1842.08 44.27 1838.21 28.81"/><polygon class="cls-1" points="1756.16 55.56 1764.49 57.13 1772 55.67 1764.49 53.48 1756.16 55.56"/><polygon class="cls-1" points="1764.23 46.27 1762.67 54.6 1764.23 63.97 1766.31 54.6 1764.23 46.27"/><polygon class="cls-2" points="1613.73 45.46 1622.06 47.02 1629.57 45.57 1622.06 43.38 1613.73 45.46"/><polygon class="cls-2" points="1621.8 36.16 1620.24 44.49 1621.8 53.86 1623.88 44.49 1621.8 36.16"/><polygon class="cls-1" points="1844.38 159.4 1852.71 160.97 1860.22 159.51 1852.71 157.32 1844.38 159.4"/><polygon class="cls-1" points="1852.45 150.11 1850.88 158.44 1852.45 167.81 1854.53 158.44 1852.45 150.11"/><polygon class="cls-1" points="1567.52 484.73 1582.97 487.63 1596.91 484.94 1582.97 480.87 1567.52 484.73"/><polygon class="cls-1" points="1582.49 467.49 1579.59 482.94 1582.49 500.33 1586.35 482.94 1582.49 467.49"/><polygon class="cls-1" points="1341.38 55.81 1356.83 58.71 1370.77 56.02 1356.83 51.95 1341.38 55.81"/><polygon class="cls-1" points="1356.35 38.57 1353.45 54.02 1356.35 71.41 1360.21 54.02 1356.35 38.57"/><polygon class="cls-2" points="709.49 868.89 717.82 870.45 725.33 869 717.82 866.81 709.49 868.89"/><polygon class="cls-2" points="717.56 859.59 716 867.92 717.56 877.3 719.64 867.92 717.56 859.59"/><polygon class="cls-1" points="1331.33 676.98 1346.78 679.87 1360.72 677.18 1346.78 673.11 1331.33 676.98"/><polygon class="cls-1" points="1346.3 659.73 1343.4 675.18 1346.3 692.57 1350.16 675.18 1346.3 659.73"/><polygon class="cls-2" points="1228.65 153.1 1236.98 154.67 1244.49 153.22 1236.98 151.02 1228.65 153.1"/><polygon class="cls-2" points="1236.72 143.81 1235.16 152.14 1236.72 161.51 1238.8 152.14 1236.72 143.81"/><polygon class="cls-1" points="340.22 1563.92 348.55 1565.48 356.06 1564.03 348.55 1561.83 340.22 1563.92"/><polygon class="cls-1" points="348.29 1554.62 346.73 1562.95 348.29 1572.32 350.37 1562.95 348.29 1554.62"/><polygon class="cls-1" points="1333.79 1213.11 1342.12 1214.67 1349.63 1213.21 1342.12 1211.02 1333.79 1213.11"/><polygon class="cls-1" points="1341.86 1203.81 1340.3 1212.14 1341.86 1221.51 1343.94 1212.14 1341.86 1203.81"/><polygon class="cls-1" points="1144.89 276.24 1153.22 277.8 1160.74 276.35 1153.22 274.16 1144.89 276.24"/><polygon class="cls-1" points="1152.96 266.94 1151.4 275.27 1152.96 284.65 1155.05 275.27 1152.96 266.94"/><polygon class="cls-1" points="709.81 162.38 718.14 163.94 725.66 162.49 718.14 160.29 709.81 162.38"/><polygon class="cls-1" points="717.88 153.08 716.32 161.41 717.88 170.78 719.97 161.41 717.88 153.08"/><polygon class="cls-1" points="1674 1151.35 1689.46 1154.25 1703.39 1151.56 1689.46 1147.49 1674 1151.35"/><polygon class="cls-1" points="1688.97 1134.11 1686.08 1149.56 1688.97 1166.95 1692.84 1149.56 1688.97 1134.11"/><polygon class="cls-1" points="1808.54 285.89 1823.99 288.79 1837.93 286.1 1823.99 282.03 1808.54 285.89"/><polygon class="cls-1" points="1823.51 268.65 1820.61 284.1 1823.51 301.49 1827.38 284.1 1823.51 268.65"/><polygon class="cls-2" points="375.55 852.35 391 855.25 404.94 852.55 391 848.49 375.55 852.35"/><polygon class="cls-2" points="390.52 835.11 387.62 850.56 390.52 867.95 394.38 850.56 390.52 835.11"/><polygon class="cls-1" points="44.03 85.7 59.49 88.6 73.43 85.91 59.49 81.84 44.03 85.7"/><polygon class="cls-1" points="59.01 68.46 56.11 83.92 59.01 101.3 62.87 83.92 59.01 68.46"/><polygon class="cls-1" points="1130.06 967.54 1145.51 970.44 1159.45 967.75 1145.51 963.68 1130.06 967.54"/><polygon class="cls-1" points="1145.03 950.3 1142.13 965.75 1145.03 983.14 1148.89 965.75 1145.03 950.3"/><circle class="cls-2" cx="1046.01" cy="1322.84" r="7.81"/><circle class="cls-1" cx="1370.73" cy="449.49" r="5.97"/><circle class="cls-1" cx="1766.49" cy="171" r="2.76"/><circle class="cls-1" cx="1694.82" cy="204.09" r="2.76"/><circle class="cls-1" cx="1281.82" cy="222.33" r="2.76"/><circle class="cls-1" cx="939.76" cy="528.84" r="2.76"/><circle class="cls-1" cx="866.57" cy="638.19" r="7.81"/><polygon class="cls-1" points="644.23 505.77 635.9 504.21 628.39 505.66 635.9 507.85 644.23 505.77"/><polygon class="cls-1" points="636.16 515.06 637.72 506.73 636.16 497.36 634.08 506.73 636.16 515.06"/><circle class="cls-1" cx="285.01" cy="82" r="2.76"/><circle class="cls-1" cx="476.44" cy="575.63" r="2.76"/><circle class="cls-1" cx="479.14" cy="1072.76" r="2.76"/><polygon class="cls-1" points="550.31 1311.35 547.41 1326.81 550.11 1340.74 554.18 1326.81 550.31 1311.35"/><polygon class="cls-1" points="567.56 1326.32 552.1 1323.42 534.72 1326.32 552.1 1330.19 567.56 1326.32"/><polygon class="cls-1" points="161.85 0 158.95 15.46 161.65 29.39 165.72 15.46 161.85 0"/><polygon class="cls-1" points="179.1 14.97 163.64 12.07 146.25 14.97 163.64 18.84 179.1 14.97"/><circle class="cls-2" cx="628.23" cy="282.44" r="7.81"/><circle class="cls-1" cx="565.28" cy="49.84" r="2.76"/><polygon class="cls-2" points="854.52 47.43 862.85 48.99 870.36 47.54 862.85 45.35 854.52 47.43"/><polygon class="cls-2" points="862.59 38.13 861.02 46.47 862.59 55.84 864.67 46.47 862.59 38.13"/><circle class="cls-1" cx="131.25" cy="1158.41" r="7.81"/><polygon class="cls-2" points="224.38 372.54 232.72 374.1 240.23 372.65 232.72 370.45 224.38 372.54"/><polygon class="cls-2" points="232.45 363.24 230.89 371.57 232.45 380.94 234.54 371.57 232.45 363.24"/><polygon class="cls-1" points="179.76 656.83 188.09 658.4 195.61 656.94 188.09 654.75 179.76 656.83"/><polygon class="cls-1" points="187.83 647.54 186.27 655.87 187.83 665.24 189.91 655.87 187.83 647.54"/><polygon class="cls-1" points="1689.08 118.05 1697.41 119.61 1704.92 118.16 1697.41 115.97 1689.08 118.05"/><polygon class="cls-1" points="1697.15 108.76 1695.59 117.09 1697.15 126.46 1699.23 117.09 1697.15 108.76"/><circle class="cls-1" cx="873.12" cy="121.52" r="2.76"/><circle class="cls-1" cx="942.03" cy="25.95" r="2.76"/><circle class="cls-1" cx="264.79" cy="197.79" r="2.76"/><circle class="cls-1" cx="1509.19" cy="12.03" r="2.76"/><circle class="cls-1" cx="799.57" cy="1118.19" r="7.81"/><polygon class="cls-1" points="1420.65 176.1 1428.98 177.67 1436.49 176.22 1428.98 174.02 1420.65 176.1"/><polygon class="cls-1" points="1428.72 166.81 1427.16 175.14 1428.72 184.51 1430.8 175.14 1428.72 166.81"/><polygon class="cls-2" points="1810.54 3742.89 1825.99 3745.79 1839.93 3743.1 1825.99 3739.03 1810.54 3742.89"/><polygon class="cls-2" points="1825.51 3725.65 1822.61 3741.1 1825.51 3758.49 1829.38 3741.1 1825.51 3725.65"/><polygon class="cls-3" points="920.54 1642.89 936 1645.79 949.93 1643.1 936 1639.03 920.54 1642.89"/><polygon class="cls-3" points="935.51 1625.65 932.61 1641.1 935.51 1658.49 939.38 1641.1 935.51 1625.65"/><polygon class="cls-3" points="1311.54 3774.89 1326.99 3777.79 1340.93 3775.1 1326.99 3771.03 1311.54 3774.89"/><polygon class="cls-3" points="1326.51 3757.65 1323.61 3773.1 1326.51 3790.49 1330.38 3773.1 1326.51 3757.65"/><polygon class="cls-2" points="748.54 3758.89 764 3761.79 777.93 3759.1 764 3755.03 748.54 3758.89"/><polygon class="cls-2" points="763.51 3741.65 760.61 3757.1 763.51 3774.49 767.38 3757.1 763.51 3741.65"/><polygon class="cls-3" points="443.54 2113.89 459 2116.79 472.93 2114.1 459 2110.03 443.54 2113.89"/><polygon class="cls-3" points="458.51 2096.65 455.61 2112.1 458.51 2129.49 462.38 2112.1 458.51 2096.65"/><polygon class="cls-3" points="309.54 3468.89 325 3471.79 338.93 3469.1 325 3465.03 309.54 3468.89"/><polygon class="cls-3" points="324.51 3451.65 321.61 3467.1 324.51 3484.49 328.38 3467.1 324.51 3451.65"/><polygon class="cls-3" points="165.54 3361.89 181 3364.79 194.93 3362.1 181 3358.03 165.54 3361.89"/><polygon class="cls-3" points="180.51 3344.65 177.61 3360.1 180.51 3377.49 184.38 3360.1 180.51 3344.65"/><circle class="cls-3" cx="1451.76" cy="2696.84" r="2.76"/><circle class="cls-3" cx="963.76" cy="3561.84" r="2.76"/><circle class="cls-3" cx="1665.76" cy="3536.84" r="2.76"/><circle class="cls-3" cx="1384.76" cy="3593.84" r="2.76"/><circle class="cls-3" cx="1131.76" cy="3688.84" r="2.76"/><circle class="cls-3" cx="993.76" cy="3278.84" r="2.76"/><circle class="cls-2" cx="417.76" cy="3583.84" r="2.76"/><circle class="cls-3" cx="36.76" cy="3511.84" r="2.76"/><circle class="cls-3" cx="745.76" cy="3406.84" r="2.76"/><polygon class="cls-3" points="1075.23 3314.77 1066.9 3313.21 1059.39 3314.66 1066.9 3316.85 1075.23 3314.77"/><polygon class="cls-3" points="1067.16 3324.06 1068.72 3315.73 1067.16 3306.36 1065.08 3315.73 1067.16 3324.06"/><polygon class="cls-3" points="580.23 1853.77 571.9 1852.21 564.39 1853.66 571.9 1855.85 580.23 1853.77"/><polygon class="cls-3" points="572.16 1863.06 573.72 1854.73 572.16 1845.36 570.08 1854.73 572.16 1863.06"/><polygon class="cls-3" points="1390.23 3199.77 1381.9 3198.21 1374.39 3199.66 1381.9 3201.85 1390.23 3199.77"/><polygon class="cls-3" points="1382.16 3209.06 1383.72 3200.73 1382.16 3191.36 1380.08 3200.73 1382.16 3209.06"/><polygon class="cls-3" points="951.23 2160.77 942.9 2159.21 935.39 2160.66 942.9 2162.85 951.23 2160.77"/><polygon class="cls-3" points="943.16 2170.06 944.72 2161.73 943.16 2152.36 941.08 2161.73 943.16 2170.06"/><polygon class="cls-3" points="1107.23 2449.77 1098.9 2448.21 1091.39 2449.66 1098.9 2451.85 1107.23 2449.77"/><polygon class="cls-3" points="1099.16 2459.06 1100.72 2450.73 1099.16 2441.36 1097.08 2450.73 1099.16 2459.06"/><polygon class="cls-3" points="1283.23 3436.77 1274.9 3435.21 1267.39 3436.66 1274.9 3438.85 1283.23 3436.77"/><polygon class="cls-3" points="1275.16 3446.06 1276.72 3437.73 1275.16 3428.36 1273.08 3437.73 1275.16 3446.06"/><polygon class="cls-3" points="1755.23 3312.77 1746.9 3311.21 1739.39 3312.66 1746.9 3314.85 1755.23 3312.77"/><polygon class="cls-3" points="1747.16 3322.06 1748.72 3313.73 1747.16 3304.36 1745.08 3313.73 1747.16 3322.06"/><polygon class="cls-3" points="1852.23 3445.77 1843.9 3444.21 1836.39 3445.66 1843.9 3447.85 1852.23 3445.77"/><polygon class="cls-3" points="1844.16 3455.06 1845.72 3446.73 1844.16 3437.36 1842.08 3446.73 1844.16 3455.06"/><polygon class="cls-3" points="1813.23 1844.77 1804.9 1843.21 1797.39 1844.66 1804.9 1846.85 1813.23 1844.77"/><polygon class="cls-3" points="1805.16 1854.06 1806.72 1845.73 1805.16 1836.36 1803.08 1845.73 1805.16 1854.06"/><polygon class="cls-2" points="63.23 3732.77 54.9 3731.21 47.39 3732.66 54.9 3734.85 63.23 3732.77"/><polygon class="cls-2" points="55.16 3742.06 56.72 3733.73 55.16 3724.36 53.08 3733.73 55.16 3742.06"/><polygon class="cls-3" points="280.23 3679.77 271.9 3678.21 264.39 3679.66 271.9 3681.85 280.23 3679.77"/><polygon class="cls-3" points="272.16 3689.06 273.72 3680.73 272.16 3671.36 270.08 3680.73 272.16 3689.06"/><polygon class="cls-2" points="1753 1595.35 1768.46 1598.25 1782.39 1595.56 1768.46 1591.49 1753 1595.35"/><polygon class="cls-2" points="1767.97 1578.11 1765.08 1593.56 1767.97 1610.95 1771.84 1593.56 1767.97 1578.11"/><polygon class="cls-3" points="195 2569.35 210.46 2572.25 224.39 2569.55 210.46 2565.49 195 2569.35"/><polygon class="cls-3" points="209.97 2552.11 207.07 2567.56 209.97 2584.95 213.84 2567.56 209.97 2552.11"/><polygon class="cls-4" points="362 408.35 377.46 411.25 391.39 408.56 377.46 404.49 362 408.35"/><polygon class="cls-4" points="376.97 391.11 374.07 406.56 376.97 423.95 380.84 406.56 376.97 391.11"/><polygon class="cls-4" points="0 452.35 15.46 455.25 29.39 452.56 15.46 448.49 0 452.35"/><polygon class="cls-4" points="14.97 435.11 12.07 450.56 14.97 467.95 18.84 450.56 14.97 435.11"/><polygon class="cls-3" points="124 1825.35 139.46 1828.25 153.39 1825.56 139.46 1821.49 124 1825.35"/><polygon class="cls-3" points="138.97 1808.11 136.07 1823.56 138.97 1840.95 142.84 1823.56 138.97 1808.11"/><polygon class="cls-3" points="1654 2434.35 1669.46 2437.25 1683.39 2434.55 1669.46 2430.49 1654 2434.35"/><polygon class="cls-3" points="1668.97 2417.11 1666.08 2432.56 1668.97 2449.95 1672.84 2432.56 1668.97 2417.11"/><polygon class="cls-3" points="444 2425.35 459.46 2428.25 473.39 2425.55 459.46 2421.49 444 2425.35"/><polygon class="cls-3" points="458.97 2408.11 456.07 2423.56 458.97 2440.95 462.84 2423.56 458.97 2408.11"/><polygon class="cls-2" points="1797 426.35 1812.46 429.25 1826.39 426.56 1812.46 422.49 1797 426.35"/><polygon class="cls-2" points="1811.97 409.11 1809.08 424.56 1811.97 441.95 1815.84 424.56 1811.97 409.11"/><polygon class="cls-3" points="55.23 2250.77 46.9 2249.21 39.39 2250.66 46.9 2252.85 55.23 2250.77"/><polygon class="cls-3" points="47.16 2260.06 48.72 2251.73 47.16 2242.36 45.08 2251.73 47.16 2260.06"/><polygon class="cls-3" points="1604.23 2918.77 1595.9 2917.21 1588.39 2918.66 1595.9 2920.85 1604.23 2918.77"/><polygon class="cls-3" points="1596.16 2928.06 1597.72 2919.73 1596.16 2910.36 1594.08 2919.73 1596.16 2928.06"/><polygon class="cls-3" points="1147.23 2704.77 1138.9 2703.21 1131.39 2704.66 1138.9 2706.85 1147.23 2704.77"/><polygon class="cls-3" points="1139.16 2714.06 1140.72 2705.73 1139.16 2696.36 1137.08 2705.73 1139.16 2714.06"/><polygon class="cls-4" points="594.23 439.77 585.9 438.21 578.39 439.66 585.9 441.85 594.23 439.77"/><polygon class="cls-4" points="586.16 449.06 587.72 440.73 586.16 431.36 584.08 440.73 586.16 449.06"/><polygon class="cls-4" points="1614.23 464.77 1605.9 463.21 1598.39 464.66 1605.9 466.85 1614.23 464.77"/><polygon class="cls-4" points="1606.16 474.06 1607.72 465.73 1606.16 456.36 1604.08 465.73 1606.16 474.06"/><polygon class="cls-3" points="668.23 2654.77 659.9 2653.21 652.39 2654.66 659.9 2656.85 668.23 2654.77"/><polygon class="cls-3" points="660.16 2664.06 661.72 2655.73 660.16 2646.36 658.08 2655.73 660.16 2664.06"/><polygon class="cls-2" points="97.23 3190.77 88.9 3189.21 81.39 3190.66 88.9 3192.85 97.23 3190.77"/><polygon class="cls-2" points="89.16 3200.06 90.72 3191.73 89.16 3182.36 87.08 3191.73 89.16 3200.06"/><circle class="cls-3" cx="461.44" cy="3070.63" r="2.76"/><circle class="cls-3" cx="993.44" cy="3229.63" r="2.76"/><circle class="cls-3" cx="1537.44" cy="1903.63" r="2.76"/><circle class="cls-4" cx="103.44" cy="385.63" r="2.76"/><circle class="cls-4" cx="207.44" cy="494.63" r="2.76"/><circle class="cls-4" cx="715.44" cy="381.63" r="2.76"/><circle class="cls-3" cx="1226.44" cy="2938.63" r="2.76"/><circle class="cls-4" cx="1443.44" cy="352.63" r="2.76"/><circle class="cls-3" cx="1816.44" cy="3168.63" r="2.76"/><circle class="cls-3" cx="836.44" cy="2851.63" r="2.76"/><circle class="cls-2" cx="1598.76" cy="3735.84" r="2.76"/><circle class="cls-2" cx="338.76" cy="2935.84" r="2.76"/><circle class="cls-2" cx="1601.76" cy="2147.84" r="2.76"/><circle class="cls-2" cx="167.76" cy="3483.84" r="2.76"/><polygon class="cls-3" points="1198.55 1841.35 1214 1844.25 1227.94 1841.56 1214 1837.49 1198.55 1841.35"/><polygon class="cls-3" points="1213.52 1824.11 1210.62 1839.56 1213.52 1856.95 1217.38 1839.56 1213.52 1824.11"/><circle class="cls-2" cx="620.76" cy="3267.84" r="2.76"/><circle class="cls-2" cx="1282.76" cy="2138.84" r="2.76"/><circle class="cls-2" cx="1598.76" cy="848.84" r="2.76"/><polygon class="cls-2" points="711.65 2273.11 719.98 2274.67 727.49 2273.22 719.98 2271.02 711.65 2273.11"/><polygon class="cls-2" points="719.72 2263.81 718.16 2272.14 719.72 2281.51 721.8 2272.14 719.72 2263.81"/></g></g></g></svg>