<svg xmlns="http://www.w3.org/2000/svg" xmlns:xlink="http://www.w3.org/1999/xlink" viewBox="0 0 330.25 334.89"><defs><style>.cls-1{isolation:isolate;}.cls-2{fill:#fee9a3;}.cls-3{fill:#e56500;}.cls-4{fill:#ebe0b5;}.cls-5{fill:#f2b669;}.cls-6{fill:#ccc;}.cls-7{fill:#f6edc7;}.cls-8{fill:#f2a840;}.cls-9{fill:#fbdf4c;}.cls-10{fill:#f0e8ba;}.cls-11{fill:#b14622;}.cls-12{fill:#e2982c;}.cls-13,.cls-14{opacity:0.68;mix-blend-mode:hard-light;}.cls-13{fill:url(#radial-gradient);}.cls-14{fill:url(#radial-gradient-2);}</style><radialGradient id="radial-gradient" cx="171.39" cy="168.6" r="166.63" gradientTransform="translate(-4.47 -1.98) scale(0.99 1)" gradientUnits="userSpaceOnUse"><stop offset="0" stop-color="#c69c6d" stop-opacity="0"/><stop offset="1" stop-color="#42210b"/></radialGradient><radialGradient id="radial-gradient-2" cx="-0.67" cy="174.65" r="247.63" gradientUnits="userSpaceOnUse"><stop offset="0" stop-color="#ffffde" stop-opacity="0"/><stop offset="0.44" stop-color="#b5a795" stop-opacity="0.24"/><stop offset="1" stop-color="#2a000b" stop-opacity="0.7"/></radialGradient></defs><title>jupiter</title><g class="cls-1"><g id="Layer_2" data-name="Layer 2"><g id="Layer_8" data-name="Layer 8"><path class="cls-2" d="M4.88,191.83c-.37-1.11-2-1.16-3.4-1.93q.41,3,.91,6C3.61,194.75,5.32,193.15,4.88,191.83Z"/><path class="cls-3" d="M96.55,15.06c8.57-2.13,12.67-4.61,18-7.07A162,162,0,0,0,96.55,15.06Z"/><path class="cls-4" d="M43.89,234.1c14.43-.87,15.93-3.85,16.26-4.88.75-2.36-1.07-5.93-3.25-6.5-1.42-.38-2.16.74-4.88,1.62-3.42,1.12-7.69,1.12-8.13,0-.5-1.28,3.75-4.78,8.13-6.5,7.14-2.8,12.62-.06,21.13,1.62,0,0,17.54,3.47,35.77-1.62,12.78-3.57,11-7.34,19.51-8.13,12.48-1.16,15.3,7,35.76,9.75,9.73,1.33,15.17.32,19.51-1.62,5-2.26,5.86-4.54,9.75-6.5,9.43-4.74,20.34.75,27.64,3.25,6.06,2.08,29.28,7.35,47.14-1.63,9.94-5,16.26-14.63,16.26-14.63,2.24-3.11,2.54-4.32,8.13-13,6.87-10.68,8.72-12.43,11.38-13,4.14-.9,8.9,1.32,11.38,4.88,3,4.26,3,10.93,0,13-1.48,1-3.92,1.09-4.88,0-1.18-1.34.79-3.43,0-6.5-.64-2.49-2.94-5-4.87-4.88-3,.18-6.24,6.55-4.88,11.38,1.74,6.18,11,9.64,17.88,8.13,5-1.1,7.78-4.6,9.63-6a170,170,0,0,0,1.82-24.88c0-2.34-.06-4.66-.15-7-.09,4.75-.37,5.94-1.55,7s-2.86,1.08-13,0c-11.89-1.26-16.31-5.6-24.39-3.25-2.74.8-7.85,2.29-9.75,6.5-1.58,3.51.59,5.5,0,9.76-1,7.45-9.23,12.62-14.63,14.63-5.91,2.19-16.1,3.41-19.51-1.63-1.62-2.39-1.8-6.34,0-8.12,2.57-2.55,7.64.78,9.76-1.63,1.61-1.84.77-6.19-1.63-8.13-3.84-3.09-10.95.57-13,1.63-10.48,5.39-9.88,13.3-17.88,19.51-6.58,5.1-14.14,5-29.26,4.87-13.9-.14-13.54-2.32-37.39-4.87-10.67-1.15-22.36-2-35.77,0-8.47,1.23-11.88,2.73-13,3.25-9.73,4.49-11,10.54-17.88,11.38-5.44.66-6.6-2.88-14.63-4.88-9-2.25-16.75-.07-22.76,1.63-12.77,3.6-14.57,8.73-27.64,13a67.75,67.75,0,0,1-16.26,3.16q1.7,4.75,3.66,9.39C16.21,231,25.38,235.2,43.89,234.1Z"/><path class="cls-5" d="M47.75,52c6.7-1.7,9.46,3.39,16.51,1.63C70.79,52,71.12,47,77.47,43.89c7.24-3.51,15.12-1,23.11,1.63,16.57,5.36,17.35,12.5,33,16.26,4,.95,15.2,3.64,19.81-1.63,1.54-1.75,2.86-5,1.66-6.5s-4.42-1.2-6.61,0c-2.8,1.53-2.49,3.88-5,4.87-2.29.92-5.63.13-6.61-1.62-1.59-2.85,2.81-8.59,6.61-11.38,8.27-6.08,19.85-2.73,31.37,0,20.7,4.89,34.88,8.25,49.53,8.13,25-.21,41.64-10.44,56.14-1.63a58.25,58.25,0,0,1,6.6,4.88,89.94,89.94,0,0,1,9,8.83A165.49,165.49,0,0,0,218.57,9c1.67.87,2.59,1.69,2.52,2.37-.18,1.69-6.36,2.36-14.63,3.25a106.28,106.28,0,0,1-22.76,0c-13.86-1.48-12.31-3.85-19.51-3.25-7,.58-17.07,3.54-19.51,0-.35-.51-.88-1.66-1.62-1.63-.92,0-1.92,1.87-1.63,3.26.23,1.07,1.32,2.24,4.88,3.25,8.52,2.4,18,.12,26,0,6.87-.11,5.57,1.49,17.88,3.25,8.46,1.2,19.31,1.36,40.64,1.62,6,.08,9.69.09,14.64,1.63,9.11,2.85,17.12,9.2,16.25,11.38-.74,1.87-8,.69-11.38,0-5.9-1.21-6.91-3.46-13-4.88a34.52,34.52,0,0,0-14.63,0c-6.58,1.24-8.14,3.3-13,4.88-5,1.63-8.86,1.22-29.26-3.25-21.17-4.64-21.06-5.07-24.39-4.88-11.37.64-12,5.61-26,8.13-14.53,2.61-25-.73-27.63-1.63C94.92,30,86.31,24.89,84.74,21.14A166,166,0,0,0,41.06,56.93C44.57,53.1,46.32,52.38,47.75,52Z"/><path class="cls-6" d="M1.63,162.57c2.36-.81,4.19,3.88,9.75,4.87,3.84.69,8.94-.47,9.75-3.25s-2.74-6.85-4.87-6.5c-1.32.22-1.21,2-3.25,3.25s-5,1.53-6.51,0c-2-2-.15-6.16,0-6.5,2.08-4.58,8.1-7.4,13-6.5s6.17,5.06,9.75,8.12c7.27,6.22,18.68,3.26,61.78-4.87,8.93-1.69,18.46-3.37,22.76,1.62,1.56,1.82,2.72,4.86,1.62,6.51-2.5,3.73-14.77-2.66-17.88,1.62a4.53,4.53,0,0,0,0,4.88c1.94,2.81,8.36,2.75,27.64-3.25,23.35-7.28,22.84-10,35.76-13,6.35-1.49,21.25-4.85,39-1.62,8.11,1.47,11.09,3.48,27.63,6.5a90.55,90.55,0,0,0,21.14,1.62c6.48-.29,14.67-.73,16.25-4.87.92-2.42-.38-6.16-1.62-9.76s-2-4-1.63-4.87c1.19-2.71,10.6.47,24.39,1.62,16,1.34,24,2,32.51,0,3-.71,6.38-1.76,8.83-.58A167.72,167.72,0,0,0,301.33,73c1,2,1.38,3.79.68,5-2.72,4.84-21.59,2-34.67-3.25a66.56,66.56,0,0,0-16.51-4.88c-6.11-.9-12.17-1.8-14.86,1.63-2.34,3-1.88,8.87,1.65,11.38,2.7,1.92,7.1,1.78,8.25,0s-1.44-4.28,0-6.5a3.82,3.82,0,0,1,3.31-1.63c2.67.17,4.58,3.91,4.95,6.5.69,4.85-3.23,11-8.26,13-9.67,3.84-16.14-10.61-36.32-14.63-9.43-1.89-17.15-.55-29.72,1.62-17.48,3-17,6.43-29.72,8.13-5.9.79-11.15.74-44.58-4.88-24.29-4.08-22.65-4.25-28.06-4.87C46.31,76.05,26.18,90,23,84.53a3.24,3.24,0,0,1,.21-2.71A168.22,168.22,0,0,0,4.52,128.39c.92-1.92,2.17-4.44,3.61-8.09,5.84-14.82,4-21,9.75-24.39,2.19-1.27,1.5.2,11.38-1.62,5.6-1,10-2.27,16.26-1.63,4.56.47,4.84,1.41,4.88,1.63.25,1.5-5.16,2.21-8.13,6.5-1.88,2.71-2.91,7-1.63,9.76,2.85,6,17.38,4.74,32.51,3.25s20.66-3.47,40.65-6.51c14.55-2.2,21.82-3.31,26-3.25,24.56.36,41.84,11.25,47.14,4.88.64-.76,2.49-3.45,1.63-4.88s-4.43-.52-4.88-1.62,2.45-3.68,4.88-4.88c7-3.44,15.47,1.76,22.76,4.88,22.24,9.51,46.34,5.23,47.14,1.62.41-1.83-5.2-3.45-4.88-6.5.4-3.71,9.15-5.65,13-6.5,9.83-2.18,11.52-.15,21.13-1.63,11.81-1.81,15.14-5.78,19.51-3.25,3.15,1.82,3.29,5,6.5,13a109.39,109.39,0,0,0,8.13,16.25,56,56,0,0,1-16.25,3.25c-12.19.58-21.09-3.11-22.76,0-.77,1.43.28,3.76,1.62,4.88,1.95,1.63,4.63.82,9.76,0,8.62-1.37,12.95-2.06,14.63,0s.78,6.28-1.63,8.13c-2.93,2.25-6.76-.33-14.63-1.63-7.37-1.21-8.31.34-17.88,0-8.35-.29-8.23-1.5-21.14-3.25-20.06-2.72-24.92-.43-27.63,1.63-2.87,2.18-5.84,6-4.88,8.13,1.19,2.62,8.61,3.15,13,0,2.54-1.83,2.32-3.63,4.87-4.88,3.36-1.64,8.44-.84,9.76,1.62,1.77,3.32-3.11,10-8.13,13-7.93,4.77-16.51-.39-27.64-3.25-23.06-5.93-25.23,5.37-61.77,3.25-21.07-1.22-35.77-3.25-35.77-3.25-5.72-.79-14.67-2.17-26,0-5.21,1-7.54,2.1-11.38,3.25-14.83,4.46-28.51,1.95-55.27-3.25-13.64-2.65-18.16-4.39-19.51-8.13,0-.09,0-.18-.08-.27A170.43,170.43,0,0,0,0,164,3.36,3.36,0,0,1,1.63,162.57Zm118.67-65c-5.31,1.62-8.23.24-13,1.63-4,1.16-6.06,3.32-8.12,4.87-10.91,8.23-32.9,8.11-37.39,0-2.13-3.82-.05-8.87,1.62-11.38,6.52-9.78,25.17-8.21,27.64-3.25a3.43,3.43,0,0,1,0,3.25c-1.06,1.4-4.16,1.21-4.88,0-.63-1,.7-2.56,0-3.25a1.43,1.43,0,0,0-1.63,0c-1.09.77-1,3.52,0,4.88,1.43,1.91,4.68,1.09,13,0,15.79-2.07,12.61-.23,17.88-1.63,2.71-.72,6.74-2,9.76,0a6.47,6.47,0,0,1,1.62,1.63A22.21,22.21,0,0,1,120.3,97.54Z"/><path class="cls-3" d="M36.71,62.16q-3.6,4.52-6.89,9.27c1.39-1.91,3-4,4.72-6.4C35.31,64,36,63.05,36.71,62.16Z"/><path class="cls-5" d="M32.51,175.57a6.35,6.35,0,0,0-1.62-4.88C24.5,164.35,5.8,179.18.14,174.06q.18,4.8.63,9.52c1.36.18,3.34,2.22,5.73,3.37C15.53,191.31,32,183.48,32.51,175.57Z"/><path class="cls-6" d="M217.84,299.12c-4.27-.18-15.22-.63-17.88,4.88-1.32,2.72-.5,6.65,1.62,8.13,2.92,2,8.4-.54,11.38-3.25,2.08-1.9,2.4-3.36,3.25-3.25,2.23.28,5.36,10.83,1.63,16.25-4.78,6.95-20,4.23-42.27,0-25.92-4.91-25.42-8.11-37.39-8.13-19.19,0-24.14,8.19-35.83,8.62a163.13,163.13,0,0,0,153.51-15.11c-2.64-.21-5.78-.79-10.38-1.63C231.36,303,228.31,299.56,217.84,299.12Z"/><path class="cls-7" d="M274.74,235.72c-16.92-3-26.7-4.56-37.39,0-1.44.62-10.13,4.32-9.76,8.13.34,3.4,7.86,6.49,14.63,6.5,9.75,0,15-6.32,21.14-3.25.86.43,2.9,1.44,3.25,3.25.85,4.39-8.82,10.5-16.26,13-9.47,3.18-14.63.29-34.14-3.25-31.65-5.75-44.19-2.86-48.77-1.63-8.1,2.19-6,3.2-13,4.88-18.84,4.52-28.31-4.15-55.27-6.5-9.9-.87-16-1.4-24.39,0C53,260.45,42.87,272.33,33.63,268.74q4.26,5.68,9,11c2.24-6.56,14.17-10.45,22.42-13.12,7.76-2.52,17.5-5.68,27.63-1.63,5.68,2.28,14.11,7.87,13,13-.85,4-6.27,7.63-9.76,6.5-3.76-1.22-3-7.32-8.12-9.75-2.13-1-5.28-1.39-6.51,0-2,2.2.87,8.89,4.88,13,9.66,9.92,26.49,5.22,27.64,4.88,2.91-.86,10-3,11.38-8.13.75-2.88-.39-6.31-1.63-6.5s-1.78,3.43-4.88,4.88c-2.78,1.29-7,.49-8.12-1.63-1.74-3.29,3.32-11.15,9.75-13,5.92-1.7,11,2.26,16.26,4.88,9.9,4.94,16.72,3.24,42.26,1.63,44-2.78,45.42-2.21,50.4-1.63,15.21,1.78,17.57,4.47,32.51,4.88,16.87.46,24.95-2.66,28.16-1a168.17,168.17,0,0,0,24-37C309.24,242.26,302.61,240.65,274.74,235.72Zm-8.13,8.13c.48-1.43,3.16-1.81,4.88-1.63,2,.23,4.85,1.48,4.87,3.26s-2.59,3.37-4.87,3.25C268.58,248.57,266,245.54,266.61,243.85Zm9.75,19.51c-5.18,1.52-11.45-2.19-11.38-4.88s6-4.46,9.76-4.88c1.23-.13,7-.78,8.13,1.63S280.56,262.13,276.36,263.36Z"/><path class="cls-5" d="M261.73,278c-14.94-.41-17.3-3.1-32.51-4.88-5-.58-6.39-1.15-50.4,1.63-25.54,1.61-32.36,3.31-42.26-1.63-5.26-2.62-10.34-6.58-16.26-4.88-6.43,1.86-11.49,9.72-9.75,13,1.11,2.12,5.34,2.92,8.12,1.63,3.1-1.45,3.56-5.09,4.88-4.88s2.38,3.62,1.63,6.5c-1.35,5.17-8.47,7.27-11.38,8.13-1.15.34-18,5-27.64-4.88-4-4.11-6.83-10.8-4.88-13,1.23-1.39,4.38-1,6.51,0,5.11,2.43,4.36,8.53,8.12,9.75,3.49,1.13,8.91-2.54,9.76-6.5,1.1-5.14-7.33-10.73-13-13-10.13-4.05-19.87-.89-27.63,1.63-8.25,2.67-20.18,6.56-22.42,13.12a165.49,165.49,0,0,0,59.74,42.64c11.69-.43,16.64-8.64,35.83-8.62,12,0,11.47,3.22,37.39,8.13,22.3,4.23,37.49,6.95,42.27,0,3.73-5.42.6-16-1.63-16.25-.85-.11-1.17,1.35-3.25,3.25-3,2.71-8.46,5.28-11.38,3.25-2.12-1.48-2.94-5.41-1.62-8.13,2.66-5.51,13.61-5.06,17.88-4.88,10.47.44,13.52,3.9,27.64,6.51,4.6.84,7.74,1.42,10.38,1.63a166.65,166.65,0,0,0,34-30.3C286.68,275.33,278.6,278.45,261.73,278Z"/><path class="cls-6" d="M274.74,253.6c-3.78.42-9.68,2.3-9.76,4.88s6.2,6.4,11.38,4.88c4.2-1.23,7.55-5.85,6.51-8.13S276,253.47,274.74,253.6Z"/><path class="cls-6" d="M271.49,248.73c2.28.12,4.89-1.54,4.87-3.25s-2.87-3-4.87-3.26c-1.72-.18-4.4.2-4.88,1.63C266,245.54,268.58,248.57,271.49,248.73Z"/><path class="cls-6" d="M318.63,198.33c-6.9,1.51-16.14-2-17.88-8.13-1.36-4.83,1.91-11.2,4.88-11.38,1.93-.11,4.23,2.39,4.87,4.88.79,3.07-1.18,5.16,0,6.5,1,1.09,3.4,1,4.88,0,3-2.07,3-8.74,0-13-2.48-3.56-7.24-5.78-11.38-4.88-2.66.58-4.51,2.33-11.38,13-5.59,8.68-5.89,9.89-8.13,13,0,0-6.32,9.64-16.26,14.63-17.86,9-41.08,3.71-47.14,1.63-7.3-2.5-18.21-8-27.64-3.25-3.89,2-4.71,4.24-9.75,6.5-4.34,1.94-9.78,2.95-19.51,1.62-20.46-2.78-23.28-10.91-35.76-9.75-8.55.79-6.73,4.56-19.51,8.13-18.23,5.09-35.77,1.62-35.77,1.62-8.51-1.68-14-4.42-21.13-1.62-4.38,1.72-8.63,5.22-8.13,6.5.44,1.12,4.71,1.12,8.13,0,2.72-.88,3.46-2,4.88-1.62,2.18.57,4,4.14,3.25,6.5-.33,1-1.83,4-16.26,4.88-18.51,1.1-27.68-3.11-30.48-.46a167.92,167.92,0,0,0,20.22,35.1c9.24,3.59,19.38-8.29,41.15-11.88,8.43-1.4,14.49-.87,24.39,0,27,2.35,36.43,11,55.27,6.5,7-1.68,4.9-2.69,13-4.88,4.58-1.23,17.12-4.12,48.77,1.63,19.51,3.54,24.67,6.43,34.14,3.25,7.44-2.51,17.11-8.62,16.26-13-.35-1.81-2.39-2.82-3.25-3.25-6.19-3.07-11.39,3.28-21.14,3.25-6.77,0-14.29-3.1-14.63-6.5-.37-3.81,8.32-7.51,9.76-8.13,10.69-4.56,20.47-3,37.39,0,27.87,4.93,34.5,6.54,39.12,4.2a167.79,167.79,0,0,0,14.4-47.6C326.41,193.73,323.66,197.23,318.63,198.33Z"/><path class="cls-8" d="M53.65,208.09c6-1.7,13.73-3.88,22.76-1.63,8,2,9.19,5.54,14.63,4.88,6.89-.84,8.15-6.89,17.88-11.38,1.12-.52,4.53-2,13-3.25,13.41-2,25.1-1.15,35.77,0,23.85,2.55,23.49,4.73,37.39,4.87,15.12.16,22.68.23,29.26-4.87,8-6.21,7.4-14.12,17.88-19.51,2.06-1.06,9.17-4.72,13-1.63,2.4,1.94,3.24,6.29,1.63,8.13-2.12,2.41-7.19-.92-9.76,1.63-1.8,1.78-1.62,5.73,0,8.12,3.41,5,13.6,3.82,19.51,1.63,5.4-2,13.6-7.18,14.63-14.63.59-4.26-1.58-6.25,0-9.76,1.9-4.21,7-5.7,9.75-6.5,8.08-2.35,12.5,2,24.39,3.25,10.14,1.08,11.83,1,13,0s1.46-2.23,1.55-7a170.05,170.05,0,0,0-2.47-22.86c-2.45-1.18-5.83-.13-8.83.58-8.47,2-16.49,1.34-32.51,0-13.79-1.15-23.2-4.33-24.39-1.62-.37.84.43,1.42,1.63,4.87s2.54,7.34,1.62,9.76c-1.58,4.14-9.77,4.58-16.25,4.87a90.55,90.55,0,0,1-21.14-1.62c-16.54-3-19.52-5-27.63-6.5-17.77-3.23-32.67.13-39,1.62-12.92,3.05-12.41,5.73-35.76,13-19.28,6-25.7,6.06-27.64,3.25a4.53,4.53,0,0,1,0-4.88c3.11-4.28,15.38,2.11,17.88-1.62,1.1-1.65-.06-4.69-1.62-6.51-4.3-5-13.83-3.31-22.76-1.62-43.1,8.13-54.51,11.09-61.78,4.87-3.58-3.06-4.83-7.23-9.75-8.12s-10.93,1.92-13,6.5c-.15.34-2,4.49,0,6.5,1.51,1.53,4.61,1.18,6.51,0s1.93-3,3.25-3.25c2.13-.35,5.68,3.73,4.87,6.5s-5.91,3.94-9.75,3.25c-5.56-1-7.39-5.68-9.75-4.87A3.36,3.36,0,0,0,0,164c0,1.15,0,2.3,0,3.45,0,2.22.06,4.42.14,6.62,5.66,5.12,24.36-9.71,30.75-3.37a6.35,6.35,0,0,1,1.62,4.88c-.54,7.91-17,15.74-26,11.38-2.39-1.15-4.37-3.19-5.73-3.37.2,2.12.43,4.22.71,6.32,1.42.77,3,.82,3.4,1.93.44,1.32-1.27,2.92-2.49,4.1a168,168,0,0,0,7.36,28.32A67.75,67.75,0,0,0,26,221.09C39.08,216.82,40.88,211.69,53.65,208.09Zm70.45-21.55a24.52,24.52,0,0,1,2.7-2.84c6.21-5.27,24.39-3.25,24.39-3.25,16.45,1.82,24.68,2.74,34.14,1.62,7.84-.92,15.6-1.83,24.38-6.5,8.43-4.48,13.09-9.91,16.26-8.13,2.4,1.36,2.78,6.21,1.62,9.76-3.15,9.65-18.5,12.28-22.76,13-13.39,2.29-15-2.28-43.89-4.87-18.66-1.68-24.57-.37-29.26,1.62-2.81,1.19-9.1,4.28-9.76,3.25C121.58,189.67,122.82,188.13,124.1,186.54Z"/><path class="cls-5" d="M131.68,187c4.69-2,10.6-3.3,29.26-1.62,28.88,2.59,30.5,7.16,43.89,4.87,4.26-.72,19.61-3.35,22.76-13,1.16-3.55.78-8.4-1.62-9.76-3.17-1.78-7.83,3.65-16.26,8.13-8.78,4.67-16.54,5.58-24.38,6.5-9.46,1.12-17.69.2-34.14-1.62,0,0-18.18-2-24.39,3.25a24.52,24.52,0,0,0-2.7,2.84c-1.28,1.59-2.52,3.13-2.18,3.66C122.58,191.23,128.87,188.14,131.68,187Z"/><path class="cls-9" d="M3.17,134.66q.62-3.15,1.35-6.27"/><path class="cls-10" d="M22.76,143.06c26.76,5.2,40.44,7.71,55.27,3.25,3.84-1.15,6.17-2.25,11.38-3.25,11.34-2.17,20.29-.79,26,0,0,0,14.7,2,35.77,3.25,36.54,2.12,38.71-9.18,61.77-3.25,11.13,2.86,19.71,8,27.64,3.25,5-3,9.9-9.69,8.13-13-1.32-2.46-6.4-3.26-9.76-1.62-2.55,1.25-2.33,3-4.87,4.88-4.4,3.15-11.82,2.62-13,0-1-2.13,2-5.95,4.88-8.13,2.71-2.06,7.57-4.35,27.63-1.63,12.91,1.75,12.79,3,21.14,3.25,9.57.34,10.51-1.21,17.88,0,7.87,1.3,11.7,3.88,14.63,1.63,2.41-1.85,3.2-6.19,1.63-8.13s-6-1.37-14.63,0c-5.13.82-7.81,1.63-9.76,0-1.34-1.12-2.39-3.45-1.62-4.88,1.67-3.11,10.57.58,22.76,0a56,56,0,0,0,16.25-3.25c-2.24-3.68-3.44-9.18-6.26-16.25-3.21-8-5.22-11.19-8.37-13-4.37-2.53-7.7,1.44-19.51,3.25-9.61,1.48-11.3-.55-21.13,1.63-3.86.85-12.61,2.79-13,6.5-.32,3,5.29,4.67,4.88,6.5-.8,3.61-24.9,7.89-47.14-1.62-7.29-3.12-15.79-8.32-22.76-4.88-2.43,1.2-5.33,3.77-4.88,4.88s3.94.07,4.88,1.62-1,4.12-1.63,4.88c-5.3,6.37-22.58-4.52-47.14-4.88-4.19-.06-11.46,1-26,3.25-20,3-25.49,5-40.65,6.51s-29.66,2.8-32.51-3.25c-1.28-2.73-.25-7,1.63-9.76,3-4.29,8.38-5,8.13-6.5,0-.22-.32-1.16-4.88-1.63-6.24-.64-10.66.6-16.26,1.63-9.88,1.82-9.19.35-11.38,1.62-5.74,3.34-3.91,9.57-9.75,24.39-1.44,3.65-2.69,6.17-3.61,8.09q-.73,3.12-1.35,6.27c0,.09.05.18.08.27C4.6,138.67,9.12,140.41,22.76,143.06Z"/><path class="cls-5" d="M125.18,92.66c-3-2-7.05-.72-9.76,0-5.27,1.4-2.09-.44-17.88,1.63-8.33,1.09-11.58,1.91-13,0-1-1.36-1.09-4.11,0-4.88a1.43,1.43,0,0,1,1.63,0c.7.69-.63,2.21,0,3.25.72,1.21,3.82,1.4,4.88,0a3.43,3.43,0,0,0,0-3.25c-2.47-5-21.12-6.53-27.64,3.25-1.67,2.51-3.75,7.56-1.62,11.38,4.49,8.11,26.48,8.23,37.39,0,2.06-1.55,4.13-3.71,8.12-4.87,4.78-1.39,7.7,0,13-1.63a22.21,22.21,0,0,0,6.5-3.25A6.47,6.47,0,0,0,125.18,92.66Z"/><path class="cls-11" d="M23.19,81.82q3.14-5.32,6.63-10.39C26.34,76.21,24.08,79.57,23.19,81.82Z"/><path class="cls-11" d="M36.71,62.16c1.42-1.77,2.87-3.52,4.35-5.23C39.85,58.26,38.41,60,36.71,62.16Z"/><path class="cls-11" d="M296.14,65.73q2.69,3.57,5.19,7.27A36.45,36.45,0,0,0,296.14,65.73Z"/><path class="cls-12" d="M23,84.53c3.2,5.49,23.33-8.48,54.49-4.87,5.41.62,3.77.79,28.06,4.87,33.43,5.62,38.68,5.67,44.58,4.88,12.76-1.7,12.24-5.1,29.72-8.13,12.57-2.17,20.29-3.51,29.72-1.62,20.18,4,26.65,18.47,36.32,14.63,5-2,8.95-8.16,8.26-13-.37-2.59-2.28-6.33-4.95-6.5a3.82,3.82,0,0,0-3.31,1.63c-1.44,2.22,1.15,4.74,0,6.5s-5.55,1.92-8.25,0c-3.53-2.51-4-8.41-1.65-11.38,2.69-3.43,8.75-2.53,14.86-1.63a66.56,66.56,0,0,1,16.51,4.88C280.42,80,299.29,82.87,302,78c.7-1.24.32-3-.68-5q-2.5-3.7-5.19-7.27a89.94,89.94,0,0,0-9-8.83,58.25,58.25,0,0,0-6.6-4.88c-14.5-8.81-31.16,1.42-56.14,1.63-14.65.12-28.83-3.24-49.53-8.13-11.52-2.73-23.1-6.08-31.37,0-3.8,2.79-8.2,8.53-6.61,11.38,1,1.75,4.32,2.54,6.61,1.62,2.46-1,2.15-3.34,5-4.87,2.19-1.2,5.46-1.45,6.61,0s-.12,4.75-1.66,6.5c-4.61,5.27-15.81,2.58-19.81,1.63-15.67-3.76-16.45-10.9-33-16.26-8-2.59-15.87-5.14-23.11-1.63C71.12,47,70.79,52,64.26,53.65c-7.05,1.76-9.81-3.33-16.51-1.63-1.43.36-3.18,1.08-6.69,4.91-1.48,1.71-2.93,3.46-4.35,5.23C36,63.05,35.31,64,34.54,65c-1.76,2.37-3.33,4.49-4.72,6.4q-3.5,5.05-6.63,10.39A3.24,3.24,0,0,0,23,84.53Z"/><path class="cls-4" d="M102.42,32.51c2.6.9,13.1,4.24,27.63,1.63,14-2.52,14.64-7.49,26-8.13,3.33-.19,3.22.24,24.39,4.88,20.4,4.47,24.22,4.88,29.26,3.25,4.87-1.58,6.43-3.64,13-4.88a34.52,34.52,0,0,1,14.63,0c6.09,1.42,7.1,3.67,13,4.88,3.35.69,10.64,1.87,11.38,0,.87-2.18-7.14-8.53-16.25-11.38-4.95-1.54-8.6-1.55-14.64-1.63-21.33-.26-32.18-.42-40.64-1.62-12.31-1.76-11-3.36-17.88-3.25-8,.12-17.49,2.4-26,0-3.56-1-4.65-2.18-4.88-3.25-.29-1.39.71-3.22,1.63-3.26.74,0,1.27,1.12,1.62,1.63,2.44,3.54,12.52.58,19.51,0,7.2-.6,5.65,1.77,19.51,3.25a106.28,106.28,0,0,0,22.76,0c8.27-.89,14.45-1.56,14.63-3.25.07-.68-.85-1.5-2.52-2.37a163.52,163.52,0,0,0-104-1c-5.33,2.46-9.43,4.94-18,7.07q-6,2.8-11.81,6.08C86.31,24.89,94.92,30,102.42,32.51Z"/><ellipse class="cls-13" cx="165.25" cy="167.44" rx="165.01" ry="167.44"/><ellipse class="cls-14" cx="165.25" cy="167.44" rx="165.01" ry="167.44"/></g></g></g></svg>