<svg xmlns="http://www.w3.org/2000/svg" xmlns:xlink="http://www.w3.org/1999/xlink" viewBox="0 0 114.51 114.51"><defs><style>.cls-1{isolation:isolate;}.cls-2{fill:#f27600;}.cls-3{fill:#914100;}.cls-4{opacity:0.88;mix-blend-mode:hard-light;fill:url(#radial-gradient);}</style><radialGradient id="radial-gradient" cx="13.73" cy="-8.15" r="113.28" gradientUnits="userSpaceOnUse"><stop offset="0.01" stop-color="#e6e6e6"/><stop offset="0.11" stop-color="#d6d6d7"/><stop offset="0.32" stop-color="#ababb0"/><stop offset="0.62" stop-color="#656570"/><stop offset="0.98" stop-color="#06061a"/><stop offset="1" stop-color="#000014"/></radialGradient></defs><title>mercury</title><g class="cls-1"><g id="Layer_2" data-name="Layer 2"><g id="Layer_13" data-name="Layer 13"><circle class="cls-2" cx="57.25" cy="57.25" r="57.25"/><path class="cls-3" d="M10.25,61.53c1.28,1.4,4.25,3.25,23.93-1.71,16.92-4.26,20.63-7,22.22-8.55a41.16,41.16,0,0,0,8.55-12c2.26-5.25,2.13-8.69,5.12-10.26,3.16-1.64,8-.28,8.55,1.71.46,1.76-2.31,4.69-5.13,5.13-1.81.29-3-.55-3.42,0-.57.78,1.06,3.57,3.42,5.13,4.94,3.25,11.6.17,12,0a15.29,15.29,0,0,0,6.83-6.84c2.6-5,3.38-13.1-1.71-18.8-4.14-4.64-11.21-7.25-13.67-5.13-1.29,1.11-.43,2.76-1.71,5.13-.76,1.41-2.62,3.73-8.55,5.13-12.29,2.89-21.85-3-34.18,0-1.1.27-14.32,3.66-20.51,15.38C8.34,42.77,8.48,49.94,8.55,53,8.64,57.53,8.68,59.8,10.25,61.53Z"/><path class="cls-3" d="M87.16,46.15c1.07,1.94,5.73,2,8.55,0s3.29-5.81,3.42-6.84c.43-3.6-1.12-4.92,0-6.84,1.3-2.23,3.92-1.34,5.13-3.42,1.44-2.48-.12-7.55-3.42-8.54-2-.6-4.68.27-5.13,1.71s1.92,2.64,1.71,5.13c-.12,1.45-1,1.83-1.71,3.41-1.4,3.16,1.09,4.9,0,6.84-1.2,2.13-4.25.79-6.84,3.42C87.51,42.4,86.4,44.75,87.16,46.15Z"/><path class="cls-3" d="M65,13.67c-.07,1.17-.19,1.37,0,1.71.77,1.39,4.52,1.27,5.12,0,.31-.64-.35-1.28,0-1.71.59-.7,2.69.72,3.42,0s-.7-2.21,0-3.42,2.87-.57,3.42-1.7-.56-2.61-1.71-3.42c-1.7-1.21-4.36-1.16-5.13,0s.69,2.31,0,3.42c-.95,1.51-4.25.17-5.12,1.7C64.59,10.87,65.09,11.17,65,13.67Z"/><path class="cls-3" d="M23.93,65c-2.44,3.14-.55,8.66,0,10.25.64,1.88,2.48,6.18,8.54,10.26,10.44,7,19.63,4.13,39.31,10.25,3.18,1,7,2.32,6.84,3.42s-4.8,1.56-6.84,1.71a73.17,73.17,0,0,1-32.47-5.13C29.86,91.41,24.8,86.33,20.51,82c-.86-.87-6.41-6.5-5.13-8.55.83-1.31,3.75,0,5.13-1.71s.42-6.24-1.71-6.83a3.09,3.09,0,0,0-3.42,1.7c-.17.62.21.95,0,1.71s-1.05,1.75-1.71,1.71c-1.69-.1-1.51-6.49-3.42-6.83C8.92,63,6.7,65.74,6.84,68.36c.12,2.32,2,3.7,3.41,5.13,4.28,4.41,4.13,9.84,5.13,13.67,3.53,13.56,25,21.4,27.35,22.22a52.33,52.33,0,0,0,29.05,1.71A51,51,0,0,0,94,99.13c6.12-5.43,8.92-10.39,13.67-18.8,3.61-6.39,5-10.39,3.42-13.68a7.29,7.29,0,0,0-3.42-3.41c-2.85-1.3-6.75-.53-8.54,1.71-2.64,3.28.81,7.86-1.71,10.25-1.66,1.58-5.06,1.4-6.84,0C87,72.41,95.74,63.35,92.29,58.11c-.26-.4-.46-.58-5.13-3.42-5.48-3.33-8.22-5-8.54-5.13C70.85,46.52,64.54,61.7,49.56,65,37,67.67,27.75,60,23.93,65Z"/><circle class="cls-4" cx="57.25" cy="57.25" r="57.25"/></g></g></g></svg>