<svg xmlns="http://www.w3.org/2000/svg" xmlns:xlink="http://www.w3.org/1999/xlink" viewBox="0 0 71.81 71.81"><defs><style>.cls-1{isolation:isolate;}.cls-2{fill:gray;}.cls-3{fill:#999;}.cls-4{fill:#666;}.cls-5{fill:#b3b3b3;}.cls-6{fill:#333;}.cls-7{fill:#4d4d4d;}.cls-8{opacity:0.88;mix-blend-mode:hard-light;fill:url(#radial-gradient);}</style><radialGradient id="radial-gradient" cx="8.61" cy="-5.11" r="71.04" gradientUnits="userSpaceOnUse"><stop offset="0.01" stop-color="#e6e6e6"/><stop offset="0.11" stop-color="#d6d6d7"/><stop offset="0.32" stop-color="#ababb0"/><stop offset="0.62" stop-color="#656570"/><stop offset="0.98" stop-color="#06061a"/><stop offset="1" stop-color="#000014"/></radialGradient></defs><title>moon</title><g class="cls-1"><g id="Layer_2" data-name="Layer 2"><g id="moon"><circle class="cls-2" cx="35.91" cy="35.91" r="35.91"/><ellipse class="cls-3" cx="17.73" cy="19.18" rx="5.5" ry="4" transform="translate(-8.37 18.16) rotate(-45)"/><circle class="cls-4" cx="44.23" cy="4.18" r="1"/><circle class="cls-5" cx="43.23" cy="31.18" r="1"/><ellipse class="cls-5" cx="50.23" cy="39.68" rx="6" ry="7.5" transform="translate(-10.63 19.84) rotate(-20.25)"/><ellipse class="cls-6" cx="49.65" cy="39.33" rx="5.57" ry="6.96" transform="translate(-10.54 19.62) rotate(-20.25)"/><ellipse class="cls-4" cx="32.73" cy="38.18" rx="0.5" ry="1"/><ellipse class="cls-4" cx="28.73" cy="43.18" rx="1.5" ry="1"/><ellipse class="cls-4" cx="32.73" cy="10.18" rx="5.5" ry="2"/><ellipse class="cls-4" cx="58.23" cy="21.68" rx="1.5" ry="3" transform="matrix(0.94, -0.35, 0.35, 0.94, -3.9, 21.5)"/><ellipse class="cls-4" cx="42.23" cy="17.18" rx="4" ry="5"/><ellipse class="cls-7" cx="41.23" cy="17.18" rx="4" ry="5"/><ellipse class="cls-6" cx="22.7" cy="54.78" rx="3.62" ry="7" transform="translate(-30.27 28.13) rotate(-40.78)"/><ellipse class="cls-6" cx="40.73" cy="57.68" rx="3.5" ry="4.5"/><ellipse class="cls-4" cx="7.23" cy="38.68" rx="2" ry="5.5"/><ellipse cx="60.23" cy="53.18" rx="4" ry="2" transform="translate(-13.66 84.74) rotate(-64.57)"/><ellipse class="cls-4" cx="23.73" cy="34.18" rx="11.5" ry="6" transform="translate(-17.87 33.17) rotate(-53.83)"/><circle class="cls-4" cx="52.23" cy="11.18" r="1"/><circle class="cls-8" cx="35.91" cy="35.91" r="35.91"/></g></g></g></svg>