<svg xmlns="http://www.w3.org/2000/svg" xmlns:xlink="http://www.w3.org/1999/xlink" viewBox="0 0 165.31 165.28"><defs><style>.cls-1{isolation:isolate;}.cls-2{fill:#7ebbf2;}.cls-3{fill:#dcf1f8;}.cls-4{mix-blend-mode:hard-light;fill:url(#radial-gradient);}</style><radialGradient id="radial-gradient" cx="36.22" cy="43.38" r="124.45" gradientTransform="translate(-13.28 -2.52) scale(1.01 1.01)" gradientUnits="userSpaceOnUse"><stop offset="0" stop-color="#7ebbf2"/><stop offset="0.39" stop-color="#0071bc"/><stop offset="0.81" stop-color="#03246e"/><stop offset="1" stop-color="#050049"/></radialGradient></defs><title>neptune</title><g class="cls-1"><g id="Layer_2" data-name="Layer 2"><g id="Layer_14" data-name="Layer 14"><circle class="cls-2" cx="82.75" cy="82.47" r="82.47"/><path class="cls-3" d="M152.43,44.08c.26,2.38-3.65,4.57-5.69,5.69A37.8,37.8,0,0,1,131.1,54c-14.53,1.12-15.41-1.07-28.44,0-6.46.53-8.2,1.23-11.38,0-5.11-2-6.55-6.1-12.79-8.53-2.89-1.12-4.21-.88-7.11-1.42C64,42.7,61.71,39.23,45.78,27c-8.1-6.21-12-8.79-11.37-11.38.49-2,3.47-3.42,4.26-2.84s-.54,2.17,0,4.26,2.6,3.27,4.27,4.27c3.5,2.09,6.54,4.87,10,7.11,8.08,5.31,6.25,5.21,10,7.11,5.45,2.78,7.81,2.19,15.65,5.69,1.93.86,3.82,1.83,5.68,2.84,2.14,1.15,3.17,1.8,4.27,1.42,1.63-.56,1.67-2.77,2.84-2.84s1.15,1.67,2.85,2.84c2.29,1.58,4.37,0,7.11,1.42,1.57.82,1.68,1.77,2.84,2.85,2.88,2.66,7.51,1.89,11.38,1.42,15.8-1.94,15.84,1.34,21.32-1.42,6.82-3.44,8.91-9.58,12.8-8.53A3.86,3.86,0,0,1,152.43,44.08Z"/><path class="cls-3" d="M81.33,73.94c.51,1.66,1.26,1.85,1.42,2.84.27,1.59-1.21,3.59-2.84,4.27-2.89,1.2-6.74-1.55-8.53-4.27-2.12-3.19-2.57-8.08,0-11.37C74.83,61,81.75,62,85.6,64c6,3.08,9,10.83,7.11,14.21-.51.89-1.37,1.53-1.43,2.85-.07,1.83,1.5,3.48,2.85,4.26,2.78,1.62,6.84.81,8.53-1.42,1.39-1.83.09-3.19,1.42-5.69a8.46,8.46,0,0,1,7.11-4.26c3.21-.06,6.89,1.91,7.11,4.26a3,3,0,0,1-1.42,2.85c-1.19.56-2.41-.5-2.85,0s.2,2.23,1.43,2.84,2.32-1.22,4.26-1.42c3.11-.32,4.4,3.91,8.53,5.69,1.23.53,1.83.46,8.53,0,13.69-.94,15.74-1,18.49-2.85,2.39-1.65,3-3.15,4.26-2.84,2.49.62,4.23,7.7,1.43,11.38-.92,1.2-2.72,2.56-8.53,2.84-14.29.7-21.37-6.63-27-2.84-3,2-2.79,5.27-5.69,5.68-2.67.38-3.63-2.26-8.53-4.26-2-.82-5.84-2.38-10-1.42-4.8,1.12-6.08,4.77-10,4.26-2.21-.29-2.34-1.55-4.26-1.42-3.09.2-3.56,3.49-7.11,4.27a6.28,6.28,0,0,1-5.69-1.43c-1.61-1.73-.47-3.67-1.42-5.68-1.64-3.49-7.2-2.29-14.22-4.27-9.8-2.77-17.47-10.35-18.49-11.38-3.14-3.17-7-8.13-10-7.1-1.16.4-1.74,1.61-2.84,1.42s-1.4-1.79-2.85-4.27c-.85-1.46-2.63-4.51-5.68-5.69-1.43-.55-3.71-.91-4.27,0s.36,2.64,1.42,2.85S18,63.7,18.77,64s1.2,3,0,4.26c-1.59,1.68-5.87.76-7.11-1.42-.93-1.62.49-2.74,0-5.69s-2-3.2-2.85-5.69c-1.31-4,.5-9.41,2.85-10,2.2-.5,3,3.77,8.53,8.53,7.54,6.45,13.58,5,17.06,11.38,1.08,2,1.24,3.48,2.84,4.26,3.3,1.6,6.73-2.72,10-1.42,2.75,1.11,1.52,4.74,4.26,8.53,4.47,6.16,14.44,5.88,21.33,5.69,4.76-.13,8.34-.28,10-2.84s.86-7.27-1.43-8.53c-.86-.48-2.23-.64-2.84,0S81.1,73.2,81.33,73.94Z"/><path class="cls-3" d="M99.81,115.17c1.54-1.48,1.52-2.42,1.43-2.84-.45-2-5-2.59-7.11-2.84-3.56-.43-3.95.23-7.11,0-3.54-.27-6.18-1.33-10-2.85-5.43-2.18-6.92-3.69-8.53-2.84-1.87,1-2.58,4.49-1.42,5.69,1.4,1.44,4.5-1.49,8.53,0,2,.72,1.52,1.51,4.27,2.84,1.54.75,4.2,2,7.11,1.42,2.39-.5,3-1.87,4.26-1.42,1.65.61,1.17,3.3,2.85,4.27C95,117.1,96.62,117.21,99.81,115.17Z"/><path class="cls-3" d="M141.05,128c-3.28.88-3.58.77-5.69,1.42-3.12,1-3,1.38-4.26,1.43-2.62.08-3.12-1.55-5.69-1.43-1.77.09-2,.88-4.27,1.43a14.67,14.67,0,0,1-5.68,0c-8.86-1.09-8.73-.44-12.8-1.43-1.41-.34-7.22-1.75-7.11-2.84s5.71-1.51,10-1.42c10,.2,12,3.41,17.07,1.42,2.75-1.08,3.86-2.7,7.1-2.84,2.29-.11,3.31.63,5.69,0s3.15-1.88,4.27-1.43c1.56.63,1,3.38,2.84,4.27,1.3.62,2.81-.13,2.85,0S143.8,127.23,141.05,128Z"/><path class="cls-3" d="M85.6,125.13c-1.62-2.2-6.06-1.58-8.54-1.42-3.81.24-7.57-1-11.37-1.43-7.75-.87-19.95-5.06-29.86-12.79-8.2-6.4-12-13-18.49-12.8-1.15,0-4.55.37-5.68-1.42-.85-1.34.47-2.42,0-4.27-1-3.89-8.07-3.8-8.54-7.11a2.92,2.92,0,0,1,1.43-2.84c1.56-.8,4.26.88,5.68,2.84,1.83,2.52,1.11,4.87,2.85,5.69,1,.47,1.52-.16,2.84,0,2.69.33,4.08,3.39,5.69,5.69.89,1.27,3.45,3.23,8.53,7.11,8.8,6.71,13.2,10.06,15.64,11.37,8,4.3,15.26,8.2,21.33,5.69,1.65-.68,4.2-2.25,7.11-1.42,2.13.6,2,1.79,4.27,2.84,4.16,1.92,7.2-.85,10,1.42.23.19,1.81,1.53,1.42,2.85A2.46,2.46,0,0,1,87,126.55C86.24,126.32,85.94,125.6,85.6,125.13Z"/><path class="cls-3" d="M65.69,145c0,.5,2.44.06,5.69,1.43,1.66.7,1.56,1,2.84,1.42,2.43.73,3.38-.29,5.69,0,2.68.34,2.74,1.89,5.69,2.84,2.56.84,3-.18,7.11,0,5.27.23,6.06,2,10,1.42,2.81-.4,5.77-1.8,5.69-2.84-.06-.75-1.73-1.27-2.85-1.42-2.41-.33-3.23.92-5.69,1.42-3.55.73-4.18-1.39-10-1.42-2.52,0-2.77.39-4.26,0-2.64-.69-3-2.26-5.69-2.85-1.84-.4-1.81.31-4.27,0-2.92-.36-3.35-1.4-5.69-1.42S65.64,144.57,65.69,145Z"/><path class="cls-3" d="M58.58,11.38c.92,1.31,2.79.71,5.69,1.42,1.69.41,3,1.22,5.68,2.84,3.79,2.31,4.38,3.48,7.11,4.27,1.46.42,3.13.9,4.27,0,1.61-1.27,1.44-4.7,0-5.69-.72-.5-1.9-.33-4.27,0-1.43.2-2.51.48-2.84,0s.3-1.05,0-1.42c-.43-.54-1.83.55-2.84,0S70.92,10.8,70,10s-2.1,0-4.26,0c-4,.09-6-2.4-7.11-1.42A2.42,2.42,0,0,0,58.58,11.38Z"/><path class="cls-4" d="M165.31,83.18c-.4,45.94-37.32,82.1-83.19,82.1-45.37,0-81-36.73-82.1-83.18C-1.08,34.58,38.91,0,82.26,0,128.32,0,165.7,37.13,165.31,83.18Z"/></g></g></g></svg>