<svg xmlns="http://www.w3.org/2000/svg" xmlns:xlink="http://www.w3.org/1999/xlink" viewBox="0 0 71.81 71.81"><defs><style>.cls-1{isolation:isolate;}.cls-2{fill:gray;}.cls-3{fill:#b3b3b3;}.cls-4{opacity:0.88;mix-blend-mode:hard-light;fill:url(#radial-gradient);}</style><radialGradient id="radial-gradient" cx="8.61" cy="-5.11" r="71.04" gradientUnits="userSpaceOnUse"><stop offset="0.01" stop-color="#e6e6e6"/><stop offset="0.11" stop-color="#d6d6d7"/><stop offset="0.32" stop-color="#ababb0"/><stop offset="0.62" stop-color="#656570"/><stop offset="0.98" stop-color="#06061a"/><stop offset="1" stop-color="#000014"/></radialGradient></defs><title>pluto</title><g class="cls-1"><g id="Layer_2" data-name="Layer 2"><g id="Layer_17" data-name="Layer 17"><circle class="cls-2" cx="35.91" cy="35.91" r="35.91"/><path class="cls-3" d="M6.43,38.58c.8.88,2.66,2,15-1.07,10.61-2.67,12.93-4.4,13.93-5.36a26,26,0,0,0,5.36-7.5c1.42-3.29,1.34-5.45,3.21-6.43s5-.18,5.36,1.07-1.44,2.94-3.21,3.22c-1.14.18-1.89-.35-2.15,0s.66,2.24,2.15,3.21c3.09,2,7.27.11,7.5,0a9.62,9.62,0,0,0,4.29-4.28c1.63-3.16,2.11-8.22-1.07-11.79-2.6-2.91-7-4.55-8.58-3.22-.81.7-.27,1.73-1.07,3.22-.48.88-1.64,2.34-5.36,3.21-7.71,1.82-13.71-1.86-21.44,0-.69.17-9,2.3-12.86,9.65A21.73,21.73,0,0,0,5.36,33.23C5.42,36.08,5.45,37.5,6.43,38.58Z"/><path class="cls-3" d="M54.66,28.94c.67,1.22,3.59,1.26,5.36,0a6.12,6.12,0,0,0,2.14-4.29c.28-2.26-.69-3.08,0-4.29.82-1.4,2.46-.84,3.22-2.14.9-1.56-.07-4.74-2.14-5.36C62,12.49,60.3,13,60,13.93s1.2,1.66,1.07,3.22c-.08.91-.63,1.15-1.07,2.14-.88,2,.68,3.07,0,4.29s-2.66.5-4.29,2.14C54.88,26.59,54.18,28.06,54.66,28.94Z"/><path class="cls-3" d="M40.73,8.57c0,.74-.12.86,0,1.08.48.87,2.84.79,3.21,0,.19-.41-.22-.81,0-1.08.37-.44,1.69.45,2.15,0s-.44-1.38,0-2.14,1.79-.36,2.14-1.07-.35-1.63-1.07-2.14c-1.07-.76-2.74-.73-3.22,0s.44,1.45,0,2.14c-.59.95-2.66.11-3.21,1.07C40.51,6.82,40.82,7,40.73,8.57Z"/><path class="cls-3" d="M15,40.73c-1.53,2-.35,5.43,0,6.43.4,1.18,1.55,3.87,5.35,6.43C26.91,58,32.67,56.18,45,60c2,.62,4.36,1.45,4.28,2.14s-3,1-4.28,1.08A45.89,45.89,0,0,1,24.65,60a37,37,0,0,1-11.79-8.57c-.54-.54-4-4.08-3.21-5.36.51-.83,2.34,0,3.21-1.07s.27-3.92-1.07-4.29A1.94,1.94,0,0,0,9.65,41.8c-.11.39.13.59,0,1.07S9,44,8.57,43.94c-1.06-.06-.94-4.07-2.14-4.28-.83-.15-2.23,1.57-2.14,3.21.07,1.45,1.27,2.32,2.14,3.22C9.11,48.85,9,52.26,9.65,54.66c2.21,8.5,15.68,13.42,17.14,13.93A32.91,32.91,0,0,0,45,69.67,31.94,31.94,0,0,0,59,62.16c3.84-3.4,5.59-6.51,8.57-11.79,2.26-4,3.11-6.51,2.15-8.57a4.57,4.57,0,0,0-2.15-2.14,4.77,4.77,0,0,0-5.36,1.07c-1.65,2.06.51,4.93-1.07,6.43a3.62,3.62,0,0,1-4.28,0c-2.22-1.75,3.23-7.44,1.07-10.72-.17-.25-.29-.36-3.22-2.14-3.44-2.09-5.16-3.14-5.36-3.22-4.87-1.91-8.83,7.61-18.22,9.65C23.22,42.43,17.4,37.63,15,40.73Z"/><circle class="cls-4" cx="35.91" cy="35.91" r="35.91"/></g></g></g></svg>