<svg xmlns="http://www.w3.org/2000/svg" viewBox="0 0 90.27 90.27"><defs><style>.cls-1{fill:#dee3ec;}</style></defs><g id="Layer_2" data-name="Layer 2"><g id="Layer_1-2" data-name="Layer 1"><path class="cls-1" d="M25,27.31C23.75,32.13,21,40.2,19.07,46H31c-1.44-4.75-4.47-13.54-6-18.72Z"/><path class="cls-1" d="M69.33,37.82c-4.75,0-6.77,3.39-7.2,6.34h9.93A26.87,26.87,0,0,0,75.88,44v-.44A6.14,6.14,0,0,0,69.33,37.82Z"/><path class="cls-1" d="M78.27,0H12A12,12,0,0,0,0,12V78.27a12,12,0,0,0,12,12H78.27a12,12,0,0,0,12-12V12A12,12,0,0,0,78.27,0ZM48,66.34H38.51c-.43,0-.57-.15-.79-.51L33.91,55.1H16.34l-3.6,10.66a.89.89,0,0,1-.87.58H3.38c-.58,0-.73-.29-.58-.72L17.92,23.93a12.16,12.16,0,0,0,.72-4.4.51.51,0,0,1,.5-.57h11.6c.36,0,.5.07.57.43L48.45,65.62C48.59,66.05,48.52,66.34,48,66.34ZM85.1,50.28c0,.36-.22.5-.51.58a57.68,57.68,0,0,1-7.49.28h-15c.43,4,3.53,7.35,10.73,7.35a24,24,0,0,0,9.28-1.73c.22-.14.44-.07.44.36V64a.88.88,0,0,1-.44.87c-3,1.37-6.26,2.16-11.59,2.16-13.9,0-18.72-9.51-18.72-18.22,0-9.87,6.26-19,17.93-19,11.16,0,15.7,8.5,15.7,15.77A22.33,22.33,0,0,1,85.1,50.28Z"/></g></g></svg>