<svg xmlns="http://www.w3.org/2000/svg" viewBox="0 0 90.27 90.27"><defs><style>.cls-1{fill:#dee3ec;}</style></defs><g id="Layer_2" data-name="Layer 2"><g id="Layer_1-2" data-name="Layer 1"><path class="cls-1" d="M78.27,0H12A12,12,0,0,0,0,12V78.27a12,12,0,0,0,12,12H78.27a12,12,0,0,0,12-12V12A12,12,0,0,0,78.27,0ZM57.2,66.34H47.69c-.43,0-.57-.15-.79-.51L43.09,55.1H25.52l-3.6,10.66a.89.89,0,0,1-.87.58H12.56c-.58,0-.73-.29-.58-.72L27.1,23.93a12.16,12.16,0,0,0,.72-4.4.51.51,0,0,1,.5-.57h11.6c.36,0,.5.07.57.43L57.63,65.62C57.77,66.05,57.7,66.34,57.2,66.34ZM74,65.69c0,.43-.14.65-.72.65H64.47c-.51,0-.72-.22-.72-.72V31.2c0-.43.21-.65.57-.65h9c.51,0,.65.14.65.65Zm-5-39a5.33,5.33,0,0,1-5.69-5.68A5.5,5.5,0,0,1,69,15.36a5.31,5.31,0,0,1,5.62,5.69A5.4,5.4,0,0,1,68.93,26.73Z"/><path class="cls-1" d="M34.16,27.31c-1.23,4.82-4,12.89-5.91,18.72h12c-1.44-4.75-4.47-13.54-6-18.72Z"/></g></g></svg>