<svg xmlns="http://www.w3.org/2000/svg" xmlns:xlink="http://www.w3.org/1999/xlink" viewBox="0 0 555.84 355.31"><defs><style>.cls-1{fill:url(#linear-gradient);}.cls-2{fill:url(#linear-gradient-2);}.cls-3{fill:url(#linear-gradient-3);}.cls-4{fill:#1a1a1a;}.cls-5{fill:url(#linear-gradient-4);}.cls-6{fill:url(#radial-gradient);}.cls-7{fill:#666;}.cls-8{fill:#999;}.cls-9{fill:url(#radial-gradient-2);}.cls-10{fill:url(#radial-gradient-3);}.cls-11{fill:url(#radial-gradient-4);}.cls-12{fill:url(#radial-gradient-5);}.cls-13{fill:#b3b3b3;}.cls-14{fill:none;}.cls-15{fill:url(#linear-gradient-5);}.cls-16{fill:#a5a5a5;}.cls-17{fill:url(#linear-gradient-6);}.cls-18{fill:url(#linear-gradient-7);}.cls-19{fill:url(#linear-gradient-8);}.cls-20{fill:url(#linear-gradient-9);}.cls-21,.cls-42{fill:#2e3192;}.cls-22{fill:red;}.cls-23{fill:#1d236d;}.cls-24{fill:#d80000;}.cls-25{fill:url(#radial-gradient-6);}.cls-26{fill:url(#linear-gradient-10);}.cls-27{fill:url(#linear-gradient-11);}.cls-28{fill:url(#radial-gradient-7);}.cls-29{fill:url(#linear-gradient-12);}.cls-30{fill:url(#linear-gradient-13);}.cls-31{fill:url(#linear-gradient-14);}.cls-32{fill:#ccc;}.cls-33{fill:url(#radial-gradient-8);}.cls-34{opacity:0.23;fill:url(#radial-gradient-9);}.cls-35{opacity:0.61;fill:url(#radial-gradient-10);}.cls-36{fill:url(#linear-gradient-15);}.cls-37{fill:url(#radial-gradient-11);}.cls-38{fill:#1b1464;}.cls-39{fill:url(#linear-gradient-16);}.cls-40{fill:url(#linear-gradient-17);}.cls-41{fill:url(#linear-gradient-18);}.cls-42{font-size:24px;font-family:Exo2-Black, "Exo 2";font-weight:800;}</style><linearGradient id="linear-gradient" x1="263.6" y1="200.66" x2="261.99" y2="265.45" gradientUnits="userSpaceOnUse"><stop offset="0.45" stop-color="#333"/><stop offset="0.66" stop-color="#434343"/><stop offset="1" stop-color="#666"/></linearGradient><linearGradient id="linear-gradient-2" x1="299.92" y1="118.79" x2="308.29" y2="146.69" gradientUnits="userSpaceOnUse"><stop offset="0" stop-color="#666"/><stop offset="0.34" stop-color="#434343"/><stop offset="0.55" stop-color="#333"/></linearGradient><linearGradient id="linear-gradient-3" x1="91.64" y1="107.5" x2="183.71" y2="107.5" gradientUnits="userSpaceOnUse"><stop offset="0.45" stop-color="#ccc"/><stop offset="0.82" stop-color="#bcbcbc"/><stop offset="1" stop-color="#b3b3b3"/></linearGradient><linearGradient id="linear-gradient-4" x1="295.34" y1="35.5" x2="300.34" y2="35.5" xlink:href="#linear-gradient-3"/><radialGradient id="radial-gradient" cx="297.84" cy="4" r="4" gradientUnits="userSpaceOnUse"><stop offset="0.31" stop-color="#e6e6e6"/><stop offset="0.53" stop-color="#d1d1d1"/><stop offset="0.82" stop-color="#bbb"/><stop offset="1" stop-color="#b3b3b3"/></radialGradient><radialGradient id="radial-gradient-2" cx="177.84" cy="82" r="3.5" gradientUnits="userSpaceOnUse"><stop offset="0" stop-color="#fcee21"/><stop offset="1" stop-color="#ffb800"/></radialGradient><radialGradient id="radial-gradient-3" cx="177.84" cy="68" r="3.5" xlink:href="#radial-gradient-2"/><radialGradient id="radial-gradient-4" cx="305.84" cy="83" r="3.5" xlink:href="#radial-gradient-2"/><radialGradient id="radial-gradient-5" cx="305.84" cy="69" r="3.5" xlink:href="#radial-gradient-2"/><linearGradient id="linear-gradient-5" x1="141.87" y1="216.05" x2="196.85" y2="239.31" gradientUnits="userSpaceOnUse"><stop offset="0" stop-color="#e6e6e6"/><stop offset="0.45" stop-color="#ccc"/><stop offset="0.82" stop-color="#bcbcbc"/><stop offset="1" stop-color="#b3b3b3"/></linearGradient><linearGradient id="linear-gradient-6" x1="342.43" y1="245.48" x2="327.34" y2="245.48" gradientUnits="userSpaceOnUse"><stop offset="0.05" stop-color="red"/><stop offset="0.06" stop-color="#fc0000"/><stop offset="0.23" stop-color="#dc0000"/><stop offset="0.41" stop-color="#c30000"/><stop offset="0.59" stop-color="#b10000"/><stop offset="0.78" stop-color="#a60000"/><stop offset="1" stop-color="#a30000"/></linearGradient><linearGradient id="linear-gradient-7" x1="289.34" y1="199.16" x2="309.64" y2="199.16" xlink:href="#linear-gradient"/><linearGradient id="linear-gradient-8" x1="249.34" y1="274.6" x2="275.09" y2="274.6" xlink:href="#linear-gradient"/><linearGradient id="linear-gradient-9" x1="76.24" y1="186.17" x2="75.66" y2="287.51" gradientUnits="userSpaceOnUse"><stop offset="0" stop-color="#e6e6e6"/><stop offset="0.3" stop-color="#ccc"/><stop offset="0.33" stop-color="#c7c7c7"/><stop offset="0.43" stop-color="#bcbcbc"/><stop offset="0.58" stop-color="#b5b5b5"/><stop offset="1" stop-color="#b3b3b3"/></linearGradient><radialGradient id="radial-gradient-6" cx="199" cy="237.74" r="39.6" gradientUnits="userSpaceOnUse"><stop offset="0" stop-color="red"/><stop offset="0.37" stop-color="#fd0000"/><stop offset="0.5" stop-color="#f60000"/><stop offset="0.6" stop-color="#eb0000"/><stop offset="0.67" stop-color="#da0000"/><stop offset="0.74" stop-color="#c40000"/><stop offset="0.79" stop-color="#a90000"/><stop offset="0.8" stop-color="#a30000"/></radialGradient><linearGradient id="linear-gradient-10" x1="118.53" y1="129.35" x2="149.65" y2="129.35" xlink:href="#radial-gradient-6"/><linearGradient id="linear-gradient-11" x1="100.48" y1="218.22" x2="81.43" y2="228.07" xlink:href="#radial-gradient-6"/><radialGradient id="radial-gradient-7" cx="141.11" cy="181.6" r="31.9" gradientTransform="matrix(0.04, 1, -0.49, 0.02, 224.05, 37.31)" xlink:href="#radial-gradient-6"/><linearGradient id="linear-gradient-12" x1="113.3" y1="287.11" x2="156.7" y2="287.11" xlink:href="#radial-gradient-6"/><linearGradient id="linear-gradient-13" x1="165.34" y1="136.25" x2="195.84" y2="136.25" xlink:href="#radial-gradient-6"/><linearGradient id="linear-gradient-14" x1="192.07" y1="126.06" x2="291.34" y2="126.06" xlink:href="#radial-gradient-6"/><radialGradient id="radial-gradient-8" cx="231.77" cy="52.28" r="54.28" gradientUnits="userSpaceOnUse"><stop offset="0.2" stop-color="#ccc"/><stop offset="0.37" stop-color="#bcbcbc"/><stop offset="0.68" stop-color="#939393"/><stop offset="0.81" stop-color="gray"/><stop offset="1" stop-color="#4d4d4d"/></radialGradient><radialGradient id="radial-gradient-9" cx="234.9" cy="54.72" r="39.14" gradientUnits="userSpaceOnUse"><stop offset="0" stop-color="#f2f2f2"/><stop offset="0.38" stop-color="#efefef"/><stop offset="0.65" stop-color="#e6e6e6"/><stop offset="0.89" stop-color="#d6d6d6"/><stop offset="1" stop-color="#ccc"/></radialGradient><radialGradient id="radial-gradient-10" cx="238.77" cy="42.19" r="52.05" gradientTransform="translate(23.5 147.54) rotate(-31.03) scale(1 0.49)" xlink:href="#radial-gradient-9"/><linearGradient id="linear-gradient-15" x1="270.18" y1="155.43" x2="385.34" y2="155.43" xlink:href="#linear-gradient-3"/><radialGradient id="radial-gradient-11" cx="277.07" cy="142.47" r="36.38" gradientTransform="translate(514.38 -22.06) rotate(128.91) scale(1 0.57)" xlink:href="#radial-gradient-6"/><linearGradient id="linear-gradient-16" x1="392.44" y1="151.89" x2="357.27" y2="160.41" gradientUnits="userSpaceOnUse"><stop offset="0.25" stop-color="#ccc"/><stop offset="0.57" stop-color="#bcbcbc"/><stop offset="0.72" stop-color="#b3b3b3"/></linearGradient><linearGradient id="linear-gradient-17" x1="534.77" y1="58.33" x2="403.5" y2="117.93" gradientUnits="userSpaceOnUse"><stop offset="0" stop-color="#b3b3b3"/><stop offset="0.18" stop-color="#bcbcbc"/><stop offset="0.55" stop-color="#ccc"/></linearGradient><linearGradient id="linear-gradient-18" x1="312.51" y1="170.05" x2="333.34" y2="170.05" xlink:href="#radial-gradient-6"/></defs><g id="Layer_2" data-name="Layer 2"><g id="Astronaut"><path class="cls-1" d="M226.78,275l17.56,7.88s13-5.34,16-9.34,40.5-92,40.5-92l-25-10L225.1,270.39Z"/><path class="cls-2" d="M293.79,107.5,312.48,118a4.91,4.91,0,0,1,1.46,1.26l4.78,6.26a5.72,5.72,0,0,1,1.18,3.3l.23,7.16-4.29,17-31.53-29Z"/><path class="cls-3" d="M110.65,78.5s-7.31-26-3.31-27,7.62,3.87,9.31,7.94,7,17.06,7,17.06-1.64-20.45,0-23.72,2.64-5.28,4.64-5.28,4.78,1.81,5.39,8.41S133,83.5,135.18,92.5s3.15,17.26,8.16,25c5.54,8.55,19.13,15.34,36,10.41,15.7-4.59-16,39.59-16,39.59s-16-2-32-19-30.65-33-31.33-38c0,0,.68-4,0-4.52a8.81,8.81,0,0,1-5.67-3.48c-2-3-4.06-14-1.53-17s4.6-6,6.57-3.5S95,70.5,110.65,78.5Z"/><polygon class="cls-4" points="288.84 111 296.84 118 299.47 122.32 298.84 143 283.22 133.81 288.84 111"/><rect class="cls-5" x="295.34" y="7.5" width="5" height="56"/><circle class="cls-6" cx="297.84" cy="4" r="4"/><polygon class="cls-7" points="299.34 52.5 309.84 59 299.34 61 299.34 52.5"/><polygon class="cls-7" points="185.98 54.62 174.89 60.19 184.56 63 185.98 54.62"/><rect class="cls-8" x="171.34" y="60.5" width="14" height="32" rx="4.39"/><rect class="cls-8" x="298.34" y="58.5" width="14" height="32" rx="4.39"/><circle class="cls-9" cx="177.84" cy="82" r="3.5"/><circle class="cls-10" cx="177.84" cy="68" r="3.5"/><circle class="cls-11" cx="305.84" cy="83" r="3.5"/><circle class="cls-12" cx="305.84" cy="69" r="3.5"/><path class="cls-13" d="M100.34,106.5s11,3,12,2,3-11,1-12-14-12-14-12l9,14s-1,5-6,2C102.34,100.5,99.34,103.5,100.34,106.5Z"/><path class="cls-13" d="M101.48,78.5s19.86,5,26.86,20c3,9,5,18,7,20s17.47,15,20.23,17.5,9.77,22.5,4.77,29.5l1.75,1.25,16.25-39.24s-23,4-30-5-12-15-13-35,0-32-3-36c-1-2-2-4-6-3,0,0,4,2,4,8s1,29-1,30S110.62,72.5,101.48,78.5Z"/><path class="cls-13" d="M106.77,54.62s2.57-3.12,5.57,1.88,9,22,11,23V75.28S116,54.51,110.59,51.62C109.25,50.91,106.34,50.26,106.77,54.62Z"/><path class="cls-4" d="M239.83,258.18s5.51-2.68,13.51-19.68,21-47,21-47v-6.68l-24,28.68-9,21Z"/><path class="cls-14" d="M135,250.28c2.2-2.76,3.88-5,5.17-6.77l-.16-.11Z"/><path class="cls-14" d="M140.13,243.51c1.36-1.88,2.28-3.28,2.9-4.31L140,243.4Z"/><path class="cls-8" d="M54.34,321.5l7,1,2,4h5l3,5h5l3,5h5l2,4h6l2,5,6-1a4.94,4.94,0,0,0,1.71,5.05c1.29.95,4.07-1.27,6.29.95,2,2,1,3,2,4,3.16,3.16,8-4,8-4l.13-.2-65-36.47Z"/><path class="cls-13" d="M213.34,177.51c-.08.22.63.81,1.93,1.6-.09-.27-.14-.55-.22-.82C214,177.82,213.34,177.51,213.34,177.51Z"/><path class="cls-15" d="M239.83,210.55c2.76-5.5,4.7-13,6.11-20.33a20.48,20.48,0,0,1-30.67-11.11c-1.3-.79-2-1.38-1.93-1.6,0,0,.63.31,1.71.78-.1-.38-.21-.75-.29-1.14-.91-.24-1.42-.47-1.42-.65,0,0,.49.06,1.34.12a20.48,20.48,0,0,1,33.07-19.53,135.2,135.2,0,0,0-6-15.39l-.6-20.11L194.21,117s-9.87,6.5-15.87,14.33-26.63,60.32-26.63,60.32c-6.27,2.7-8.86,9.74-9.65,17.47.71,11.36,2.78,27.6,2.78,27.6L143,239.2c-.62,1-1.54,2.43-2.9,4.31.44.33.85.66,1.21,1-.36-.33-.77-.66-1.21-1-1.29,1.79-3,4-5.17,6.77l-1.62,2.22-.1-.09c-1.7,2.09-3.64,4.44-5.9,7.09-17,20-17,42-19,39s-13-10-28-13c-11.62-2.32-21.44,15.16-25.27,23.15C66,314.94,97.4,333,102.34,335.5c6,3,10,6,19-3s18-31,21-35,10-16,36-24c19-4,21-3,27.07-5,10.17-3.35,16.93-7,24.93-24a103.62,103.62,0,0,1-1.06,22.06,41.93,41.93,0,0,0,6.43-10.8C235.45,240.05,235.88,218.43,239.83,210.55Z"/><path class="cls-16" d="M230.34,244.5c-8,17-14.76,20.65-24.93,24-6.07,2-8.07,1-27.07,5-26,8-33,20-36,24s-12,26-21,35-13,6-19,3C97.4,333,66,314.94,55.07,308.65,54,311,53.34,312.5,53.34,312.5l.15,1.33,65,36.47c1.58-2.37,18.28-27.51,26.37-41.75,8.5-14.94,18.5-23.05,51.5-29.05,18.12-3.3,26.89-6,32.94-12.94A103.62,103.62,0,0,0,230.34,244.5Z"/><path class="cls-16" d="M276.34,184.5l10.47-58.44-45.7-4.47.6,20.11a135.2,135.2,0,0,1,6,15.39,20.5,20.5,0,0,1,5.64,7.23c1,.18.61-.51,0,0a20.6,20.6,0,0,1,1.46,4.26h0a20.26,20.26,0,0,1-.64,11.1h0a20.62,20.62,0,0,1-3.36,6.1h0a20.58,20.58,0,0,1-4.91,4.44c-1.41,7.33-3.35,14.83-6.11,20.33-4,7.88-4.38,29.5-4.12,45.21,2.06-4.66,4.11-10.39,6.63-17.57C253.34,206.87,276.34,184.5,276.34,184.5Z"/><polygon class="cls-17" points="343.34 256.5 338.34 253.5 342.34 250.5 339.34 236.5 334.34 235.5 337.34 230.5 330.82 221.5 327.34 221.5 329.34 217.5 323.48 207.5 317.34 207.5 318.34 203.5 314.34 196.5 308.34 196.57 310.34 191.5 309.64 190.45 297.67 212.83 302.34 217.5 304.34 217.5 304.34 221.5 310.34 229.5 313.34 230.5 312.34 232.5 317.34 241.5 321.34 242.5 319.34 243.5 320.34 251.5 322.34 253.5 320.34 255.5 319.34 261.5 321.34 264.5 318.18 265.51 314.34 269.5 314.34 273.5 311.34 273.5 305.34 276.5 304.34 279.5 302.34 278.5 294.34 278.5 292.2 281.86 291.34 278.5 284.34 276.5 280.34 276.5 280.34 274.5 275.34 270.5 275.09 270.58 263.77 289.45 270.34 293.5 273.34 291.5 274.34 296.5 289.34 299.5 291.34 295.5 292.34 300.5 308.34 299.39 309.34 295.5 313.34 298.5 325.34 290.5 324.34 285.5 330.34 286.5 337.34 274.5 334.57 270.5 339.34 270.5 343.34 256.5"/><polygon class="cls-18" points="308.34 188.5 307.34 186.5 295.34 185.5 289.34 203.5 295.34 205.5 293.34 208.5 297.67 212.83 309.64 190.45 308.34 188.5"/><polygon class="cls-19" points="272.34 271.5 272.34 267.5 269.35 260.93 262.97 259.75 249.34 277.5 257.34 281.1 257.34 285.5 263.77 289.45 275.09 270.58 272.34 271.5"/><path class="cls-16" d="M140,243.4c-6.21-4.48-19.37-7.9-28.63-7.9-14.44,0-32,5-40,12s-22.71,13.61-31,9C30,250.76,12.45,212.66,7.52,199.2a32.28,32.28,0,0,0-4.29,3.38l31,66.92h.16c5,0,19.75-4.77,33-12,12.92-7.05,16-11,34-12,21.59-1.2,30.87,6,31.9,6.91.61-.74,1.18-1.45,1.72-2.13Z"/><path class="cls-8" d="M2.34,203.5s-3.41,2.89-2,6c.4.87,3.52,2.95,4,4,.6,1.31-.71,3.45,0,5,.58,1.26,3.36,1.62,4,3s-1.67,3.55-1,5,3.34,1.58,4,3c.83,1.77-.86,3.19,0,5,.55,1.16,3.45,1.84,4,3s-.62,3.72,0,5,3.33,2.62,4,4-.62,2.75,0,4,4.41,2.84,5,4c.81,1.6-1.76,3.55-1,5,.63,1.22,3.41,1.91,4,3,.74,1.38-.65,3.87,0,5,1.05,1.82,4.8,2,6.84,2L3.23,202.58C2.63,203.16,2.34,203.5,2.34,203.5Z"/><path class="cls-20" d="M40.34,256.5c8.29,4.61,23-2,31-9s25.56-12,40-12c9.26,0,22.42,3.42,28.63,7.9l3.06-4.2c1.31-2.15,1.31-2.7,1.31-2.7s-3.59-14.62-2.28-27.38c-.33-5.37-.36-9.66.28-10.62a38.64,38.64,0,0,0,2.5-4.07c-.61-.39-25.68-2.05-41.5,2.07s-28,9-46,25c0,0-8.52-26-19.14-29.44-4.86-1.56-14.21-.8-21.86,2.44a52.41,52.41,0,0,0-8.82,4.7C12.45,212.66,30,250.76,40.34,256.5Z"/><path class="cls-21" d="M247.37,181.78c.43-2.9.78-5.62,1.08-8-11.47,6.27-28.67,4.7-33.69,3.36.08.39.19.76.29,1.14,3.44,1.49,11.51,4.66,19,5.13A44.87,44.87,0,0,0,247.37,181.78Z"/><path class="cls-22" d="M246.58,186.73c.29-1.69.55-3.35.79-4.95a44.87,44.87,0,0,1-13.32,1.64c-7.49-.47-15.56-3.64-19-5.13.08.27.13.55.22.82C220.35,182.21,234.54,188.34,246.58,186.73Z"/><path class="cls-22" d="M248.45,173.79c.32-2.54.57-4.68.77-6.22-3.78,2.75-9.15,6.14-14.38,7.62-7.59,2.16-16.78,1.7-20.16,1.43,0,.18,0,.36.08.53C219.78,178.49,237,180.06,248.45,173.79Z"/><path class="cls-21" d="M214.34,173a20.47,20.47,0,0,0,.34,3.62c3.38.27,12.57.73,20.16-1.43,5.23-1.48,10.6-4.87,14.38-7.62,0-.3.08-.58.12-.82.34-2.29-.43-5.89-1.59-9.66A20.49,20.49,0,0,0,214.34,173Z"/><path class="cls-21" d="M215.27,179.11a20.48,20.48,0,0,0,30.67,11.11c.23-1.17.44-2.34.64-3.49C234.54,188.34,220.35,182.21,215.27,179.11Z"/><path class="cls-23" d="M249.34,166.75c0,.24-.08.52-.12.82,1.83-1.33,3.29-2.51,4.17-3.25a20.5,20.5,0,0,0-5.64-7.23C248.91,160.86,249.68,164.46,249.34,166.75Z"/><path class="cls-23" d="M248.45,173.79c-.3,2.37-.65,5.09-1.08,8,2.8-.72,5.22-1.52,6.84-2.1a20.26,20.26,0,0,0,.64-11.1A21.44,21.44,0,0,1,248.45,173.79Z"/><path class="cls-24" d="M248.45,173.79a21.44,21.44,0,0,0,6.4-5.21,20.6,20.6,0,0,0-1.46-4.26c-.88.74-2.34,1.92-4.17,3.25C249,169.11,248.77,171.25,248.45,173.79Z"/><path class="cls-23" d="M245.94,190.22a20.58,20.58,0,0,0,4.91-4.44,24.45,24.45,0,0,1-4.27.95C246.38,187.88,246.17,189.05,245.94,190.22Z"/><path class="cls-24" d="M246.58,186.73a24.45,24.45,0,0,0,4.27-.95,20.62,20.62,0,0,0,3.36-6.1c-1.62.58-4,1.38-6.84,2.1C247.13,183.38,246.87,185,246.58,186.73Z"/><path class="cls-25" d="M160.23,231.5s20-12.62,48.11-7c20,4,24,29,18,40-2.08,3.82-8,12-22,14-15.91,2.27,15.62,10.81,31.46-13,17-25.59-1.8-42.94-16.46-47C198.54,212.73,169.34,218.5,160.23,231.5Z"/><path class="cls-26" d="M119.75,136s20.16-16.21,23.59-18.5c3-2,8.94-.35,5,5-1,2-22.06,17.89-24,19C120.62,143.63,116.41,138.68,119.75,136Z"/><path class="cls-27" d="M73.34,206.5s10,14,13.52,25C91.15,244.91,90,248.58,90,248.58s5.23,4.08,6.28,0-.94-18.08-4.94-27.08-8.12-16.84-12-20C77.17,199.73,72.17,203.73,73.34,206.5Z"/><path class="cls-28" d="M144.34,234.5s3-37,7-43h-7c-3,0-5,3-5,7C139.34,199.5,140.34,224.5,144.34,234.5Z"/><path class="cls-29" d="M113.34,275.5s12,6,18,10c4.71,3.14,18,13.44,19,16.72s8,1.28,6-3.72-28-27-36-28S113.34,275.5,113.34,275.5Z"/><path class="cls-30" d="M165.34,159.5s19.5-29.5,30.5-37.5l-3-9s-9.5-.5-16.5,13.5S165.34,159.5,165.34,159.5Z"/><path class="cls-31" d="M192.34,107.5s-4,20,19,30,46.53,9,63.27,0a31.36,31.36,0,0,0,16.73-26Z"/><ellipse class="cls-13" cx="244.34" cy="75" rx="60.5" ry="62"/><ellipse class="cls-32" cx="242.34" cy="74" rx="58.5" ry="56"/><ellipse class="cls-33" cx="242.84" cy="73.5" rx="56" ry="52.5"/><ellipse class="cls-34" cx="239.82" cy="68.25" rx="40.48" ry="37.75"/><path class="cls-35" d="M210.34,84.5c7,0,3-29,25-26,9,1.22,21-.09,24-1,10-3,8-10,1-16s-21-12-39-1-18,28-18,28S203.34,84.5,210.34,84.5Z"/><path class="cls-36" d="M292.34,127.5s13,11,17,17.13c3,4.66,8.51,7.36,10.76,8.11s16.24,1.76,24.24-5.24,16.59-11,25.79-21.5,11.21,4.5,8.21,7.5,7,41,7,41a11.14,11.14,0,0,1-12,4s-11.06-.69-18,0c-5.53.55-23,10-28,10s-39,1-49-7-8-40-8-40Z"/><path class="cls-37" d="M278.34,181.5s-8.63,1.46-13-16c-3-12-1-34,16-40s24,7,23,13c-1,0-13-11-24,2C264,159.77,278.34,181.5,278.34,181.5Z"/><path class="cls-8" d="M357.59,162.05l9,6.21a3.77,3.77,0,0,0,5.83-2.37l2.33-11.64a3.76,3.76,0,0,0-1.92-4.07l-8.44-4.5a3.78,3.78,0,0,0-5.4,2.26l-2.92,9.94A3.77,3.77,0,0,0,357.59,162.05Z"/><rect class="cls-38" x="369.22" y="69.34" width="5" height="115.66" transform="translate(-12.04 43.06) rotate(-6.52)"/><path class="cls-39" d="M360.34,143.5c.31-.95,1-5,13-8s14.06,0,14.06,0,.94,5-3.06,6,5,0,6,4-3,6-3,6,6,1,6,6-5,6-5,6,7,4,1,8-11,6-18,4,0-7,0-7-10-3-4-9c0,0-9-6-1-12C363.81,149.23,359.32,146.62,360.34,143.5Z"/><polygon class="cls-40" points="363.18 74.5 542.57 56.5 529.38 84.5 555.84 110.5 366.84 111 363.18 74.5"/><path class="cls-13" d="M275.69,176.28A47.26,47.26,0,0,0,299.75,178c13.59-2.5,8.59-13.5,11.59-19.5,1-2,4.17-5.86,6.08-6.93l1.21.58-4.29,20.35L322.4,189s-37.06-.48-44.06-7.48Z"/><path class="cls-41" d="M333.34,187.5s-6.67,3.59-11-2c-2.74-3.54-5.55-12.09-1-26,2.66-8.12,9-7,9-7,.14-.61-4.88-3.89-9-2-4.54,2.09-6,5-8,14-2.47,11.13,1,19,5,22S328.34,192.5,333.34,187.5Z"/><text class="cls-42" transform="translate(384.9 100.68) rotate(-2.91)">HI, HIRE ME!</text></g></g></svg>