<svg xmlns="http://www.w3.org/2000/svg" viewBox="0 0 1645.93 3774.49"><defs><style>.cls-1{fill:#1595e5;}.cls-2{fill:#8934ec;}.cls-3{fill:#dce3ff;}</style></defs><title>BIGGERSTARS</title><g id="Layer_2" data-name="Layer 2"><g id="Background"><g id="BIGGERSTARS"><polygon class="cls-1" points="124.38 0 121.49 21.57 124.18 41.01 128.25 21.57 124.38 0"/><polygon class="cls-1" points="141.63 20.89 126.17 16.85 108.79 20.89 126.17 26.28 141.63 20.89"/><polygon class="cls-2" points="1616.53 2434.35 1631.99 2437.25 1645.93 2434.55 1631.99 2430.49 1616.53 2434.35"/><polygon class="cls-2" points="1631.5 2417.11 1628.61 2432.56 1631.5 2449.95 1635.37 2432.56 1631.5 2417.11"/><polygon class="cls-2" points="86.53 1825.35 101.99 1828.25 115.93 1825.56 101.99 1821.49 86.53 1825.35"/><polygon class="cls-2" points="101.5 1808.11 98.61 1823.56 101.5 1840.95 105.37 1823.56 101.5 1808.11"/><polygon class="cls-3" points="711.07 3758.89 726.53 3761.79 740.47 3759.1 726.53 3755.03 711.07 3758.89"/><polygon class="cls-3" points="726.04 3741.65 723.15 3757.1 726.04 3774.49 729.91 3757.1 726.04 3741.65"/><polygon class="cls-2" points="272.07 3468.89 287.53 3471.79 301.46 3469.1 287.53 3465.03 272.07 3468.89"/><polygon class="cls-2" points="287.04 3451.65 284.15 3467.1 287.04 3484.49 290.91 3467.1 287.04 3451.65"/><polygon class="cls-2" points="128.07 3361.89 143.53 3364.79 157.47 3362.1 143.53 3358.03 128.07 3361.89"/><polygon class="cls-2" points="143.04 3344.65 140.15 3360.1 143.04 3377.49 146.91 3360.1 143.04 3344.65"/><polygon class="cls-2" points="1488.05 3380.48 1503.51 3383.38 1517.45 3380.68 1503.51 3376.62 1488.05 3380.48"/><polygon class="cls-2" points="1503.03 3363.24 1500.13 3378.69 1503.03 3396.08 1506.89 3378.69 1503.03 3363.24"/><polygon class="cls-1" points="512.84 1311.35 509.95 1326.81 512.64 1340.74 516.71 1326.81 512.84 1311.35"/><polygon class="cls-1" points="530.09 1326.32 514.63 1323.42 497.25 1326.32 514.63 1330.19 530.09 1326.32"/><polygon class="cls-2" points="883.07 1642.89 898.53 1645.79 912.47 1643.1 898.53 1639.03 883.07 1642.89"/><polygon class="cls-2" points="898.04 1625.65 895.15 1641.1 898.04 1658.49 901.91 1641.1 898.04 1625.65"/><polygon class="cls-2" points="1161.08 1841.35 1176.53 1844.25 1190.47 1841.56 1176.53 1837.49 1161.08 1841.35"/><polygon class="cls-2" points="1176.05 1824.11 1173.15 1839.56 1176.05 1856.95 1179.91 1839.56 1176.05 1824.11"/><polygon class="cls-2" points="406.53 2425.35 421.99 2428.25 435.93 2425.55 421.99 2421.49 406.53 2425.35"/><polygon class="cls-2" points="421.5 2408.11 418.61 2423.56 421.5 2440.95 425.37 2423.56 421.5 2408.11"/><circle class="cls-1" cx="898.11" cy="1239.19" r="7.81"/><polygon class="cls-3" points="338.08 852.35 353.53 855.25 367.47 852.55 353.53 848.49 338.08 852.35"/><polygon class="cls-3" points="353.05 835.11 350.15 850.56 353.05 867.95 356.91 850.56 353.05 835.11"/><circle class="cls-1" cx="829.11" cy="638.19" r="7.81"/><circle class="cls-3" cx="590.76" cy="282.44" r="7.81"/><circle class="cls-3" cx="1294.31" cy="1684.93" r="7.81"/><circle class="cls-2" cx="1156.92" cy="3066.86" r="7.81"/><circle class="cls-1" cx="7.81" cy="1520.27" r="7.81"/><circle class="cls-2" cx="585.81" cy="2902.27" r="7.81"/></g></g></g></svg>