<svg xmlns="http://www.w3.org/2000/svg" xmlns:xlink="http://www.w3.org/1999/xlink" viewBox="0 0 214.98 215"><defs><style>.cls-1{isolation:isolate;}.cls-2{fill:#1595e5;}.cls-3{fill:#feffff;}.cls-4,.cls-6{opacity:0.42;}.cls-4,.cls-6,.cls-7{mix-blend-mode:hard-light;}.cls-4{fill:url(#radial-gradient);}.cls-5{fill:#009245;}.cls-6{fill:url(#radial-gradient-13);}.cls-7{opacity:0.7;fill:url(#radial-gradient-30);}</style><radialGradient id="radial-gradient" cx="107.47" cy="107.25" r="107.47" gradientTransform="translate(0 -2.01) scale(1 1.01)" gradientUnits="userSpaceOnUse"><stop offset="0" stop-color="#38d0ff" stop-opacity="0"/><stop offset="0.79" stop-color="#0c3886" stop-opacity="0.78"/><stop offset="1" stop-color="#000d64"/></radialGradient><radialGradient id="radial-gradient-13" cx="107.47" cy="107.23" r="107.49" xlink:href="#radial-gradient"/><radialGradient id="radial-gradient-30" cx="29.37" cy="53.74" r="160.17" gradientTransform="translate(0.28 -1.07) scale(1.02)" gradientUnits="userSpaceOnUse"><stop offset="0" stop-color="#fff" stop-opacity="0.6"/><stop offset="0.52" stop-color="#8b7da2" stop-opacity="0.8"/><stop offset="1" stop-color="#1c0049"/></radialGradient></defs><title>earth</title><g class="cls-1"><g id="Layer_2" data-name="Layer 2"><g id="Earth"><path class="cls-2" d="M107.47,215A107.49,107.49,0,0,0,138,210.58c-1,.28-2,.54-3,.79A106.6,106.6,0,0,1,107.47,215Z"/><path class="cls-2" d="M107.14,215h0Z"/><path class="cls-3" d="M107.14,215c-1.6,0-3.18,0-4.75-.12C103.86,215,105.45,215,107.14,215Z"/><path class="cls-3" d="M102.33,214.87h.06c1.57.08,3.15.12,4.75.12h0C105.53,215,103.92,215,102.33,214.87Z"/><path class="cls-2" d="M163,15.48q3.58,2.25,7.5,5C168,18.7,165.53,17,163,15.48Z"/><path class="cls-4" d="M163,15.48q3.58,2.25,7.5,5C168,18.7,165.53,17,163,15.48Z"/><path class="cls-2" d="M157.66,152.81a5.49,5.49,0,0,1,0,3.11c-3.72,14.32-3.8,15.81-6.09,18.66-3.11,3.87-7.86,7.21-9.14,6.22-.15-.11-.67-.61,0-3.11,1.7-6.38,6.24-7.49,9.14-12.44s2.22-10.14,2.24-13.14l-6.41,9.61a3.42,3.42,0,0,1-.42.52l-4.65,4.64a3.46,3.46,0,0,0-1,2.42v4a3.42,3.42,0,0,1-3.42,3.42h-2a3.42,3.42,0,0,0-3.42,3.42v9.4c4.16,1.09,8.44,2.22,13.08.59,10.38-3.63,18-19.46,15.23-31.1a23.56,23.56,0,0,0-5.16-9.68l-.32.47A5.32,5.32,0,0,1,157.66,152.81Z"/><path class="cls-4" d="M157.66,152.81a5.49,5.49,0,0,1,0,3.11c-3.72,14.32-3.8,15.81-6.09,18.66-3.11,3.87-7.86,7.21-9.14,6.22-.15-.11-.67-.61,0-3.11,1.7-6.38,6.24-7.49,9.14-12.44s2.22-10.14,2.24-13.14l-6.41,9.61a3.42,3.42,0,0,1-.42.52l-4.65,4.64a3.46,3.46,0,0,0-1,2.42v4a3.42,3.42,0,0,1-3.42,3.42h-2a3.42,3.42,0,0,0-3.42,3.42v9.4c4.16,1.09,8.44,2.22,13.08.59,10.38-3.63,18-19.46,15.23-31.1a23.56,23.56,0,0,0-5.16-9.68l-.32.47A5.32,5.32,0,0,1,157.66,152.81Z"/><path class="cls-2" d="M48,87.49c1.72,2.81,7.2.36,9.13,3.11s-1.88,7.48,0,9.33c1.26,1.23,3.2-.66,6.1,0,5.31,1.21,5.76,9.17,9.14,9.33,3.11.15,3.47-6.56,9.14-9.33a6.41,6.41,0,0,1,3.89-.68v-.61a3.43,3.43,0,0,0-1-2.42l-6.83-6.83a3.41,3.41,0,0,0-2.41-1H72.78a3.41,3.41,0,0,1-3.06-1.89l-1-2.11A3.43,3.43,0,0,0,65.6,82.5H61.83v3H54.42a3.43,3.43,0,0,1-2.42-1l-2-1.94v3H47.71A2.66,2.66,0,0,0,48,87.49Z"/><path class="cls-4" d="M48,87.49c1.72,2.81,7.2.36,9.13,3.11s-1.88,7.48,0,9.33c1.26,1.23,3.2-.66,6.1,0,5.31,1.21,5.76,9.17,9.14,9.33,3.11.15,3.47-6.56,9.14-9.33a6.41,6.41,0,0,1,3.89-.68v-.61a3.43,3.43,0,0,0-1-2.42l-6.83-6.83a3.41,3.41,0,0,0-2.41-1H72.78a3.41,3.41,0,0,1-3.06-1.89l-1-2.11A3.43,3.43,0,0,0,65.6,82.5H61.83v3H54.42a3.43,3.43,0,0,1-2.42-1l-2-1.94v3H47.71A2.66,2.66,0,0,0,48,87.49Z"/><path class="cls-2" d="M109.56.09l3.74.13C112.06.15,110.81.11,109.56.09Z"/><path class="cls-4" d="M109.56.09l3.74.13C112.06.15,110.81.11,109.56.09Z"/><path class="cls-2" d="M102.33,214.87c-6.89-.38-11.32-1.6-11.59-3-.22-1.11,2.18-2.64,3.05-3.11,3.67-2,6.55,0,12.18,0,4.32,0,7.36-1.21,12.19-3.12,4.63-1.82,7.67-3.08,9.14-6.22a10.35,10.35,0,0,0,.75-2.3,3.42,3.42,0,0,1-4.39-3.28V192a2.94,2.94,0,0,0-2.45,1.2c-.81,1.76,3.71,4.22,3,6.22-.9,2.69-10.73,3.3-12.18,0-1.07-2.42,2.36-7,6.09-9.33a12.11,12.11,0,0,1,5.5-1.87V156.11c0-2.37-5.71-16.17-8-21.48a3.39,3.39,0,0,0-3.15-2.08h-3.14a3.42,3.42,0,0,1-3.42-3.42,3.42,3.42,0,0,0-2.34-3.24l-3.34-1.12c-11.81,5.08-28.25,4.1-37.1-3.07-9.73-7.87-5.56-19.38-18.28-28-4.09-2.77-9.8-5.15-12.19-3.11-1.73,1.49-.73,4.48-3,6.22a5.29,5.29,0,0,1-6.1,0c-2.57-2-2-6.9,0-9.33,1.57-1.88,3-1.08,6.1-3.11s3.3-4,5-5.47l-2.3-2.3V73.67S15,64.29,12.46,60.57A3.18,3.18,0,0,1,12,58.09,107,107,0,0,0,0,107C.31,164.94,45.55,212.17,102.33,214.87ZM54.08,152.81c3.48-2.12,9.43-3.06,12.18,0,2.14,2.36,2.49,7.26,0,9.33-2,1.63-5.49,1.31-6.09,0-.79-1.74,3.83-4.66,3-6.22-.56-1.13-3.7-1.09-6.1,0-6,2.71-8.83,12.61-6.09,15.55,1.49,1.6,5,1.49,6.09,0,1.3-1.71-1.18-4.32,0-6.22,1.36-2.17,7-2.55,9.14,0,3.28,3.84-3.29,12.05,0,15.55,2.4,2.55,7.89.37,9.14,3.11.54,1.17-.4,1.7,0,3.11,1,3.45,7.26,2.56,9.14,6.22,1.33,2.59-1.06,4.43,0,6.22,3,5,24.32-5.15,27.42,0a3.49,3.49,0,0,1,0,3.11c-2.55,5.54-20,3-30.46,0C68.9,199,53.05,194.57,48,180.8,44.36,170.94,46.64,157.33,54.08,152.81Z"/><path class="cls-4" d="M102.33,214.87c-6.89-.38-11.32-1.6-11.59-3-.22-1.11,2.18-2.64,3.05-3.11,3.67-2,6.55,0,12.18,0,4.32,0,7.36-1.21,12.19-3.12,4.63-1.82,7.67-3.08,9.14-6.22a10.35,10.35,0,0,0,.75-2.3,3.42,3.42,0,0,1-4.39-3.28V192a2.94,2.94,0,0,0-2.45,1.2c-.81,1.76,3.71,4.22,3,6.22-.9,2.69-10.73,3.3-12.18,0-1.07-2.42,2.36-7,6.09-9.33a12.11,12.11,0,0,1,5.5-1.87V156.11c0-2.37-5.71-16.17-8-21.48a3.39,3.39,0,0,0-3.15-2.08h-3.14a3.42,3.42,0,0,1-3.42-3.42,3.42,3.42,0,0,0-2.34-3.24l-3.34-1.12c-11.81,5.08-28.25,4.1-37.1-3.07-9.73-7.87-5.56-19.38-18.28-28-4.09-2.77-9.8-5.15-12.19-3.11-1.73,1.49-.73,4.48-3,6.22a5.29,5.29,0,0,1-6.1,0c-2.57-2-2-6.9,0-9.33,1.57-1.88,3-1.08,6.1-3.11s3.3-4,5-5.47l-2.3-2.3V73.67S15,64.29,12.46,60.57A3.18,3.18,0,0,1,12,58.09,107,107,0,0,0,0,107C.31,164.94,45.55,212.17,102.33,214.87ZM54.08,152.81c3.48-2.12,9.43-3.06,12.18,0,2.14,2.36,2.49,7.26,0,9.33-2,1.63-5.49,1.31-6.09,0-.79-1.74,3.83-4.66,3-6.22-.56-1.13-3.7-1.09-6.1,0-6,2.71-8.83,12.61-6.09,15.55,1.49,1.6,5,1.49,6.09,0,1.3-1.71-1.18-4.32,0-6.22,1.36-2.17,7-2.55,9.14,0,3.28,3.84-3.29,12.05,0,15.55,2.4,2.55,7.89.37,9.14,3.11.54,1.17-.4,1.7,0,3.11,1,3.45,7.26,2.56,9.14,6.22,1.33,2.59-1.06,4.43,0,6.22,3,5,24.32-5.15,27.42,0a3.49,3.49,0,0,1,0,3.11c-2.55,5.54-20,3-30.46,0C68.9,199,53.05,194.57,48,180.8,44.36,170.94,46.64,157.33,54.08,152.81Z"/><path class="cls-2" d="M209.76,84.21c-4.81,5.53-15.23,1.17-15.23,0,0-.81,5-.4,6.09-3.11.78-2-.82-5.12-3.05-6.22-.88-.44-1.57-.42-6.09,0-4.84.44-5.67.57-6.09,0-.92-1.24.46-5.23,3-6.22,3.17-1.21,5.8,3,12.19,3.11.41,0,1.63,0,3,0,3,0,4.34-.19,5.1-.2a107.71,107.71,0,0,0-30.72-45.08,5.86,5.86,0,0,1,1.55,3c.35,3.17-4.67,2.42-6.7,1.67-1.55-.58-.69-3.41-3.05-6.22-1.38-1.65-3.81-3.23-6.09-3.11-4.08.21-4.78,5.69-9.14,9.33-8.17,6.79-24.78,3.47-27.42-3.11-1.33-3.31,1.68-5.38,0-9.33-1.88-4.41-7.66-6.67-12.19-6.23-2.45.24-6,1.41-6.09,3.11-.1,1.22,1.51,2.6,3,3.12,2.8.94,5-1.09,6.1,0a2.79,2.79,0,0,1,0,3.11c-1.53,2.29-6.43.56-12.19,0a52.66,52.66,0,0,0-17.54,1.85v2.39a3.42,3.42,0,0,1-3.42,3.42h-2a3.43,3.43,0,0,0-3.42,3.43v1.68a3.35,3.35,0,0,1-.33,1.46C78,38.62,74,47.6,76.55,50.11c3,3-2.94,8.84-2.94,8.84s-3,5.89-3,2.94a7.71,7.71,0,0,0-1.47-4A13.14,13.14,0,0,0,67.72,56c-6-8-12,3-15.23,10.9a3.43,3.43,0,0,0,4.26,4.54l.79-.27a3.45,3.45,0,0,0,2-1.71l1.36-2.73A3.43,3.43,0,0,1,64,64.84h.35a3.42,3.42,0,0,1,3.42,3.42v4.57a3.42,3.42,0,0,0,3.76,3.41L97,73.69c.05,0,1.76-1.7,3.67-3.61a8.55,8.55,0,0,1,11.23-.71l5.58,4.3a4.3,4.3,0,0,1,.61,0l29.27,5.33a3.41,3.41,0,0,1,2.81,3.36v6c0,1.92,11.32,2.59,19.16,2.82.18-.2.36-.39.53-.61,4.59-6,1.66-13.59,6.09-15.55.9-.4,2.4-.7,3.05,0,1.55,1.64-4.2,6.23-6.09,15.55-.05.23-.09.46-.13.69l1.27,0a3.4,3.4,0,0,1,3.26,2.59l1.83,7.33a3.4,3.4,0,0,1-.9,3.25l-9.6,9.6a3.44,3.44,0,0,0-1,1.94l-.73,5a32.09,32.09,0,0,1,12.15,6.85c5.79,5.13,11.93,14.52,9.14,18.67-2.24,3.32-10.16,3.15-12.19,0-1.82-2.83,1.94-6.76,0-9.34-1.64-2.17-6.44-2.15-9.14,0-4,3.23-3.59,11.46,0,15.56,4.87,5.55,15.33,3.35,21.33,0,3-1.68,3.8-3.05,12.19-12.44,7.64-8.57,11.48-12.85,12.18-12.45a.54.54,0,0,1,.18.21A110.21,110.21,0,0,0,214.93,107a108,108,0,0,0-3.36-26.23A8.86,8.86,0,0,1,209.76,84.21Z"/><path class="cls-4" d="M209.76,84.21c-4.81,5.53-15.23,1.17-15.23,0,0-.81,5-.4,6.09-3.11.78-2-.82-5.12-3.05-6.22-.88-.44-1.57-.42-6.09,0-4.84.44-5.67.57-6.09,0-.92-1.24.46-5.23,3-6.22,3.17-1.21,5.8,3,12.19,3.11.41,0,1.63,0,3,0,3,0,4.34-.19,5.1-.2a107.71,107.71,0,0,0-30.72-45.08,5.86,5.86,0,0,1,1.55,3c.35,3.17-4.67,2.42-6.7,1.67-1.55-.58-.69-3.41-3.05-6.22-1.38-1.65-3.81-3.23-6.09-3.11-4.08.21-4.78,5.69-9.14,9.33-8.17,6.79-24.78,3.47-27.42-3.11-1.33-3.31,1.68-5.38,0-9.33-1.88-4.41-7.66-6.67-12.19-6.23-2.45.24-6,1.41-6.09,3.11-.1,1.22,1.51,2.6,3,3.12,2.8.94,5-1.09,6.1,0a2.79,2.79,0,0,1,0,3.11c-1.53,2.29-6.43.56-12.19,0a52.66,52.66,0,0,0-17.54,1.85v2.39a3.42,3.42,0,0,1-3.42,3.42h-2a3.43,3.43,0,0,0-3.42,3.43v1.68a3.35,3.35,0,0,1-.33,1.46C78,38.62,74,47.6,76.55,50.11c3,3-2.94,8.84-2.94,8.84s-3,5.89-3,2.94a7.71,7.71,0,0,0-1.47-4A13.14,13.14,0,0,0,67.72,56c-6-8-12,3-15.23,10.9a3.43,3.43,0,0,0,4.26,4.54l.79-.27a3.45,3.45,0,0,0,2-1.71l1.36-2.73A3.43,3.43,0,0,1,64,64.84h.35a3.42,3.42,0,0,1,3.42,3.42v4.57a3.42,3.42,0,0,0,3.76,3.41L97,73.69c.05,0,1.76-1.7,3.67-3.61a8.55,8.55,0,0,1,11.23-.71l5.58,4.3a4.3,4.3,0,0,1,.61,0l29.27,5.33a3.41,3.41,0,0,1,2.81,3.36v6c0,1.92,11.32,2.59,19.16,2.82.18-.2.36-.39.53-.61,4.59-6,1.66-13.59,6.09-15.55.9-.4,2.4-.7,3.05,0,1.55,1.64-4.2,6.23-6.09,15.55-.05.23-.09.46-.13.69l1.27,0a3.4,3.4,0,0,1,3.26,2.59l1.83,7.33a3.4,3.4,0,0,1-.9,3.25l-9.6,9.6a3.44,3.44,0,0,0-1,1.94l-.73,5a32.09,32.09,0,0,1,12.15,6.85c5.79,5.13,11.93,14.52,9.14,18.67-2.24,3.32-10.16,3.15-12.19,0-1.82-2.83,1.94-6.76,0-9.34-1.64-2.17-6.44-2.15-9.14,0-4,3.23-3.59,11.46,0,15.56,4.87,5.55,15.33,3.35,21.33,0,3-1.68,3.8-3.05,12.19-12.44,7.64-8.57,11.48-12.85,12.18-12.45a.54.54,0,0,1,.18.21A110.21,110.21,0,0,0,214.93,107a108,108,0,0,0-3.36-26.23A8.86,8.86,0,0,1,209.76,84.21Z"/><path class="cls-2" d="M107.14,215h.33a106.6,106.6,0,0,0,27.61-3.63A116.54,116.54,0,0,1,107.14,215Z"/><path class="cls-4" d="M107.14,215h.33a106.6,106.6,0,0,0,27.61-3.63A116.54,116.54,0,0,1,107.14,215Z"/><path class="cls-2" d="M206.15,149.45a129.25,129.25,0,0,1-8.78,15.8,119.5,119.5,0,0,1-16.63,20.58"/><path class="cls-4" d="M206.15,149.45a129.25,129.25,0,0,1-8.78,15.8,119.5,119.5,0,0,1-16.63,20.58"/><path class="cls-5" d="M132.5,189.54v-9.4a3.42,3.42,0,0,1,3.42-3.42h2a3.42,3.42,0,0,0,3.42-3.42v-4a3.46,3.46,0,0,1,1-2.42l4.65-4.64a3.42,3.42,0,0,0,.42-.52l6.41-9.61c0-1.38.14-2.27.81-2.41a1.16,1.16,0,0,1,.71.12l.32-.47c-6.87-8.14-17.37-12.62-16.17-15.21,1.31-2.79,13.55,2.58,18.28-3.11,2.74-3.28.39-7.16,3.05-9.33,1.45-1.18,3.66-1.25,6.13-.63l.73-5a3.44,3.44,0,0,1,1-1.94l9.6-9.6a3.4,3.4,0,0,0,.9-3.25L177.3,93.9A3.4,3.4,0,0,0,174,91.31l-1.27,0c-.53,2.87-.75,5.63-2.92,8.64a17,17,0,0,1-3,3.11c-5.24,4.7-5.3,9.53-9.14,15.55a32.61,32.61,0,0,1-9.14,9.33c-2.19-6.47-1.34-10.19,0-12.44,2.58-4.31,7.76-4.5,9.14-9.33.82-2.86-.77-3.56,0-6.22,1.46-5,7.44-4,11.66-8.72-7.84-.23-19.16-.9-19.16-2.82v-6a3.41,3.41,0,0,0-2.81-3.36l-29.27-5.33a4.3,4.3,0,0,0-.61,0l-5.58-4.3a8.55,8.55,0,0,0-11.23.71C98.75,72,97,73.68,97,73.69L71.48,76.24a3.42,3.42,0,0,1-3.76-3.41V68.26a3.42,3.42,0,0,0-3.42-3.42H64a3.43,3.43,0,0,0-3.07,1.89l-1.36,2.73a3.45,3.45,0,0,1-2,1.71l-.79.27a3.43,3.43,0,0,1-4.26-4.54C55.73,59,61.72,48,67.72,56a13.14,13.14,0,0,1,1.47,1.84,7.71,7.71,0,0,1,1.47,4c0,3,3-2.94,3-2.94s5.89-5.89,2.94-8.84C74,47.6,78,38.62,79.17,36.07a3.35,3.35,0,0,0,.33-1.46V32.93a3.43,3.43,0,0,1,3.42-3.43h2a3.42,3.42,0,0,0,3.42-3.42V23.69c-1.25.35-2.52.77-3.79,1.26-7.64,2.95-9.05,6.21-15.23,6.22-5,0-9.24-2.17-9.14-3.11s4.66-.39,6.09-3.11c.54-1,.67-2.56,0-3.11-1.44-1.21-7.36,1.6-9.14,6.22-1.66,4.33.84,9,0,9.33-1,.41-4-6.73-6.09-6.22-1.39.34-.57,3.72-3,6.22s-5.25,1.26-6.1,3.11c-1,2.28,3.09,4.41,3,9.33,0,2.23-.89,5.19-3,6.22-.85.4-2.34.72-3,0-1.11-1.13,1-3.45,0-6.22a5.64,5.64,0,0,0-3.05-3.11c-2.7-1.09-4.8,1-6.09,0-1.62-1.24-.13-5.85,0-6.22C35.36,23.1,72.36,9.39,72.36,9.39,82.43,4.78,89,1.66,97.68.51A107.49,107.49,0,0,0,12,58.09a3.18,3.18,0,0,0,.43,2.48c2.51,3.72,19.93,13.1,19.93,13.1v2.94l2.3,2.3a5.11,5.11,0,0,1,1.11-.75C40,76,46.55,77.84,48,81.27c.66,1.58,0,2.91-.28,4.18h2.34v-3l2,1.94a3.43,3.43,0,0,0,2.42,1h7.41v-3H65.6a3.43,3.43,0,0,1,3.07,1.89l1,2.11a3.41,3.41,0,0,0,3.06,1.89h2.36a3.41,3.41,0,0,1,2.41,1l6.83,6.83a3.43,3.43,0,0,1,1,2.42v.61a36.72,36.72,0,0,0,8.29.68C104,99.42,110.05,94.4,112,96.82a2.71,2.71,0,0,1,0,3.11c-1.53,1.83-6.09-2.1-9.14,0s-4.62,7.06-3,9.33c2.6,3.75,11.17-2.74,24.37,0,3.6.75,11.88,2.47,15.23,9.33.22.44,3.19,6.77,0,12.44-2.28,4.07-6.34,5.35-9.14,6.22s-8.17,1.88-9.14,0c-.33-.63-.15-1.59,3.05-6.22,4.73-6.84,6.27-7.55,6.09-9.33-.34-3.39-6.54-6.51-12.18-6.22s-8.93,3.88-12.19,6.22a28.33,28.33,0,0,1-5.55,3.07l3.34,1.12a3.42,3.42,0,0,1,2.34,3.24,3.42,3.42,0,0,0,3.42,3.42h3.14a3.39,3.39,0,0,1,3.15,2.08c2.24,5.31,8,19.11,8,21.48v32.15C126.61,188,129.53,188.76,132.5,189.54Z"/><path class="cls-4" d="M132.5,189.54v-9.4a3.42,3.42,0,0,1,3.42-3.42h2a3.42,3.42,0,0,0,3.42-3.42v-4a3.46,3.46,0,0,1,1-2.42l4.65-4.64a3.42,3.42,0,0,0,.42-.52l6.41-9.61c0-1.38.14-2.27.81-2.41a1.16,1.16,0,0,1,.71.12l.32-.47c-6.87-8.14-17.37-12.62-16.17-15.21,1.31-2.79,13.55,2.58,18.28-3.11,2.74-3.28.39-7.16,3.05-9.33,1.45-1.18,3.66-1.25,6.13-.63l.73-5a3.44,3.44,0,0,1,1-1.94l9.6-9.6a3.4,3.4,0,0,0,.9-3.25L177.3,93.9A3.4,3.4,0,0,0,174,91.31l-1.27,0c-.53,2.87-.75,5.63-2.92,8.64a17,17,0,0,1-3,3.11c-5.24,4.7-5.3,9.53-9.14,15.55a32.61,32.61,0,0,1-9.14,9.33c-2.19-6.47-1.34-10.19,0-12.44,2.58-4.31,7.76-4.5,9.14-9.33.82-2.86-.77-3.56,0-6.22,1.46-5,7.44-4,11.66-8.72-7.84-.23-19.16-.9-19.16-2.82v-6a3.41,3.41,0,0,0-2.81-3.36l-29.27-5.33a4.3,4.3,0,0,0-.61,0l-5.58-4.3a8.55,8.55,0,0,0-11.23.71C98.75,72,97,73.68,97,73.69L71.48,76.24a3.42,3.42,0,0,1-3.76-3.41V68.26a3.42,3.42,0,0,0-3.42-3.42H64a3.43,3.43,0,0,0-3.07,1.89l-1.36,2.73a3.45,3.45,0,0,1-2,1.71l-.79.27a3.43,3.43,0,0,1-4.26-4.54C55.73,59,61.72,48,67.72,56a13.14,13.14,0,0,1,1.47,1.84,7.71,7.71,0,0,1,1.47,4c0,3,3-2.94,3-2.94s5.89-5.89,2.94-8.84C74,47.6,78,38.62,79.17,36.07a3.35,3.35,0,0,0,.33-1.46V32.93a3.43,3.43,0,0,1,3.42-3.43h2a3.42,3.42,0,0,0,3.42-3.42V23.69c-1.25.35-2.52.77-3.79,1.26-7.64,2.95-9.05,6.21-15.23,6.22-5,0-9.24-2.17-9.14-3.11s4.66-.39,6.09-3.11c.54-1,.67-2.56,0-3.11-1.44-1.21-7.36,1.6-9.14,6.22-1.66,4.33.84,9,0,9.33-1,.41-4-6.73-6.09-6.22-1.39.34-.57,3.72-3,6.22s-5.25,1.26-6.1,3.11c-1,2.28,3.09,4.41,3,9.33,0,2.23-.89,5.19-3,6.22-.85.4-2.34.72-3,0-1.11-1.13,1-3.45,0-6.22a5.64,5.64,0,0,0-3.05-3.11c-2.7-1.09-4.8,1-6.09,0-1.62-1.24-.13-5.85,0-6.22C35.36,23.1,72.36,9.39,72.36,9.39,82.43,4.78,89,1.66,97.68.51A107.49,107.49,0,0,0,12,58.09a3.18,3.18,0,0,0,.43,2.48c2.51,3.72,19.93,13.1,19.93,13.1v2.94l2.3,2.3a5.11,5.11,0,0,1,1.11-.75C40,76,46.55,77.84,48,81.27c.66,1.58,0,2.91-.28,4.18h2.34v-3l2,1.94a3.43,3.43,0,0,0,2.42,1h7.41v-3H65.6a3.43,3.43,0,0,1,3.07,1.89l1,2.11a3.41,3.41,0,0,0,3.06,1.89h2.36a3.41,3.41,0,0,1,2.41,1l6.83,6.83a3.43,3.43,0,0,1,1,2.42v.61a36.72,36.72,0,0,0,8.29.68C104,99.42,110.05,94.4,112,96.82a2.71,2.71,0,0,1,0,3.11c-1.53,1.83-6.09-2.1-9.14,0s-4.62,7.06-3,9.33c2.6,3.75,11.17-2.74,24.37,0,3.6.75,11.88,2.47,15.23,9.33.22.44,3.19,6.77,0,12.44-2.28,4.07-6.34,5.35-9.14,6.22s-8.17,1.88-9.14,0c-.33-.63-.15-1.59,3.05-6.22,4.73-6.84,6.27-7.55,6.09-9.33-.34-3.39-6.54-6.51-12.18-6.22s-8.93,3.88-12.19,6.22a28.33,28.33,0,0,1-5.55,3.07l3.34,1.12a3.42,3.42,0,0,1,2.34,3.24,3.42,3.42,0,0,0,3.42,3.42h3.14a3.39,3.39,0,0,1,3.15,2.08c2.24,5.31,8,19.11,8,21.48v32.15C126.61,188,129.53,188.76,132.5,189.54Z"/><path class="cls-5" d="M127.3,193.24a4.54,4.54,0,0,0-3.64-1.2v1.84a3.42,3.42,0,0,0,4.39,3.28A4.37,4.37,0,0,0,127.3,193.24Z"/><path class="cls-4" d="M127.3,193.24a4.54,4.54,0,0,0-3.64-1.2v1.84a3.42,3.42,0,0,0,4.39,3.28A4.37,4.37,0,0,0,127.3,193.24Z"/><path class="cls-3" d="M212.6,127.92c-.7-.4-4.54,3.88-12.18,12.45-8.39,9.39-9.19,10.76-12.19,12.44-6,3.35-16.46,5.55-21.33,0-3.59-4.1-4-12.33,0-15.56,2.7-2.15,7.5-2.17,9.14,0,1.94,2.58-1.82,6.51,0,9.34,2,3.15,10,3.32,12.19,0,2.79-4.15-3.35-13.54-9.14-18.67a32.09,32.09,0,0,0-12.15-6.85L165,134.73a3.33,3.33,0,0,1-.54,1.42l-8.8,13.2a23.56,23.56,0,0,1,5.16,9.68c2.79,11.64-4.85,27.47-15.23,31.1-4.64,1.63-8.92.5-13.08-.59v3A3.42,3.42,0,0,1,131,195.4l-2,1.33a3.25,3.25,0,0,1-.93.43,10.35,10.35,0,0,1-.75,2.3c-1.47,3.14-4.51,4.4-9.14,6.22-4.83,1.91-7.87,3.11-12.19,3.12-5.63,0-8.51-2-12.18,0-.87.47-3.27,2-3.05,3.11.27,1.36,4.7,2.58,11.59,3,1.59.08,3.2.12,4.81.12a116.54,116.54,0,0,0,27.94-3.62,106.91,106.91,0,0,0,45.66-25.54,119.5,119.5,0,0,0,16.63-20.58,129.25,129.25,0,0,0,8.78-15.8,108.64,108.64,0,0,0,6.63-21.32A.54.54,0,0,0,212.6,127.92Z"/><path class="cls-4" d="M212.6,127.92c-.7-.4-4.54,3.88-12.18,12.45-8.39,9.39-9.19,10.76-12.19,12.44-6,3.35-16.46,5.55-21.33,0-3.59-4.1-4-12.33,0-15.56,2.7-2.15,7.5-2.17,9.14,0,1.94,2.58-1.82,6.51,0,9.34,2,3.15,10,3.32,12.19,0,2.79-4.15-3.35-13.54-9.14-18.67a32.09,32.09,0,0,0-12.15-6.85L165,134.73a3.33,3.33,0,0,1-.54,1.42l-8.8,13.2a23.56,23.56,0,0,1,5.16,9.68c2.79,11.64-4.85,27.47-15.23,31.1-4.64,1.63-8.92.5-13.08-.59v3A3.42,3.42,0,0,1,131,195.4l-2,1.33a3.25,3.25,0,0,1-.93.43,10.35,10.35,0,0,1-.75,2.3c-1.47,3.14-4.51,4.4-9.14,6.22-4.83,1.91-7.87,3.11-12.19,3.12-5.63,0-8.51-2-12.18,0-.87.47-3.27,2-3.05,3.11.27,1.36,4.7,2.58,11.59,3,1.59.08,3.2.12,4.81.12a116.54,116.54,0,0,0,27.94-3.62,106.91,106.91,0,0,0,45.66-25.54,119.5,119.5,0,0,0,16.63-20.58,129.25,129.25,0,0,0,8.78-15.8,108.64,108.64,0,0,0,6.63-21.32A.54.54,0,0,0,212.6,127.92Z"/><path class="cls-3" d="M118.16,190.13c-3.73,2.35-7.16,6.91-6.09,9.33,1.45,3.3,11.28,2.69,12.18,0,.67-2-3.85-4.46-3-6.22a2.94,2.94,0,0,1,2.45-1.2v-3.78A12.11,12.11,0,0,0,118.16,190.13Z"/><path class="cls-4" d="M118.16,190.13c-3.73,2.35-7.16,6.91-6.09,9.33,1.45,3.3,11.28,2.69,12.18,0,.67-2-3.85-4.46-3-6.22a2.94,2.94,0,0,1,2.45-1.2v-3.78A12.11,12.11,0,0,0,118.16,190.13Z"/><path class="cls-3" d="M160.81,121.7c-2.66,2.17-.31,6-3.05,9.33-4.73,5.69-17,.32-18.28,3.11-1.2,2.59,9.3,7.07,16.17,15.21l8.8-13.2a3.33,3.33,0,0,0,.54-1.42l1.95-13.66C164.47,120.45,162.26,120.52,160.81,121.7Z"/><path class="cls-6" d="M160.81,121.7c-2.66,2.17-.31,6-3.05,9.33-4.73,5.69-17,.32-18.28,3.11-1.2,2.59,9.3,7.07,16.17,15.21l8.8-13.2a3.33,3.33,0,0,0,.54-1.42l1.95-13.66C164.47,120.45,162.26,120.52,160.81,121.7Z"/><path class="cls-3" d="M131,195.4a3.42,3.42,0,0,0,1.53-2.85v-3c-3-.78-5.89-1.54-8.84-1.28V192a4.54,4.54,0,0,1,3.64,1.2,4.37,4.37,0,0,1,.75,3.92,3.25,3.25,0,0,0,.93-.43Z"/><path class="cls-4" d="M131,195.4a3.42,3.42,0,0,0,1.53-2.85v-3c-3-.78-5.89-1.54-8.84-1.28V192a4.54,4.54,0,0,1,3.64,1.2,4.37,4.37,0,0,1,.75,3.92,3.25,3.25,0,0,0,.93-.43Z"/><path class="cls-3" d="M97.16,121.26v-.75a3.41,3.41,0,0,0-2.59-3.32L88,115.54a3.41,3.41,0,0,1-2.59-3.32v-13a6.41,6.41,0,0,0-3.89.68c-5.67,2.77-6,9.48-9.14,9.33-3.38-.16-3.83-8.12-9.14-9.33-2.9-.66-4.84,1.23-6.1,0-1.88-1.85,1.94-6.59,0-9.33s-7.41-.3-9.13-3.11a2.66,2.66,0,0,1-.28-2H42.64a3.43,3.43,0,0,1-2.42-1L38.28,82.5l-3.59-3.59c-1.68,1.45-1.77,3.36-5,5.47s-4.53,1.23-6.1,3.11c-2,2.43-2.57,7.3,0,9.33a5.29,5.29,0,0,0,6.1,0c2.31-1.74,1.31-4.73,3-6.22,2.39-2,8.1.34,12.19,3.11,12.72,8.61,8.55,20.12,18.28,28,8.85,7.17,25.29,8.15,37.1,3.07l-.82-.27A3.42,3.42,0,0,1,97.16,121.26Z"/><path class="cls-4" d="M97.16,121.26v-.75a3.41,3.41,0,0,0-2.59-3.32L88,115.54a3.41,3.41,0,0,1-2.59-3.32v-13a6.41,6.41,0,0,0-3.89.68c-5.67,2.77-6,9.48-9.14,9.33-3.38-.16-3.83-8.12-9.14-9.33-2.9-.66-4.84,1.23-6.1,0-1.88-1.85,1.94-6.59,0-9.33s-7.41-.3-9.13-3.11a2.66,2.66,0,0,1-.28-2H42.64a3.43,3.43,0,0,1-2.42-1L38.28,82.5l-3.59-3.59c-1.68,1.45-1.77,3.36-5,5.47s-4.53,1.23-6.1,3.11c-2,2.43-2.57,7.3,0,9.33a5.29,5.29,0,0,0,6.1,0c2.31-1.74,1.31-4.73,3-6.22,2.39-2,8.1.34,12.19,3.11,12.72,8.61,8.55,20.12,18.28,28,8.85,7.17,25.29,8.15,37.1,3.07l-.82-.27A3.42,3.42,0,0,1,97.16,121.26Z"/><path class="cls-3" d="M40.22,84.44a3.43,3.43,0,0,0,2.42,1h5.07c.25-1.27.94-2.6.28-4.18C46.55,77.84,40,76,35.8,78.16a5.11,5.11,0,0,0-1.11.75l3.59,3.59Z"/><path class="cls-4" d="M40.22,84.44a3.43,3.43,0,0,0,2.42,1h5.07c.25-1.27.94-2.6.28-4.18C46.55,77.84,40,76,35.8,78.16a5.11,5.11,0,0,0-1.11.75l3.59,3.59Z"/><path class="cls-3" d="M118.06,115.48c5.64-.29,11.84,2.83,12.18,6.22.18,1.78-1.36,2.49-6.09,9.33-3.2,4.63-3.38,5.59-3.05,6.22,1,1.88,6.31.9,9.14,0s6.86-2.15,9.14-6.22c3.19-5.67.22-12,0-12.44-3.35-6.86-11.63-8.58-15.23-9.33-13.2-2.74-21.77,3.75-24.37,0-1.58-2.27-.15-7.13,3-9.33s7.61,1.83,9.14,0a2.71,2.71,0,0,0,0-3.11c-1.91-2.42-8,2.6-18.28,3.11a36.72,36.72,0,0,1-8.29-.68v13A3.41,3.41,0,0,0,88,115.54l6.59,1.65a3.41,3.41,0,0,1,2.59,3.32v.75a3.42,3.42,0,0,0,2.34,3.24l.82.27a28.33,28.33,0,0,0,5.55-3.07C109.13,119.36,112.46,115.78,118.06,115.48Z"/><path class="cls-4" d="M118.06,115.48c5.64-.29,11.84,2.83,12.18,6.22.18,1.78-1.36,2.49-6.09,9.33-3.2,4.63-3.38,5.59-3.05,6.22,1,1.88,6.31.9,9.14,0s6.86-2.15,9.14-6.22c3.19-5.67.22-12,0-12.44-3.35-6.86-11.63-8.58-15.23-9.33-13.2-2.74-21.77,3.75-24.37,0-1.58-2.27-.15-7.13,3-9.33s7.61,1.83,9.14,0a2.71,2.71,0,0,0,0-3.11c-1.91-2.42-8,2.6-18.28,3.11a36.72,36.72,0,0,1-8.29-.68v13A3.41,3.41,0,0,0,88,115.54l6.59,1.65a3.41,3.41,0,0,1,2.59,3.32v.75a3.42,3.42,0,0,0,2.34,3.24l.82.27a28.33,28.33,0,0,0,5.55-3.07C109.13,119.36,112.46,115.78,118.06,115.48Z"/><path class="cls-3" d="M81.5,202.57c10.47,3,27.91,5.54,30.46,0a3.49,3.49,0,0,0,0-3.11c-3.1-5.15-24.44,5-27.42,0-1.06-1.79,1.33-3.63,0-6.22-1.88-3.66-8.15-2.77-9.14-6.22-.4-1.41.54-1.94,0-3.11-1.25-2.74-6.74-.56-9.14-3.11-3.29-3.5,3.28-11.71,0-15.55-2.16-2.55-7.78-2.17-9.14,0-1.18,1.9,1.3,4.51,0,6.22-1.12,1.49-4.6,1.6-6.09,0-2.74-2.94.12-12.84,6.09-15.55,2.4-1.09,5.54-1.13,6.1,0,.78,1.56-3.84,4.48-3,6.22.6,1.31,4.13,1.63,6.09,0,2.49-2.07,2.14-7,0-9.33-2.75-3.06-8.7-2.12-12.18,0-7.44,4.52-9.72,18.13-6.09,28C53.05,194.57,68.9,199,81.5,202.57Z"/><path class="cls-4" d="M81.5,202.57c10.47,3,27.91,5.54,30.46,0a3.49,3.49,0,0,0,0-3.11c-3.1-5.15-24.44,5-27.42,0-1.06-1.79,1.33-3.63,0-6.22-1.88-3.66-8.15-2.77-9.14-6.22-.4-1.41.54-1.94,0-3.11-1.25-2.74-6.74-.56-9.14-3.11-3.29-3.5,3.28-11.71,0-15.55-2.16-2.55-7.78-2.17-9.14,0-1.18,1.9,1.3,4.51,0,6.22-1.12,1.49-4.6,1.6-6.09,0-2.74-2.94.12-12.84,6.09-15.55,2.4-1.09,5.54-1.13,6.1,0,.78,1.56-3.84,4.48-3,6.22.6,1.31,4.13,1.63,6.09,0,2.49-2.07,2.14-7,0-9.33-2.75-3.06-8.7-2.12-12.18,0-7.44,4.52-9.72,18.13-6.09,28C53.05,194.57,68.9,199,81.5,202.57Z"/><path class="cls-3" d="M151.57,165.25c-2.9,4.95-7.44,6.06-9.14,12.44-.67,2.5-.15,3,0,3.11,1.28,1,6-2.35,9.14-6.22,2.29-2.85,2.37-4.34,6.09-18.66a5.49,5.49,0,0,0,0-3.11,5.32,5.32,0,0,0-2.33-3l-1.52,2.29C153.79,155.11,154.4,160.41,151.57,165.25Z"/><path class="cls-4" d="M151.57,165.25c-2.9,4.95-7.44,6.06-9.14,12.44-.67,2.5-.15,3,0,3.11,1.28,1,6-2.35,9.14-6.22,2.29-2.85,2.37-4.34,6.09-18.66a5.49,5.49,0,0,0,0-3.11,5.32,5.32,0,0,0-2.33-3l-1.52,2.29C153.79,155.11,154.4,160.41,151.57,165.25Z"/><path class="cls-3" d="M154.62,149.7c-.67.14-.8,1-.81,2.41l1.52-2.29A1.16,1.16,0,0,0,154.62,149.7Z"/><path class="cls-4" d="M154.62,149.7c-.67.14-.8,1-.81,2.41l1.52-2.29A1.16,1.16,0,0,0,154.62,149.7Z"/><path class="cls-3" d="M172.9,90.6c1.89-9.32,7.64-13.91,6.09-15.55-.65-.7-2.15-.4-3.05,0-4.43,2-1.5,9.58-6.09,15.55-.17.22-.35.41-.53.61,1.26,0,2.43.06,3.45.08C172.81,91.06,172.85,90.83,172.9,90.6Z"/><path class="cls-4" d="M172.9,90.6c1.89-9.32,7.64-13.91,6.09-15.55-.65-.7-2.15-.4-3.05,0-4.43,2-1.5,9.58-6.09,15.55-.17.22-.35.41-.53.61,1.26,0,2.43.06,3.45.08C172.81,91.06,172.85,90.83,172.9,90.6Z"/><path class="cls-3" d="M157.66,99.93c-.77,2.66.82,3.36,0,6.22-1.38,4.83-6.56,5-9.14,9.33-1.34,2.25-2.19,6,0,12.44a32.61,32.61,0,0,0,9.14-9.33c3.84-6,3.9-10.85,9.14-15.55a17,17,0,0,0,3-3.11c2.17-3,2.39-5.77,2.92-8.64-1,0-2.19,0-3.45-.08C165.1,96,159.12,94.94,157.66,99.93Z"/><path class="cls-4" d="M157.66,99.93c-.77,2.66.82,3.36,0,6.22-1.38,4.83-6.56,5-9.14,9.33-1.34,2.25-2.19,6,0,12.44a32.61,32.61,0,0,0,9.14-9.33c3.84-6,3.9-10.85,9.14-15.55a17,17,0,0,0,3-3.11c2.17-3,2.39-5.77,2.92-8.64-1,0-2.19,0-3.45-.08C165.1,96,159.12,94.94,157.66,99.93Z"/><path class="cls-3" d="M200.62,71.77c-6.39-.15-9-4.32-12.19-3.11-2.58,1-4,5-3,6.22.42.57,1.25.44,6.09,0,4.52-.42,5.21-.44,6.09,0,2.23,1.1,3.83,4.23,3.05,6.22-1.06,2.71-6.09,2.3-6.09,3.11,0,1.17,10.42,5.53,15.23,0a8.86,8.86,0,0,0,1.81-3.48c-.8-3.11-1.74-6.16-2.8-9.16-.76,0-2.09.16-5.1.2C202.25,71.79,201,71.78,200.62,71.77Z"/><path class="cls-4" d="M200.62,71.77c-6.39-.15-9-4.32-12.19-3.11-2.58,1-4,5-3,6.22.42.57,1.25.44,6.09,0,4.52-.42,5.21-.44,6.09,0,2.23,1.1,3.83,4.23,3.05,6.22-1.06,2.71-6.09,2.3-6.09,3.11,0,1.17,10.42,5.53,15.23,0a8.86,8.86,0,0,0,1.81-3.48c-.8-3.11-1.74-6.16-2.8-9.16-.76,0-2.09.16-5.1.2C202.25,71.79,201,71.78,200.62,71.77Z"/><path class="cls-3" d="M100.48.29q3.47-.22,7-.23c.7,0,1.4,0,2.09,0l-.64,0a69.86,69.86,0,0,0-8.44.15A.11.11,0,0,1,100.48.29Z"/><path class="cls-4" d="M100.48.29q3.47-.22,7-.23c.7,0,1.4,0,2.09,0l-.64,0a69.86,69.86,0,0,0-8.44.15A.11.11,0,0,1,100.48.29Z"/><path class="cls-3" d="M113.3.22A106.9,106.9,0,0,1,163,15.48C140.82,1.6,127.47.72,113.3.22Z"/><path class="cls-4" d="M113.3.22A106.9,106.9,0,0,1,163,15.48C140.82,1.6,127.47.72,113.3.22Z"/><path class="cls-3" d="M170.77,20.67l-.31-.21c2.62,1.9,5.16,3.91,7.59,6C176.07,24.16,172.67,22,170.77,20.67Z"/><path class="cls-4" d="M170.77,20.67l-.31-.21c2.62,1.9,5.16,3.91,7.59,6C176.07,24.16,172.67,22,170.77,20.67Z"/><path class="cls-3" d="M100.48.29c-.28,1.3-12.15,7.78-12.15,9.7v13.7a52.66,52.66,0,0,1,17.54-1.85c5.76.56,10.66,2.29,12.19,0a2.79,2.79,0,0,0,0-3.11c-1.08-1.09-3.3.94-6.1,0-1.53-.52-3.14-1.9-3-3.12.14-1.7,3.64-2.87,6.09-3.11,4.53-.44,10.31,1.82,12.19,6.23,1.68,3.95-1.33,6,0,9.33,2.64,6.58,19.25,9.9,27.42,3.11,4.36-3.64,5.06-9.12,9.14-9.33,2.28-.12,4.71,1.46,6.09,3.11,2.36,2.81,1.5,5.64,3.05,6.22,2,.75,7,1.5,6.7-1.67a5.86,5.86,0,0,0-1.55-3c-2.43-2.12-5-4.13-7.59-6s-5.11-3.48-7.5-5A106.9,106.9,0,0,0,113.3.22L109.56.09c-.69,0-1.39,0-2.09,0Q103.95.06,100.48.29Z"/><path class="cls-4" d="M100.48.29c-.28,1.3-12.15,7.78-12.15,9.7v13.7a52.66,52.66,0,0,1,17.54-1.85c5.76.56,10.66,2.29,12.19,0a2.79,2.79,0,0,0,0-3.11c-1.08-1.09-3.3.94-6.1,0-1.53-.52-3.14-1.9-3-3.12.14-1.7,3.64-2.87,6.09-3.11,4.53-.44,10.31,1.82,12.19,6.23,1.68,3.95-1.33,6,0,9.33,2.64,6.58,19.25,9.9,27.42,3.11,4.36-3.64,5.06-9.12,9.14-9.33,2.28-.12,4.71,1.46,6.09,3.11,2.36,2.81,1.5,5.64,3.05,6.22,2,.75,7,1.5,6.7-1.67a5.86,5.86,0,0,0-1.55-3c-2.43-2.12-5-4.13-7.59-6s-5.11-3.48-7.5-5A106.9,106.9,0,0,0,113.3.22L109.56.09c-.69,0-1.39,0-2.09,0Q103.95.06,100.48.29Z"/><path class="cls-3" d="M100.48.21c-1,.07-1.89.18-2.8.3.93-.09,1.87-.16,2.8-.22A.11.11,0,0,0,100.48.21Z"/><path class="cls-4" d="M100.48.21c-1,.07-1.89.18-2.8.3.93-.09,1.87-.16,2.8-.22A.11.11,0,0,0,100.48.21Z"/><path class="cls-3" d="M29.71,40.5c-.13.37-1.62,5,0,6.22,1.29,1,3.39-1.09,6.09,0a5.64,5.64,0,0,1,3.05,3.11c1,2.77-1.11,5.09,0,6.22.7.72,2.19.4,3,0,2.16-1,3-4,3-6.22,0-4.92-4.09-7-3-9.33.85-1.85,3.67-.66,6.1-3.11s1.65-5.88,3-6.22c2.07-.51,5.09,6.63,6.09,6.22.84-.34-1.66-5,0-9.33,1.78-4.62,7.7-7.43,9.14-6.22.67.55.54,2.09,0,3.11-1.43,2.72-6,2.14-6.09,3.11s4.09,3.11,9.14,3.11c6.18,0,7.59-3.27,15.23-6.22,1.27-.49,2.54-.91,3.79-1.26V10c0-1.92,11.87-8.4,12.15-9.7-.93.06-1.87.13-2.8.22C89,1.66,82.43,4.78,72.36,9.39,72.36,9.39,35.36,23.1,29.71,40.5Z"/><path class="cls-4" d="M29.71,40.5c-.13.37-1.62,5,0,6.22,1.29,1,3.39-1.09,6.09,0a5.64,5.64,0,0,1,3.05,3.11c1,2.77-1.11,5.09,0,6.22.7.72,2.19.4,3,0,2.16-1,3-4,3-6.22,0-4.92-4.09-7-3-9.33.85-1.85,3.67-.66,6.1-3.11s1.65-5.88,3-6.22c2.07-.51,5.09,6.63,6.09,6.22.84-.34-1.66-5,0-9.33,1.78-4.62,7.7-7.43,9.14-6.22.67.55.54,2.09,0,3.11-1.43,2.72-6,2.14-6.09,3.11s4.09,3.11,9.14,3.11c6.18,0,7.59-3.27,15.23-6.22,1.27-.49,2.54-.91,3.79-1.26V10c0-1.92,11.87-8.4,12.15-9.7-.93.06-1.87.13-2.8.22C89,1.66,82.43,4.78,72.36,9.39,72.36,9.39,35.36,23.1,29.71,40.5Z"/><circle class="cls-7" cx="107.49" cy="107.51" r="107.49"/></g></g></g></svg>