<svg xmlns="http://www.w3.org/2000/svg" xmlns:xlink="http://www.w3.org/1999/xlink" viewBox="0 0 338 342"><defs><style>.cls-1{isolation:isolate;}.cls-2{fill:#fee9a3;}.cls-3{fill:#e56500;}.cls-4{fill:#ebe0b5;}.cls-5{fill:#f2b669;}.cls-6{fill:#ccc;}.cls-7{fill:#f6edc7;}.cls-8{fill:#f2a840;}.cls-9{fill:#fbdf4c;}.cls-10{fill:#f0e8ba;}.cls-11{fill:#b14622;}.cls-12{fill:#e2982c;}.cls-13,.cls-14{opacity:0.68;mix-blend-mode:hard-light;}.cls-13{fill:url(#radial-gradient);}.cls-14{fill:url(#radial-gradient-2);}</style><radialGradient id="radial-gradient" cx="176.2" cy="171.54" r="166.63" gradientTransform="translate(-9.7 -5.04) scale(1.01 1.03)" gradientUnits="userSpaceOnUse"><stop offset="0" stop-color="#c69c6d" stop-opacity="0"/><stop offset="1" stop-color="#42210b"/></radialGradient><radialGradient id="radial-gradient-2" cx="4.14" cy="177.6" r="247.63" gradientUnits="userSpaceOnUse"><stop offset="0" stop-color="#ffffde" stop-opacity="0"/><stop offset="0.44" stop-color="#b5a795" stop-opacity="0.24"/><stop offset="1" stop-color="#2a000b" stop-opacity="0.7"/></radialGradient></defs><g class="cls-1"><g id="Layer_2" data-name="Layer 2"><g id="Layer_8" data-name="Layer 8"><path class="cls-2" d="M9.68,194.77c-.37-1.11-2-1.15-3.39-1.93q.4,3,.91,6C8.42,197.7,10.13,196.1,9.68,194.77Z"/><path class="cls-3" d="M101.36,18c8.57-2.13,12.67-4.62,18-7.07A162,162,0,0,0,101.36,18Z"/><path class="cls-4" d="M48.7,237c14.43-.86,15.93-3.85,16.26-4.87.75-2.37-1.07-5.93-3.25-6.51-1.42-.37-2.17.74-4.88,1.63-3.42,1.11-7.69,1.12-8.13,0-.5-1.29,3.75-4.79,8.13-6.5C64,218,69.45,220.73,78,222.41c0,0,17.54,3.47,35.77-1.62,12.78-3.58,11-7.34,19.51-8.13,12.47-1.16,15.3,7,35.76,9.75,9.72,1.33,15.16.32,19.51-1.62,5-2.26,5.85-4.55,9.75-6.51,9.43-4.73,20.34.75,27.64,3.25,6.06,2.08,29.28,7.35,47.14-1.62,9.94-5,16.26-14.63,16.26-14.63,2.24-3.12,2.54-4.32,8.13-13,6.87-10.68,8.71-12.43,11.38-13,4.13-.9,8.9,1.32,11.38,4.87,3,4.27,3,10.94,0,13-1.48,1-3.92,1.09-4.88,0-1.19-1.35.79-3.44,0-6.5-.64-2.5-2.94-5-4.88-4.88-3,.18-6.23,6.54-4.87,11.38,1.74,6.18,11,9.63,17.88,8.13,5-1.1,7.78-4.6,9.63-6a171.53,171.53,0,0,0,1.82-24.88c0-2.34-.06-4.67-.16-7-.09,4.75-.36,5.94-1.54,7s-2.86,1.08-13,0c-11.89-1.27-16.31-5.61-24.39-3.25-2.74.8-7.85,2.29-9.75,6.5-1.58,3.5.59,5.5,0,9.76-1,7.44-9.23,12.62-14.63,14.63-5.91,2.19-16.1,3.41-19.51-1.63-1.62-2.39-1.8-6.34,0-8.13,2.56-2.55,7.64.79,9.75-1.62,1.61-1.84.78-6.2-1.62-8.13-3.84-3.09-11,.57-13,1.62-10.48,5.39-9.88,13.3-17.88,19.51-6.59,5.11-14.15,5-29.26,4.88-13.9-.14-13.54-2.32-37.39-4.88-10.68-1.14-22.36-2-35.77,0-8.48,1.24-11.89,2.74-13,3.25-9.74,4.5-11,10.55-17.89,11.38-5.44.66-6.59-2.87-14.63-4.87-9-2.25-16.74-.08-22.76,1.62-12.77,3.61-14.56,8.73-27.63,13a67.17,67.17,0,0,1-16.26,3.15c1.12,3.18,2.35,6.31,3.66,9.39C21,233.94,30.18,238.15,48.7,237Z"/><path class="cls-5" d="M52.55,55c6.71-1.7,9.47,3.39,16.51,1.62,6.54-1.63,6.87-6.68,13.21-9.75,7.25-3.51,15.13-1,23.12,1.62,16.57,5.36,17.35,12.51,33,16.26,4,1,15.2,3.64,19.81-1.62,1.54-1.76,2.86-5,1.65-6.51s-4.41-1.2-6.6,0c-2.81,1.54-2.49,3.89-5,4.88-2.29.92-5.63.13-6.61-1.63-1.59-2.84,2.81-8.58,6.61-11.38,8.26-6.08,19.84-2.72,31.37,0,20.69,4.9,34.87,8.26,49.53,8.13,25-.21,41.64-10.43,56.13-1.62A56.87,56.87,0,0,1,292,59.84a91.29,91.29,0,0,1,9,8.84A165.44,165.44,0,0,0,223.37,12c1.68.87,2.6,1.68,2.53,2.37-.18,1.69-6.36,2.35-14.63,3.25a107.64,107.64,0,0,1-22.76,0C174.65,16.1,176.2,13.72,169,14.33c-7,.58-17.07,3.54-19.51,0-.35-.52-.88-1.66-1.62-1.63-.92,0-1.93,1.87-1.63,3.25.23,1.07,1.32,2.25,4.88,3.25,8.52,2.41,18,.12,26,0,6.87-.1,5.57,1.5,17.88,3.25,8.46,1.21,19.3,1.37,40.64,1.63,6,.07,9.69.08,14.63,1.63,9.12,2.84,17.13,9.2,16.26,11.38-.74,1.86-8,.68-11.38,0-5.9-1.22-6.91-3.46-13-4.88a34.53,34.53,0,0,0-14.63,0c-6.57,1.23-8.13,3.29-13,4.88-5,1.63-8.86,1.21-29.26-3.26-21.17-4.63-21.07-5.06-24.39-4.87-11.37.63-12,5.61-26,8.13-14.53,2.61-25-.74-27.64-1.63-7.49-2.57-16.11-7.62-17.67-11.38A166.42,166.42,0,0,0,45.87,59.87C49.38,56.05,51.13,55.33,52.55,55Z"/><path class="cls-6" d="M6.43,165.51c2.37-.8,4.19,3.89,9.76,4.88,3.83.69,8.94-.48,9.75-3.25s-2.75-6.86-4.88-6.5c-1.31.21-1.21,2-3.25,3.25-1.89,1.18-5,1.53-6.5,0-2-2-.16-6.16,0-6.51,2.07-4.57,8.1-7.39,13-6.5s6.17,5.06,9.75,8.13c7.26,6.22,18.68,3.26,61.77-4.88,8.94-1.68,18.47-3.36,22.76,1.63,1.57,1.82,2.73,4.86,1.63,6.5-2.5,3.74-14.78-2.65-17.88,1.63a4.52,4.52,0,0,0,0,4.87c1.94,2.82,8.36,2.76,27.63-3.25,23.36-7.27,22.85-10,35.77-13,6.35-1.5,21.25-4.86,39-1.63,8.12,1.48,11.1,3.49,27.64,6.5A91,91,0,0,0,253.53,159c6.48-.29,14.68-.74,16.26-4.88.92-2.41-.38-6.16-1.62-9.75s-2-4-1.63-4.88c1.19-2.71,10.6.47,24.38,1.63,16,1.34,24.05,2,32.52,0,3-.72,6.38-1.76,8.83-.58A167.87,167.87,0,0,0,306.14,76c1,2,1.38,3.79.68,5-2.73,4.84-21.59,2-34.68-3.25a65.56,65.56,0,0,0-16.51-4.88c-6.1-.9-12.16-1.8-14.86,1.63-2.33,3-1.87,8.87,1.66,11.38,2.7,1.92,7.09,1.77,8.25,0s-1.44-4.28,0-6.51a3.83,3.83,0,0,1,3.3-1.62c2.68.17,4.59,3.91,5,6.5.69,4.84-3.23,11-8.26,13-9.67,3.85-16.15-10.6-36.32-14.63-9.44-1.88-17.15-.54-29.72,1.63-17.49,3-17,6.43-29.72,8.13-5.9.78-11.15.74-44.58-4.88C86,83.4,87.68,83.23,82.27,82.6,51.11,79,31,93,27.79,87.48c-.36-.61-.27-1.5.21-2.72A168.16,168.16,0,0,0,9.33,131.34c.92-1.93,2.17-4.44,3.61-8.09,5.84-14.83,4-21,9.75-24.39,2.19-1.27,1.5.19,11.38-1.63,5.6-1,10-2.26,16.26-1.62,4.56.47,4.84,1.4,4.87,1.62.25,1.5-5.15,2.22-8.13,6.51-1.87,2.7-2.91,7-1.62,9.75,2.85,6.06,17.38,4.75,32.51,3.25s20.66-3.47,40.64-6.5c14.56-2.21,21.83-3.31,26-3.25,24.56.36,41.85,11.24,47.15,4.88.63-.76,2.49-3.45,1.62-4.88s-4.43-.52-4.87-1.63,2.44-3.67,4.87-4.87c7-3.45,15.48,1.76,22.76,4.87,22.24,9.52,46.35,5.23,47.15,1.63.41-1.83-5.2-3.46-4.88-6.5.4-3.71,9.15-5.65,13-6.51,9.83-2.18,11.52-.15,21.13-1.62,11.81-1.82,15.13-5.79,19.51-3.25,3.15,1.82,3.29,5,6.5,13a109.59,109.59,0,0,0,8.13,16.26,56.31,56.31,0,0,1-16.26,3.25c-12.19.58-21.08-3.11-22.76,0-.77,1.43.29,3.75,1.63,4.88,1.95,1.63,4.63.81,9.75,0,8.63-1.38,13-2.07,14.63,0s.79,6.27-1.62,8.13c-2.93,2.25-6.76-.33-14.63-1.63-7.38-1.22-8.31.34-17.88,0-8.36-.3-8.23-1.5-21.14-3.25-20.06-2.72-24.92-.43-27.63,1.62-2.88,2.18-5.85,6-4.88,8.13,1.19,2.62,8.6,3.16,13,0,2.55-1.82,2.33-3.62,4.88-4.87,3.36-1.65,8.44-.84,9.75,1.62,1.78,3.32-3.1,10-8.12,13-7.93,4.77-16.52-.4-27.64-3.26-23.06-5.92-25.24,5.37-61.78,3.26C134.93,148,120.23,146,120.23,146c-5.73-.79-14.68-2.16-26,0-5.21,1-7.54,2.1-11.38,3.26-14.83,4.46-28.51,2-55.27-3.26-13.65-2.65-18.16-4.38-19.51-8.12,0-.09-.05-.18-.08-.27a170.43,170.43,0,0,0-3.13,29.33A3.36,3.36,0,0,1,6.43,165.51Zm118.68-65c-5.31,1.62-8.23.23-13,1.62-4,1.16-6.07,3.33-8.13,4.88-10.91,8.23-32.89,8.11-37.39,0-2.12-3.83,0-8.88,1.63-11.38,6.52-9.78,25.17-8.21,27.63-3.25a3.37,3.37,0,0,1,0,3.25c-1,1.39-4.15,1.21-4.87,0-.63-1,.7-2.57,0-3.25a1.39,1.39,0,0,0-1.63,0c-1.09.76-1,3.51,0,4.87,1.43,1.92,4.68,1.09,13,0,15.78-2.06,12.61-.22,17.88-1.62,2.71-.72,6.74-2,9.75,0a6.21,6.21,0,0,1,1.63,1.62A22.2,22.2,0,0,1,125.11,100.49Z"/><path class="cls-3" d="M41.52,65.11q-3.6,4.52-6.89,9.27c1.39-1.91,2.95-4,4.72-6.41C40.12,66.93,40.83,66,41.52,65.11Z"/><path class="cls-5" d="M37.32,178.52a6.4,6.4,0,0,0-1.62-4.88C29.31,167.29,10.61,182.13,5,177c.12,3.19.33,6.37.62,9.52,1.37.18,3.35,2.21,5.74,3.37C20.34,194.25,36.77,186.42,37.32,178.52Z"/><path class="cls-6" d="M222.65,302.07c-4.28-.18-15.22-.64-17.89,4.88-1.31,2.72-.49,6.65,1.63,8.12,2.92,2,8.4-.53,11.38-3.25,2.08-1.89,2.39-3.36,3.25-3.25,2.22.29,5.36,10.83,1.63,16.26-4.79,6.95-20,4.23-42.27,0-25.92-4.92-25.42-8.11-37.39-8.13-19.19,0-24.15,8.19-35.84,8.62a163.23,163.23,0,0,0,153.52-15.11c-2.65-.22-5.78-.79-10.39-1.64C236.16,306,233.12,302.51,222.65,302.07Z"/><path class="cls-7" d="M279.55,238.67c-16.92-3-26.7-4.56-37.4,0-1.44.61-10.13,4.32-9.75,8.13.34,3.4,7.86,6.48,14.63,6.5,9.75,0,15-6.32,21.14-3.25.86.42,2.9,1.44,3.25,3.25.84,4.39-8.82,10.5-16.26,13-9.47,3.19-14.63.29-34.14-3.25-31.65-5.74-44.19-2.86-48.77-1.62-8.1,2.18-6,3.19-13,4.87-18.85,4.53-28.31-4.14-55.28-6.5-9.89-.86-16-1.39-24.38,0-21.78,3.6-31.91,15.48-41.16,11.88q4.27,5.7,9,11c2.23-6.57,14.17-10.45,22.41-13.12,7.76-2.52,17.51-5.68,27.64-1.63,5.68,2.27,14.11,7.87,13,13-.86,3.95-6.27,7.63-9.76,6.5-3.76-1.22-3-7.32-8.13-9.76-2.12-1-5.27-1.39-6.5,0-2,2.21.87,8.89,4.88,13,9.66,9.92,26.49,5.21,27.63,4.88,2.92-.86,10-3,11.38-8.13.76-2.88-.38-6.31-1.62-6.5s-1.78,3.43-4.88,4.87c-2.79,1.3-7,.49-8.13-1.62-1.73-3.29,3.33-11.15,9.76-13,5.92-1.71,11,2.26,16.25,4.88,9.91,4.94,16.73,3.24,42.27,1.62,44-2.78,45.41-2.21,50.4-1.62,15.2,1.78,17.57,4.47,32.51,4.88,16.86.46,24.95-2.66,28.16-1a168.11,168.11,0,0,0,24-37C314.05,245.21,307.42,243.6,279.55,238.67Zm-8.13,8.13c.48-1.43,3.16-1.82,4.87-1.63,2,.22,4.86,1.47,4.88,3.25s-2.59,3.38-4.88,3.25C273.39,251.52,270.85,248.48,271.42,246.8Zm9.75,19.5c-5.18,1.52-11.45-2.18-11.38-4.87s6-4.46,9.76-4.88c1.23-.14,7-.78,8.12,1.63S285.36,265.08,281.17,266.3Z"/><path class="cls-5" d="M266.54,280.94c-14.94-.41-17.31-3.1-32.51-4.88-5-.59-6.39-1.16-50.4,1.62-25.54,1.62-32.36,3.32-42.27-1.62-5.26-2.62-10.33-6.59-16.25-4.88-6.43,1.86-11.49,9.72-9.76,13,1.12,2.11,5.34,2.92,8.13,1.62,3.1-1.44,3.55-5.08,4.88-4.87s2.38,3.62,1.62,6.5c-1.35,5.17-8.46,7.27-11.38,8.13-1.14.33-18,5-27.63-4.88-4-4.12-6.83-10.8-4.88-13,1.23-1.39,4.38-1,6.5,0,5.12,2.44,4.37,8.54,8.13,9.76,3.49,1.13,8.9-2.55,9.76-6.5,1.1-5.14-7.33-10.74-13-13-10.13-4.05-19.88-.89-27.64,1.63-8.24,2.67-20.18,6.55-22.41,13.12a165.54,165.54,0,0,0,59.73,42.64c11.69-.43,16.65-8.64,35.84-8.62,12,0,11.47,3.21,37.39,8.13,22.29,4.23,37.48,6.95,42.27,0,3.73-5.43.59-16-1.63-16.26-.86-.11-1.17,1.36-3.25,3.25-3,2.72-8.46,5.28-11.38,3.25-2.12-1.47-2.94-5.4-1.63-8.12,2.67-5.52,13.61-5.06,17.89-4.88,10.47.44,13.51,3.9,27.63,6.5,4.61.85,7.74,1.42,10.39,1.64a166.7,166.7,0,0,0,34-30.31C291.49,278.28,283.4,281.4,266.54,280.94Z"/><path class="cls-6" d="M279.55,256.55c-3.79.42-9.69,2.3-9.76,4.88s6.2,6.39,11.38,4.87c4.19-1.22,7.55-5.84,6.5-8.12S280.78,256.41,279.55,256.55Z"/><path class="cls-6" d="M276.29,251.67c2.29.13,4.9-1.53,4.88-3.25s-2.87-3-4.88-3.25c-1.71-.19-4.39.2-4.87,1.63C270.85,248.48,273.39,251.52,276.29,251.67Z"/><path class="cls-6" d="M323.44,201.28c-6.9,1.5-16.14-1.95-17.88-8.13-1.36-4.84,1.91-11.2,4.87-11.38,1.94-.12,4.24,2.38,4.88,4.88.79,3.06-1.19,5.15,0,6.5,1,1.09,3.4,1,4.88,0,3-2.07,3-8.74,0-13-2.48-3.55-7.25-5.77-11.38-4.87-2.67.57-4.51,2.32-11.38,13-5.59,8.69-5.89,9.89-8.13,13,0,0-6.32,9.64-16.26,14.63-17.86,9-41.08,3.7-47.14,1.62-7.3-2.5-18.21-8-27.64-3.25-3.9,2-4.72,4.25-9.75,6.51-4.35,1.94-9.79,3-19.51,1.62-20.46-2.79-23.29-10.91-35.76-9.75-8.55.79-6.73,4.55-19.51,8.13C95.5,225.88,78,222.41,78,222.41c-8.51-1.68-14-4.42-21.13-1.62-4.38,1.71-8.63,5.21-8.13,6.5.44,1.12,4.71,1.11,8.13,0,2.71-.89,3.46-2,4.88-1.63,2.18.58,4,4.14,3.25,6.51-.33,1-1.83,4-16.26,4.87-18.52,1.11-27.68-3.1-30.48-.46a167.63,167.63,0,0,0,20.21,35.1c9.25,3.6,19.38-8.28,41.16-11.88,8.43-1.39,14.49-.86,24.38,0,27,2.36,36.43,11,55.28,6.5,7-1.68,4.9-2.69,13-4.87,4.58-1.24,17.12-4.12,48.77,1.62,19.51,3.54,24.67,6.44,34.14,3.25,7.44-2.5,17.1-8.61,16.26-13-.35-1.81-2.39-2.83-3.25-3.25C262,247,256.78,253.32,247,253.3c-6.77,0-14.29-3.1-14.63-6.5-.38-3.81,8.31-7.52,9.75-8.13,10.7-4.56,20.48-3,37.4,0,27.87,4.93,34.5,6.54,39.12,4.2a168.11,168.11,0,0,0,14.4-47.6C331.22,196.68,328.47,200.18,323.44,201.28Z"/><path class="cls-8" d="M58.45,211c6-1.7,13.74-3.87,22.76-1.62,8,2,9.19,5.53,14.63,4.87,6.9-.83,8.15-6.88,17.89-11.38,1.11-.51,4.52-2,13-3.25,13.41-2,25.09-1.14,35.77,0,23.85,2.56,23.49,4.74,37.39,4.88,15.11.15,22.67.23,29.26-4.88,8-6.21,7.4-14.12,17.88-19.51,2.05-1,9.17-4.71,13-1.62,2.4,1.93,3.23,6.29,1.62,8.13-2.11,2.41-7.19-.93-9.75,1.62-1.8,1.79-1.62,5.74,0,8.13,3.41,5,13.6,3.82,19.51,1.63,5.4-2,13.6-7.19,14.63-14.63.59-4.26-1.58-6.26,0-9.76,1.9-4.21,7-5.7,9.75-6.5,8.08-2.36,12.5,2,24.39,3.25,10.14,1.08,11.83,1,13,0s1.45-2.23,1.54-7a170,170,0,0,0-2.46-22.86c-2.45-1.18-5.83-.14-8.83.58-8.47,2-16.49,1.34-32.52,0-13.78-1.16-23.19-4.34-24.38-1.63-.37.85.43,1.42,1.63,4.88s2.54,7.34,1.62,9.75c-1.58,4.14-9.78,4.59-16.26,4.88a91,91,0,0,1-21.13-1.63c-16.54-3-19.52-5-27.64-6.5-17.76-3.23-32.66.13-39,1.63-12.92,3-12.41,5.73-35.77,13-19.27,6-25.69,6.07-27.63,3.25a4.52,4.52,0,0,1,0-4.87c3.1-4.28,15.38,2.11,17.88-1.63,1.1-1.64-.06-4.68-1.63-6.5-4.29-5-13.82-3.31-22.76-1.63-43.09,8.14-54.51,11.1-61.77,4.88-3.58-3.07-4.83-7.23-9.75-8.13s-10.94,1.93-13,6.5c-.16.35-2,4.5,0,6.51,1.51,1.53,4.61,1.18,6.5,0,2-1.27,1.94-3,3.25-3.25,2.13-.36,5.69,3.73,4.88,6.5s-5.92,3.94-9.75,3.25c-5.57-1-7.39-5.68-9.76-4.88a3.36,3.36,0,0,0-1.58,1.43c0,1.14,0,2.29,0,3.45,0,2.22.05,4.42.14,6.62,5.66,5.12,24.36-9.72,30.75-3.37a6.4,6.4,0,0,1,1.62,4.88c-.55,7.9-17,15.73-26,11.38-2.39-1.16-4.37-3.19-5.74-3.37.2,2.11.44,4.22.72,6.31,1.42.78,3,.82,3.39,1.93.45,1.33-1.26,2.93-2.48,4.11a167.6,167.6,0,0,0,7.36,28.31A67.17,67.17,0,0,0,30.82,224C43.89,219.76,45.68,214.64,58.45,211Zm70.45-21.55a24.46,24.46,0,0,1,2.71-2.83c6.21-5.27,24.38-3.25,24.38-3.25,16.46,1.82,24.69,2.73,34.14,1.62,7.85-.92,15.61-1.83,24.39-6.5,8.43-4.48,13.08-9.92,16.26-8.13,2.4,1.35,2.78,6.2,1.62,9.75-3.15,9.66-18.5,12.28-22.76,13-13.4,2.29-15-2.28-43.89-4.88-18.66-1.68-24.57-.36-29.26,1.63-2.81,1.19-9.1,4.27-9.76,3.25C126.39,192.62,127.63,191.07,128.9,189.48Z"/><path class="cls-5" d="M136.49,189.9c4.69-2,10.6-3.31,29.26-1.63,28.87,2.6,30.49,7.17,43.89,4.88,4.26-.73,19.61-3.35,22.76-13,1.16-3.55.78-8.4-1.62-9.75-3.18-1.79-7.83,3.65-16.26,8.13-8.78,4.67-16.54,5.58-24.39,6.5-9.45,1.11-17.68.2-34.14-1.62,0,0-18.17-2-24.38,3.25a24.46,24.46,0,0,0-2.71,2.83c-1.27,1.59-2.51,3.14-2.17,3.67C127.39,194.17,133.68,191.09,136.49,189.9Z"/><path class="cls-9" d="M8,137.61q.62-3.17,1.35-6.27"/><path class="cls-10" d="M27.57,146c26.76,5.21,40.44,7.72,55.27,3.26C86.68,148.1,89,147,94.22,146c11.33-2.16,20.28-.79,26,0,0,0,14.7,2,35.76,3.26,36.54,2.11,38.72-9.18,61.78-3.26,11.12,2.86,19.71,8,27.64,3.26,5-3,9.9-9.69,8.12-13-1.31-2.46-6.39-3.27-9.75-1.62-2.55,1.25-2.33,3.05-4.88,4.87-4.4,3.16-11.81,2.62-13,0-1-2.12,2-5.95,4.88-8.13,2.71-2.05,7.57-4.34,27.63-1.62,12.91,1.75,12.78,2.95,21.14,3.25,9.57.34,10.5-1.22,17.88,0,7.87,1.3,11.7,3.88,14.63,1.63,2.41-1.86,3.2-6.19,1.62-8.13s-6-1.38-14.63,0c-5.12.81-7.8,1.63-9.75,0-1.34-1.13-2.4-3.45-1.63-4.88,1.68-3.11,10.57.58,22.76,0a56.31,56.31,0,0,0,16.26-3.25c-2.24-3.68-3.44-9.19-6.26-16.26-3.22-8-5.22-11.18-8.37-13-4.38-2.54-7.7,1.43-19.51,3.25-9.61,1.47-11.3-.56-21.13,1.62-3.86.86-12.61,2.8-13,6.51-.32,3,5.29,4.67,4.88,6.5-.8,3.6-24.91,7.89-47.15-1.63-7.28-3.11-15.78-8.32-22.76-4.87-2.43,1.2-5.32,3.77-4.87,4.87s3.93.07,4.87,1.63-1,4.12-1.62,4.88c-5.3,6.36-22.59-4.52-47.15-4.88-4.18-.06-11.45,1-26,3.25-20,3-25.49,5-40.64,6.5s-29.66,2.81-32.51-3.25c-1.29-2.73-.25-7,1.62-9.75,3-4.29,8.38-5,8.13-6.51,0-.22-.31-1.15-4.87-1.62-6.25-.64-10.66.6-16.26,1.62-9.88,1.82-9.19.36-11.38,1.63-5.74,3.34-3.91,9.56-9.75,24.39-1.44,3.65-2.69,6.16-3.61,8.09q-.74,3.1-1.35,6.27c0,.09,0,.18.08.27C9.41,141.62,13.92,143.35,27.57,146Z"/><path class="cls-5" d="M130,95.61c-3-2-7-.72-9.75,0-5.27,1.4-2.1-.44-17.88,1.62-8.33,1.09-11.58,1.92-13,0-1-1.36-1.09-4.11,0-4.87a1.39,1.39,0,0,1,1.63,0c.7.68-.63,2.2,0,3.25.72,1.21,3.82,1.39,4.87,0a3.37,3.37,0,0,0,0-3.25c-2.46-5-21.11-6.53-27.63,3.25-1.67,2.5-3.75,7.55-1.63,11.38,4.5,8.11,26.48,8.23,37.39,0,2.06-1.55,4.14-3.72,8.13-4.88,4.78-1.39,7.7,0,13-1.62a22.2,22.2,0,0,0,6.5-3.26A6.21,6.21,0,0,0,130,95.61Z"/><path class="cls-11" d="M28,84.76c2.09-3.54,4.3-7,6.63-10.38C31.15,79.16,28.89,82.52,28,84.76Z"/><path class="cls-11" d="M41.52,65.11c1.41-1.78,2.87-3.52,4.35-5.24C44.66,61.2,43.22,62.92,41.52,65.11Z"/><path class="cls-11" d="M300.94,68.68q2.7,3.55,5.2,7.27A36.25,36.25,0,0,0,300.94,68.68Z"/><path class="cls-12" d="M27.79,87.48C31,93,51.11,79,82.27,82.6c5.41.63,3.77.8,28.07,4.88,33.43,5.62,38.68,5.66,44.58,4.88,12.75-1.7,12.23-5.11,29.72-8.13,12.57-2.17,20.28-3.51,29.72-1.63,20.17,4,26.65,18.48,36.32,14.63,5-2,8.95-8.16,8.26-13-.37-2.59-2.28-6.33-5-6.5a3.83,3.83,0,0,0-3.3,1.62c-1.44,2.23,1.15,4.74,0,6.51s-5.55,1.92-8.25,0c-3.53-2.51-4-8.41-1.66-11.38,2.7-3.43,8.76-2.53,14.86-1.63a65.56,65.56,0,0,1,16.51,4.88C285.23,83,304.09,85.82,306.82,81c.7-1.24.32-3-.68-5q-2.5-3.7-5.2-7.27a91.29,91.29,0,0,0-9-8.84A56.87,56.87,0,0,0,285.35,55c-14.49-8.81-31.15,1.41-56.13,1.62-14.66.13-28.84-3.23-49.53-8.13-11.53-2.72-23.11-6.08-31.37,0-3.8,2.8-8.2,8.54-6.61,11.38,1,1.76,4.32,2.55,6.61,1.63,2.46-1,2.14-3.34,5-4.88,2.19-1.2,5.46-1.44,6.6,0s-.11,4.75-1.65,6.51c-4.61,5.26-15.82,2.58-19.81,1.62-15.67-3.75-16.45-10.9-33-16.26-8-2.58-15.87-5.13-23.12-1.62C75.93,49.91,75.6,55,69.06,56.59c-7,1.77-9.8-3.32-16.51-1.62-1.42.36-3.17,1.08-6.68,4.9-1.48,1.72-2.94,3.46-4.35,5.24-.69.88-1.4,1.82-2.17,2.86-1.77,2.38-3.33,4.5-4.72,6.41C32.3,77.75,30.09,81.22,28,84.76,27.52,86,27.43,86.87,27.79,87.48Z"/><path class="cls-4" d="M107.22,35.46c2.61.89,13.11,4.24,27.64,1.63,14-2.52,14.64-7.5,26-8.13,3.32-.19,3.22.24,24.39,4.87,20.4,4.47,24.22,4.89,29.26,3.26,4.87-1.59,6.43-3.65,13-4.88a34.53,34.53,0,0,1,14.63,0c6.1,1.42,7.11,3.66,13,4.88,3.35.68,10.64,1.86,11.38,0,.87-2.18-7.14-8.54-16.26-11.38-4.94-1.55-8.6-1.56-14.63-1.63-21.34-.26-32.18-.42-40.64-1.63-12.31-1.75-11-3.35-17.88-3.25-8,.12-17.49,2.41-26,0-3.56-1-4.65-2.18-4.88-3.25-.3-1.38.71-3.21,1.63-3.25.74,0,1.27,1.11,1.62,1.63,2.44,3.54,12.52.58,19.51,0,7.2-.61,5.65,1.77,19.51,3.25a107.64,107.64,0,0,0,22.76,0c8.27-.9,14.45-1.56,14.63-3.25.07-.69-.85-1.5-2.53-2.37a163.49,163.49,0,0,0-104-1c-5.33,2.45-9.43,4.94-18,7.07q-6,2.79-11.81,6.07C91.11,27.84,99.73,32.89,107.22,35.46Z"/><ellipse class="cls-13" cx="169" cy="171" rx="169" ry="171"/><ellipse class="cls-14" cx="170.05" cy="170.39" rx="165.01" ry="167.44"/></g></g></g></svg>