<svg xmlns="http://www.w3.org/2000/svg" viewBox="0 0 1860.22 1061.06"><defs><style>.cls-1{opacity:0.68;}.cls-2{fill:#1595e5;}.cls-3{fill:#dce3ff;}.cls-4{fill:#8934ec;}.cls-5{fill:#3055c3;}</style></defs><title>landingPageStars</title><g id="Layer_2" data-name="Layer 2"><g id="Background"><g id="Stars" class="cls-1"><polygon class="cls-2" points="1823.24 46.06 1838.7 48.95 1852.64 46.26 1838.7 42.19 1823.24 46.06"/><polygon class="cls-2" points="1838.21 28.81 1835.32 44.27 1838.21 61.65 1842.08 44.27 1838.21 28.81"/><polygon class="cls-2" points="1756.16 55.56 1764.49 57.13 1772 55.67 1764.49 53.48 1756.16 55.56"/><polygon class="cls-2" points="1764.23 46.27 1762.67 54.6 1764.23 63.97 1766.31 54.6 1764.23 46.27"/><polygon class="cls-3" points="1613.73 45.46 1622.06 47.02 1629.57 45.57 1622.06 43.38 1613.73 45.46"/><polygon class="cls-3" points="1621.8 36.16 1620.24 44.49 1621.8 53.86 1623.88 44.49 1621.8 36.16"/><polygon class="cls-2" points="1844.38 159.4 1852.71 160.97 1860.22 159.51 1852.71 157.32 1844.38 159.4"/><polygon class="cls-2" points="1852.45 150.11 1850.88 158.44 1852.45 167.81 1854.53 158.44 1852.45 150.11"/><polygon class="cls-2" points="1160.52 62.73 1175.97 65.63 1189.91 62.94 1175.97 58.87 1160.52 62.73"/><polygon class="cls-2" points="1175.49 45.49 1172.59 60.94 1175.49 78.33 1179.35 60.94 1175.49 45.49"/><polygon class="cls-2" points="1341.38 55.81 1356.83 58.71 1370.77 56.02 1356.83 51.95 1341.38 55.81"/><polygon class="cls-2" points="1356.35 38.57 1353.45 54.02 1356.35 71.41 1360.21 54.02 1356.35 38.57"/><polygon class="cls-3" points="979.49 132.89 987.82 134.45 995.33 133 987.82 130.81 979.49 132.89"/><polygon class="cls-3" points="987.56 123.59 986 131.92 987.56 141.3 989.64 131.92 987.56 123.59"/><polygon class="cls-2" points="913.33 195.97 928.78 198.87 942.72 196.18 928.78 192.11 913.33 195.97"/><polygon class="cls-2" points="928.3 178.73 925.4 194.18 928.3 211.57 932.16 194.18 928.3 178.73"/><polygon class="cls-3" points="1228.65 153.1 1236.98 154.67 1244.49 153.22 1236.98 151.02 1228.65 153.1"/><polygon class="cls-3" points="1236.72 143.81 1235.16 152.14 1236.72 161.51 1238.8 152.14 1236.72 143.81"/><polygon class="cls-2" points="971.22 279.92 979.55 281.48 987.06 280.02 979.55 277.83 971.22 279.92"/><polygon class="cls-2" points="979.29 270.62 977.73 278.95 979.29 288.32 981.37 278.95 979.29 270.62"/><polygon class="cls-2" points="760.79 153.1 769.12 154.67 776.63 153.22 769.12 151.02 760.79 153.1"/><polygon class="cls-2" points="768.86 143.81 767.29 152.14 768.86 161.51 770.94 152.14 768.86 143.81"/><polygon class="cls-2" points="1144.89 276.24 1153.22 277.8 1160.74 276.35 1153.22 274.16 1144.89 276.24"/><polygon class="cls-2" points="1152.96 266.94 1151.4 275.27 1152.96 284.65 1155.05 275.27 1152.96 266.94"/><polygon class="cls-2" points="669.81 59.38 678.14 60.94 685.66 59.48 678.14 57.29 669.81 59.38"/><polygon class="cls-2" points="677.88 50.08 676.32 58.41 677.88 67.78 679.97 58.41 677.88 50.08"/><polygon class="cls-2" points="1554 269.35 1569.46 272.25 1583.39 269.56 1569.46 265.49 1554 269.35"/><polygon class="cls-2" points="1568.97 252.11 1566.08 267.56 1568.97 284.95 1572.84 267.56 1568.97 252.11"/><polygon class="cls-2" points="1808.54 285.89 1823.99 288.79 1837.93 286.1 1823.99 282.03 1808.54 285.89"/><polygon class="cls-2" points="1823.51 268.65 1820.61 284.1 1823.51 301.49 1827.38 284.1 1823.51 268.65"/><polygon class="cls-3" points="525.54 282.35 541 285.25 554.94 282.56 541 278.49 525.54 282.35"/><polygon class="cls-3" points="540.52 265.11 537.62 280.56 540.52 297.95 544.38 280.56 540.52 265.11"/><polygon class="cls-2" points="44.03 85.7 59.49 88.6 73.43 85.91 59.49 81.84 44.03 85.7"/><polygon class="cls-2" points="59.01 68.46 56.11 83.92 59.01 101.3 62.87 83.92 59.01 68.46"/><polygon class="cls-2" points="599.06 155.54 614.51 158.44 628.45 155.75 614.51 151.68 599.06 155.54"/><polygon class="cls-2" points="614.03 138.3 611.13 153.75 614.03 171.14 617.89 153.75 614.03 138.3"/><circle class="cls-3" cx="1520.01" cy="126.84" r="7.81"/><circle class="cls-2" cx="1408.73" cy="252.49" r="5.97"/><circle class="cls-2" cx="1766.49" cy="171" r="2.76"/><circle class="cls-2" cx="1694.82" cy="204.09" r="2.76"/><circle class="cls-2" cx="1281.82" cy="222.33" r="2.76"/><circle class="cls-2" cx="1069.76" cy="219.84" r="2.76"/><circle class="cls-2" cx="1077.57" cy="74.19" r="7.81"/><polygon class="cls-2" points="693.23 261.77 684.9 260.21 677.39 261.66 684.9 263.85 693.23 261.77"/><polygon class="cls-2" points="685.16 271.06 686.72 262.73 685.16 253.36 683.08 262.73 685.16 271.06"/><circle class="cls-2" cx="285.01" cy="82" r="2.76"/><circle class="cls-2" cx="427.44" cy="233.63" r="2.76"/><circle class="cls-2" cx="816.14" cy="288.76" r="2.76"/><polygon class="cls-2" points="43.31 245.35 40.41 260.81 43.11 274.74 47.18 260.81 43.31 245.35"/><polygon class="cls-2" points="60.56 260.32 45.1 257.43 27.71 260.32 45.1 264.19 60.56 260.32"/><polygon class="cls-2" points="161.85 0 158.95 15.46 161.65 29.39 165.72 15.46 161.85 0"/><polygon class="cls-2" points="179.1 14.97 163.64 12.07 146.25 14.97 163.64 18.84 179.1 14.97"/><circle class="cls-3" cx="390.23" cy="37.44" r="7.81"/><circle class="cls-2" cx="565.28" cy="49.84" r="2.76"/><polygon class="cls-3" points="854.52 47.43 862.85 48.99 870.36 47.54 862.85 45.35 854.52 47.43"/><polygon class="cls-3" points="862.59 38.13 861.02 46.47 862.59 55.84 864.67 46.47 862.59 38.13"/><circle class="cls-2" cx="435.25" cy="162.41" r="7.81"/><polygon class="cls-3" points="187.38 159.54 195.72 161.1 203.23 159.65 195.72 157.46 187.38 159.54"/><polygon class="cls-3" points="195.45 150.24 193.89 158.57 195.45 167.94 197.54 158.57 195.45 150.24"/><polygon class="cls-2" points="239.76 314.83 248.09 316.4 255.61 314.94 248.09 312.75 239.76 314.83"/><polygon class="cls-2" points="247.83 305.54 246.27 313.87 247.83 323.24 249.91 313.87 247.83 305.54"/><polygon class="cls-2" points="1689.08 118.05 1697.41 119.61 1704.92 118.16 1697.41 115.97 1689.08 118.05"/><polygon class="cls-2" points="1697.15 108.76 1695.59 117.09 1697.15 126.46 1699.23 117.09 1697.15 108.76"/><circle class="cls-2" cx="873.12" cy="121.52" r="2.76"/><circle class="cls-2" cx="942.03" cy="25.95" r="2.76"/><circle class="cls-2" cx="264.79" cy="197.79" r="2.76"/><circle class="cls-2" cx="1509.19" cy="12.03" r="2.76"/><circle class="cls-2" cx="1144.57" cy="168.19" r="7.81"/><polygon class="cls-2" points="1420.65 176.1 1428.98 177.67 1436.49 176.22 1428.98 174.02 1420.65 176.1"/><polygon class="cls-2" points="1428.72 166.81 1427.16 175.14 1428.72 184.51 1430.8 175.14 1428.72 166.81"/><polygon class="cls-3" points="1805.54 1002.89 1820.99 1005.79 1834.93 1003.1 1820.99 999.03 1805.54 1002.89"/><polygon class="cls-3" points="1820.51 985.65 1817.61 1001.1 1820.51 1018.49 1824.38 1001.1 1820.51 985.65"/><polygon class="cls-4" points="1459.54 922.89 1474.99 925.79 1488.93 923.1 1474.99 919.03 1459.54 922.89"/><polygon class="cls-4" points="1474.51 905.65 1471.61 921.1 1474.51 938.49 1478.38 921.1 1474.51 905.65"/><polygon class="cls-4" points="1215.54 1027.89 1230.99 1030.79 1244.93 1028.1 1230.99 1024.03 1215.54 1027.89"/><polygon class="cls-4" points="1230.51 1010.65 1227.61 1026.1 1230.51 1043.49 1234.38 1026.1 1230.51 1010.65"/><polygon class="cls-3" points="836.54 899.89 852 902.79 865.93 900.1 852 896.03 836.54 899.89"/><polygon class="cls-3" points="851.51 882.65 848.61 898.1 851.51 915.49 855.38 898.1 851.51 882.65"/><polygon class="cls-4" points="604.54 975.89 620 978.79 633.93 976.1 620 972.03 604.54 975.89"/><polygon class="cls-4" points="619.51 958.65 616.61 974.1 619.51 991.49 623.38 974.1 619.51 958.65"/><polygon class="cls-4" points="289.54 840.89 305 843.79 318.93 841.1 305 837.03 289.54 840.89"/><polygon class="cls-4" points="304.51 823.65 301.61 839.1 304.51 856.49 308.38 839.1 304.51 823.65"/><polygon class="cls-4" points="145.54 733.89 161 736.79 174.93 734.1 161 730.03 145.54 733.89"/><polygon class="cls-4" points="160.51 716.65 157.61 732.1 160.51 749.49 164.38 732.1 160.51 716.65"/><circle class="cls-4" cx="1021.76" cy="761.84" r="2.76"/><circle class="cls-4" cx="1134.76" cy="854.84" r="2.76"/><circle class="cls-4" cx="1645.76" cy="908.84" r="2.76"/><circle class="cls-4" cx="1364.76" cy="965.84" r="2.76"/><circle class="cls-4" cx="1003.76" cy="1019.84" r="2.76"/><circle class="cls-4" cx="991.76" cy="871.84" r="2.76"/><circle class="cls-4" cx="747.76" cy="956.84" r="2.76"/><circle class="cls-3" cx="397.76" cy="955.84" r="2.76"/><circle class="cls-4" cx="16.76" cy="883.84" r="2.76"/><circle class="cls-4" cx="583.76" cy="837.84" r="2.76"/><polygon class="cls-4" points="1152.23 928.77 1143.9 927.21 1136.39 928.66 1143.9 930.85 1152.23 928.77"/><polygon class="cls-4" points="1144.16 938.06 1145.72 929.73 1144.16 920.36 1142.08 929.73 1144.16 938.06"/><polygon class="cls-4" points="724.23 725.77 715.9 724.21 708.39 725.66 715.9 727.85 724.23 725.77"/><polygon class="cls-4" points="716.16 735.06 717.72 726.73 716.16 717.36 714.08 726.73 716.16 735.06"/><polygon class="cls-4" points="891.23 767.77 882.9 766.21 875.39 767.66 882.9 769.85 891.23 767.77"/><polygon class="cls-4" points="883.16 777.06 884.72 768.73 883.16 759.36 881.08 768.73 883.16 777.06"/><polygon class="cls-4" points="441.23 688.77 432.9 687.21 425.39 688.66 432.9 690.85 441.23 688.77"/><polygon class="cls-4" points="433.16 698.06 434.72 689.73 433.16 680.36 431.08 689.73 433.16 698.06"/><polygon class="cls-4" points="1373.23 683.77 1364.9 682.21 1357.39 683.66 1364.9 685.85 1373.23 683.77"/><polygon class="cls-4" points="1365.16 693.06 1366.72 684.73 1365.16 675.36 1363.08 684.73 1365.16 693.06"/><polygon class="cls-4" points="1263.23 808.77 1254.9 807.21 1247.39 808.66 1254.9 810.85 1263.23 808.77"/><polygon class="cls-4" points="1255.16 818.06 1256.72 809.73 1255.16 800.36 1253.08 809.73 1255.16 818.06"/><polygon class="cls-4" points="1735.23 684.77 1726.9 683.21 1719.39 684.66 1726.9 686.85 1735.23 684.77"/><polygon class="cls-4" points="1727.16 694.06 1728.72 685.73 1727.16 676.36 1725.08 685.73 1727.16 694.06"/><polygon class="cls-4" points="1810.23 773.77 1801.9 772.21 1794.39 773.66 1801.9 775.85 1810.23 773.77"/><polygon class="cls-4" points="1802.16 783.06 1803.72 774.73 1802.16 765.36 1800.08 774.73 1802.16 783.06"/><polygon class="cls-4" points="1533.23 768.77 1524.9 767.21 1517.39 768.66 1524.9 770.85 1533.23 768.77"/><polygon class="cls-4" points="1525.16 778.06 1526.72 769.73 1525.16 760.36 1523.08 769.73 1525.16 778.06"/><polygon class="cls-3" points="104.23 970.77 95.9 969.21 88.39 970.66 95.9 972.85 104.23 970.77"/><polygon class="cls-3" points="96.16 980.06 97.72 971.73 96.16 962.36 94.08 971.73 96.16 980.06"/><polygon class="cls-4" points="260.23 1051.77 251.9 1050.21 244.39 1051.66 251.9 1053.85 260.23 1051.77"/><polygon class="cls-4" points="252.16 1061.06 253.72 1052.73 252.16 1043.36 250.08 1052.73 252.16 1061.06"/><polygon class="cls-3" points="1262 417.35 1277.46 420.25 1291.39 417.56 1277.46 413.49 1262 417.35"/><polygon class="cls-3" points="1276.97 400.11 1274.08 415.56 1276.97 432.95 1280.84 415.56 1276.97 400.11"/><polygon class="cls-5" points="551 658.35 566.46 661.25 580.39 658.55 566.46 654.49 551 658.35"/><polygon class="cls-5" points="565.97 641.11 563.08 656.56 565.97 673.95 569.84 656.56 565.97 641.11"/><polygon class="cls-5" points="362 408.35 377.46 411.25 391.39 408.56 377.46 404.49 362 408.35"/><polygon class="cls-5" points="376.97 391.11 374.07 406.56 376.97 423.95 380.84 406.56 376.97 391.11"/><polygon class="cls-5" points="0 452.35 15.46 455.25 29.39 452.56 15.46 448.49 0 452.35"/><polygon class="cls-5" points="14.97 435.11 12.07 450.56 14.97 467.95 18.84 450.56 14.97 435.11"/><polygon class="cls-5" points="257 622.35 272.46 625.25 286.39 622.55 272.46 618.49 257 622.35"/><polygon class="cls-5" points="271.97 605.11 269.07 620.56 271.97 637.95 275.84 620.56 271.97 605.11"/><polygon class="cls-5" points="1547 609.35 1562.46 612.25 1576.39 609.55 1562.46 605.49 1547 609.35"/><polygon class="cls-5" points="1561.97 592.11 1559.08 607.56 1561.97 624.95 1565.84 607.56 1561.97 592.11"/><polygon class="cls-5" points="1100 742.35 1115.46 745.25 1129.39 742.55 1115.46 738.49 1100 742.35"/><polygon class="cls-5" points="1114.97 725.11 1112.08 740.56 1114.97 757.95 1118.84 740.56 1114.97 725.11"/><polygon class="cls-3" points="1797 426.35 1812.46 429.25 1826.39 426.56 1812.46 422.49 1797 426.35"/><polygon class="cls-3" points="1811.97 409.11 1809.08 424.56 1811.97 441.95 1815.84 424.56 1811.97 409.11"/><polygon class="cls-5" points="753.23 571.77 744.9 570.21 737.39 571.66 744.9 573.85 753.23 571.77"/><polygon class="cls-5" points="745.16 581.06 746.72 572.73 745.16 563.36 743.08 572.73 745.16 581.06"/><polygon class="cls-5" points="1224.23 495.77 1215.9 494.21 1208.39 495.66 1215.9 497.85 1224.23 495.77"/><polygon class="cls-5" points="1216.16 505.06 1217.72 496.73 1216.16 487.36 1214.08 496.73 1216.16 505.06"/><polygon class="cls-5" points="958.23 632.77 949.9 631.21 942.39 632.66 949.9 634.85 958.23 632.77"/><polygon class="cls-5" points="950.16 642.06 951.72 633.73 950.16 624.36 948.08 633.73 950.16 642.06"/><polygon class="cls-5" points="594.23 439.77 585.9 438.21 578.39 439.66 585.9 441.85 594.23 439.77"/><polygon class="cls-5" points="586.16 449.06 587.72 440.73 586.16 431.36 584.08 440.73 586.16 449.06"/><polygon class="cls-5" points="1614.23 464.77 1605.9 463.21 1598.39 464.66 1605.9 466.85 1614.23 464.77"/><polygon class="cls-5" points="1606.16 474.06 1607.72 465.73 1606.16 456.36 1604.08 465.73 1606.16 474.06"/><polygon class="cls-5" points="1213.23 609.77 1204.9 608.21 1197.39 609.66 1204.9 611.85 1213.23 609.77"/><polygon class="cls-5" points="1205.16 619.06 1206.72 610.73 1205.16 601.36 1203.08 610.73 1205.16 619.06"/><polygon class="cls-3" points="77.23 562.77 68.9 561.21 61.39 562.66 68.9 564.85 77.23 562.77"/><polygon class="cls-3" points="69.16 572.06 70.72 563.73 69.16 554.36 67.08 563.73 69.16 572.06"/><circle class="cls-5" cx="454.44" cy="508.63" r="2.76"/><circle class="cls-5" cx="819.44" cy="665.63" r="2.76"/><circle class="cls-5" cx="1079.44" cy="502.63" r="2.76"/><circle class="cls-5" cx="103.44" cy="385.63" r="2.76"/><circle class="cls-5" cx="207.44" cy="494.63" r="2.76"/><circle class="cls-5" cx="715.44" cy="381.63" r="2.76"/><circle class="cls-5" cx="1374.44" cy="585.63" r="2.76"/><circle class="cls-5" cx="1443.44" cy="352.63" r="2.76"/><circle class="cls-5" cx="1796.44" cy="540.63" r="2.76"/><circle class="cls-5" cx="624.44" cy="505.63" r="2.76"/><circle class="cls-3" cx="1485.76" cy="1016.84" r="2.76"/><circle class="cls-3" cx="318.76" cy="499.84" r="2.76"/><circle class="cls-3" cx="1692.76" cy="773.84" r="2.76"/><circle class="cls-3" cx="147.76" cy="855.84" r="2.76"/><polygon class="cls-5" points="858.54 491.35 874 494.25 887.94 491.56 874 487.49 858.54 491.35"/><polygon class="cls-5" points="873.52 474.11 870.62 489.56 873.52 506.95 877.38 489.56 873.52 474.11"/><circle class="cls-3" cx="549.76" cy="585.84" r="2.76"/><circle class="cls-3" cx="1385.76" cy="792.84" r="2.76"/><circle class="cls-3" cx="1452.76" cy="490.84" r="2.76"/><polygon class="cls-3" points="1084.65 384.11 1092.98 385.67 1100.49 384.21 1092.98 382.02 1084.65 384.11"/><polygon class="cls-3" points="1092.72 374.81 1091.16 383.14 1092.72 392.51 1094.8 383.14 1092.72 374.81"/></g></g></g></svg>