<svg xmlns="http://www.w3.org/2000/svg" viewBox="0 0 1860.22 3781.21"><defs><style>.cls-1{fill:#1595e5;}.cls-2{fill:#dce3ff;}.cls-3{fill:#8934ec;}.cls-4{fill:#3055c3;}</style></defs><title>LittleStars</title><g id="Layer_2" data-name="Layer 2"><g id="Background"><g id="LittleStars"><polygon class="cls-1" points="1823.24 36.78 1838.7 39.68 1852.64 36.98 1838.7 32.92 1823.24 36.78"/><polygon class="cls-1" points="1838.21 19.54 1835.32 34.99 1838.21 52.38 1842.08 34.99 1838.21 19.54"/><polygon class="cls-1" points="1756.16 46.29 1764.49 47.85 1772 46.4 1764.49 44.21 1756.16 46.29"/><polygon class="cls-1" points="1764.23 36.99 1762.67 45.33 1764.23 54.7 1766.31 45.33 1764.23 36.99"/><polygon class="cls-2" points="1613.73 36.18 1622.06 37.74 1629.57 36.29 1622.06 34.1 1613.73 36.18"/><polygon class="cls-2" points="1621.8 26.89 1620.24 35.22 1621.8 44.59 1623.88 35.22 1621.8 26.89"/><polygon class="cls-1" points="1844.38 150.13 1852.71 151.69 1860.22 150.24 1852.71 148.04 1844.38 150.13"/><polygon class="cls-1" points="1852.45 140.83 1850.88 149.16 1852.45 158.53 1854.53 149.16 1852.45 140.83"/><polygon class="cls-1" points="1567.52 475.46 1582.97 478.36 1596.91 475.66 1582.97 471.59 1567.52 475.46"/><polygon class="cls-1" points="1582.49 458.21 1579.59 473.67 1582.49 491.05 1586.35 473.67 1582.49 458.21"/><polygon class="cls-1" points="1341.38 46.54 1356.83 49.44 1370.77 46.74 1356.83 42.67 1341.38 46.54"/><polygon class="cls-1" points="1356.35 29.29 1353.45 44.75 1356.35 62.13 1360.21 44.75 1356.35 29.29"/><polygon class="cls-2" points="709.49 859.61 717.82 861.18 725.33 859.72 717.82 857.53 709.49 859.61"/><polygon class="cls-2" points="717.56 850.32 716 858.65 717.56 868.02 719.64 858.65 717.56 850.32"/><polygon class="cls-1" points="1331.33 667.7 1346.78 670.6 1360.72 667.9 1346.78 663.84 1331.33 667.7"/><polygon class="cls-1" points="1346.3 650.45 1343.4 665.91 1346.3 683.3 1350.16 665.91 1346.3 650.45"/><polygon class="cls-2" points="1228.65 143.83 1236.98 145.39 1244.49 143.94 1236.98 141.75 1228.65 143.83"/><polygon class="cls-2" points="1236.72 134.53 1235.16 142.87 1236.72 152.24 1238.8 142.87 1236.72 134.53"/><polygon class="cls-1" points="340.22 1554.64 348.55 1556.2 356.06 1554.75 348.55 1552.56 340.22 1554.64"/><polygon class="cls-1" points="348.29 1545.35 346.73 1553.67 348.29 1563.05 350.37 1553.67 348.29 1545.35"/><polygon class="cls-1" points="1333.79 1203.83 1342.12 1205.39 1349.63 1203.94 1342.12 1201.75 1333.79 1203.83"/><polygon class="cls-1" points="1341.86 1194.54 1340.3 1202.87 1341.86 1212.24 1343.94 1202.87 1341.86 1194.54"/><polygon class="cls-1" points="1144.89 266.96 1153.22 268.53 1160.74 267.07 1153.22 264.88 1144.89 266.96"/><polygon class="cls-1" points="1152.96 257.67 1151.4 266 1152.96 275.37 1155.05 266 1152.96 257.67"/><polygon class="cls-1" points="709.81 153.1 718.14 154.66 725.66 153.21 718.14 151.02 709.81 153.1"/><polygon class="cls-1" points="717.88 143.81 716.32 152.14 717.88 161.51 719.97 152.14 717.88 143.81"/><polygon class="cls-1" points="1674 1142.08 1689.46 1144.97 1703.39 1142.28 1689.46 1138.21 1674 1142.08"/><polygon class="cls-1" points="1688.97 1124.83 1686.08 1140.29 1688.97 1157.67 1692.84 1140.29 1688.97 1124.83"/><polygon class="cls-1" points="1808.54 276.62 1823.99 279.51 1837.93 276.82 1823.99 272.75 1808.54 276.62"/><polygon class="cls-1" points="1823.51 259.37 1820.61 274.83 1823.51 292.21 1827.38 274.83 1823.51 259.37"/><polygon class="cls-1" points="44.03 76.43 59.49 79.33 73.43 76.63 59.49 72.57 44.03 76.43"/><polygon class="cls-1" points="59.01 59.18 56.11 74.64 59.01 92.03 62.87 74.64 59.01 59.18"/><polygon class="cls-1" points="1130.06 958.27 1145.51 961.16 1159.45 958.47 1145.51 954.4 1130.06 958.27"/><polygon class="cls-1" points="1145.03 941.02 1142.13 956.48 1145.03 973.86 1148.89 956.48 1145.03 941.02"/><circle class="cls-1" cx="1370.73" cy="440.22" r="5.97"/><circle class="cls-1" cx="1766.49" cy="161.73" r="2.76"/><circle class="cls-1" cx="1694.82" cy="194.81" r="2.76"/><circle class="cls-1" cx="1281.82" cy="213.05" r="2.76"/><circle class="cls-1" cx="939.76" cy="519.57" r="2.76"/><polygon class="cls-1" points="644.23 496.49 635.9 494.93 628.39 496.38 635.9 498.57 644.23 496.49"/><polygon class="cls-1" points="636.16 505.79 637.72 497.46 636.16 488.09 634.08 497.46 636.16 505.79"/><circle class="cls-1" cx="285.01" cy="72.73" r="2.76"/><circle class="cls-1" cx="476.44" cy="566.35" r="2.76"/><circle class="cls-1" cx="479.14" cy="1063.49" r="2.76"/><circle class="cls-1" cx="565.28" cy="40.57" r="2.76"/><polygon class="cls-2" points="854.52 38.16 862.85 39.72 870.36 38.26 862.85 36.07 854.52 38.16"/><polygon class="cls-2" points="862.59 28.86 861.02 37.19 862.59 46.56 864.67 37.19 862.59 28.86"/><polygon class="cls-2" points="224.38 363.26 232.72 364.82 240.23 363.37 232.72 361.18 224.38 363.26"/><polygon class="cls-2" points="232.45 353.97 230.89 362.3 232.45 371.67 234.54 362.3 232.45 353.97"/><polygon class="cls-1" points="179.76 647.56 188.09 649.12 195.61 647.67 188.09 645.48 179.76 647.56"/><polygon class="cls-1" points="187.83 638.26 186.27 646.59 187.83 655.97 189.91 646.59 187.83 638.26"/><polygon class="cls-1" points="1689.08 113.78 1697.41 115.34 1704.92 113.89 1697.41 111.69 1689.08 113.78"/><polygon class="cls-1" points="1697.15 104.48 1695.59 112.81 1697.15 122.18 1699.23 112.81 1697.15 104.48"/><circle class="cls-1" cx="873.12" cy="112.24" r="2.76"/><circle class="cls-1" cx="942.03" cy="16.68" r="2.76"/><circle class="cls-1" cx="264.79" cy="188.51" r="2.76"/><circle class="cls-1" cx="1509.19" cy="2.76" r="2.76"/><polygon class="cls-1" points="1420.65 166.83 1428.98 168.39 1436.49 166.94 1428.98 164.75 1420.65 166.83"/><polygon class="cls-1" points="1428.72 157.53 1427.16 165.87 1428.72 175.24 1430.8 165.87 1428.72 157.53"/><polygon class="cls-2" points="1810.54 3733.62 1825.99 3736.51 1839.93 3733.82 1825.99 3729.75 1810.54 3733.62"/><polygon class="cls-2" points="1825.51 3716.37 1822.61 3731.83 1825.51 3749.22 1829.38 3731.83 1825.51 3716.37"/><polygon class="cls-3" points="1311.54 3765.62 1326.99 3768.51 1340.93 3765.82 1326.99 3761.75 1311.54 3765.62"/><polygon class="cls-3" points="1326.51 3748.37 1323.61 3763.83 1326.51 3781.22 1330.38 3763.83 1326.51 3748.37"/><circle class="cls-3" cx="1451.76" cy="2687.57" r="2.76"/><circle class="cls-3" cx="963.76" cy="3552.57" r="2.76"/><circle class="cls-3" cx="1665.76" cy="3527.57" r="2.76"/><circle class="cls-3" cx="1384.76" cy="3584.57" r="2.76"/><circle class="cls-3" cx="1131.76" cy="3679.57" r="2.76"/><circle class="cls-3" cx="993.76" cy="3269.57" r="2.76"/><circle class="cls-2" cx="417.76" cy="3574.57" r="2.76"/><circle class="cls-3" cx="36.76" cy="3502.57" r="2.76"/><circle class="cls-3" cx="745.76" cy="3397.57" r="2.76"/><polygon class="cls-3" points="1075.23 3305.49 1066.9 3303.93 1059.39 3305.38 1066.9 3307.57 1075.23 3305.49"/><polygon class="cls-3" points="1067.16 3314.79 1068.72 3306.46 1067.16 3297.09 1065.08 3306.46 1067.16 3314.79"/><polygon class="cls-3" points="580.23 1844.49 571.9 1842.93 564.39 1844.38 571.9 1846.58 580.23 1844.49"/><polygon class="cls-3" points="572.16 1853.79 573.72 1845.46 572.16 1836.09 570.08 1845.46 572.16 1853.79"/><polygon class="cls-3" points="1390.23 3190.49 1381.9 3188.93 1374.39 3190.38 1381.9 3192.57 1390.23 3190.49"/><polygon class="cls-3" points="1382.16 3199.79 1383.72 3191.46 1382.16 3182.09 1380.08 3191.46 1382.16 3199.79"/><polygon class="cls-3" points="951.23 2151.49 942.9 2149.93 935.39 2151.38 942.9 2153.57 951.23 2151.49"/><polygon class="cls-3" points="943.16 2160.79 944.72 2152.46 943.16 2143.09 941.08 2152.46 943.16 2160.79"/><polygon class="cls-3" points="1107.23 2440.49 1098.9 2438.93 1091.39 2440.38 1098.9 2442.57 1107.23 2440.49"/><polygon class="cls-3" points="1099.16 2449.79 1100.72 2441.46 1099.16 2432.09 1097.08 2441.46 1099.16 2449.79"/><polygon class="cls-3" points="1283.23 3427.49 1274.9 3425.93 1267.39 3427.38 1274.9 3429.57 1283.23 3427.49"/><polygon class="cls-3" points="1275.16 3436.79 1276.72 3428.46 1275.16 3419.09 1273.08 3428.46 1275.16 3436.79"/><polygon class="cls-3" points="1755.23 3303.49 1746.9 3301.93 1739.39 3303.38 1746.9 3305.57 1755.23 3303.49"/><polygon class="cls-3" points="1747.16 3312.79 1748.72 3304.46 1747.16 3295.09 1745.08 3304.46 1747.16 3312.79"/><polygon class="cls-3" points="1852.23 3436.49 1843.9 3434.93 1836.39 3436.38 1843.9 3438.57 1852.23 3436.49"/><polygon class="cls-3" points="1844.16 3445.79 1845.72 3437.46 1844.16 3428.09 1842.08 3437.46 1844.16 3445.79"/><polygon class="cls-3" points="1813.23 1835.49 1804.9 1833.93 1797.39 1835.38 1804.9 1837.58 1813.23 1835.49"/><polygon class="cls-3" points="1805.16 1844.79 1806.72 1836.46 1805.16 1827.09 1803.08 1836.46 1805.16 1844.79"/><polygon class="cls-2" points="63.23 3723.49 54.9 3721.93 47.39 3723.38 54.9 3725.57 63.23 3723.49"/><polygon class="cls-2" points="55.16 3732.79 56.72 3724.46 55.16 3715.09 53.08 3724.46 55.16 3732.79"/><polygon class="cls-3" points="280.23 3670.49 271.9 3668.93 264.39 3670.38 271.9 3672.57 280.23 3670.49"/><polygon class="cls-3" points="272.16 3679.79 273.72 3671.46 272.16 3662.09 270.08 3671.46 272.16 3679.79"/><polygon class="cls-2" points="1753 1586.08 1768.46 1588.97 1782.39 1586.28 1768.46 1582.21 1753 1586.08"/><polygon class="cls-2" points="1767.97 1568.83 1765.08 1584.29 1767.97 1601.67 1771.84 1584.29 1767.97 1568.83"/><polygon class="cls-4" points="362 399.08 377.46 401.98 391.39 399.28 377.46 395.21 362 399.08"/><polygon class="cls-4" points="376.97 381.83 374.07 397.29 376.97 414.67 380.84 397.29 376.97 381.83"/><polygon class="cls-4" points="0 443.08 15.46 445.98 29.39 443.28 15.46 439.21 0 443.08"/><polygon class="cls-4" points="14.97 425.83 12.07 441.29 14.97 458.67 18.84 441.29 14.97 425.83"/><polygon class="cls-2" points="1797 417.08 1812.46 419.98 1826.39 417.28 1812.46 413.21 1797 417.08"/><polygon class="cls-2" points="1811.97 399.83 1809.08 415.29 1811.97 432.67 1815.84 415.29 1811.97 399.83"/><polygon class="cls-3" points="55.23 2241.49 46.9 2239.93 39.39 2241.38 46.9 2243.57 55.23 2241.49"/><polygon class="cls-3" points="47.16 2250.79 48.72 2242.46 47.16 2233.09 45.08 2242.46 47.16 2250.79"/><polygon class="cls-3" points="1604.23 2909.49 1595.9 2907.93 1588.39 2909.38 1595.9 2911.57 1604.23 2909.49"/><polygon class="cls-3" points="1596.16 2918.79 1597.72 2910.46 1596.16 2901.09 1594.08 2910.46 1596.16 2918.79"/><polygon class="cls-3" points="1147.23 2695.49 1138.9 2693.93 1131.39 2695.38 1138.9 2697.57 1147.23 2695.49"/><polygon class="cls-3" points="1139.16 2704.79 1140.72 2696.46 1139.16 2687.09 1137.08 2696.46 1139.16 2704.79"/><polygon class="cls-4" points="594.23 430.49 585.9 428.93 578.39 430.38 585.9 432.57 594.23 430.49"/><polygon class="cls-4" points="586.16 439.79 587.72 431.46 586.16 422.09 584.08 431.46 586.16 439.79"/><polygon class="cls-4" points="1614.23 455.49 1605.9 453.93 1598.39 455.38 1605.9 457.57 1614.23 455.49"/><polygon class="cls-4" points="1606.16 464.79 1607.72 456.46 1606.16 447.09 1604.08 456.46 1606.16 464.79"/><polygon class="cls-3" points="668.23 2645.49 659.9 2643.93 652.39 2645.38 659.9 2647.57 668.23 2645.49"/><polygon class="cls-3" points="660.16 2654.79 661.72 2646.46 660.16 2637.09 658.08 2646.46 660.16 2654.79"/><polygon class="cls-2" points="97.23 3181.49 88.9 3179.93 81.39 3181.38 88.9 3183.57 97.23 3181.49"/><polygon class="cls-2" points="89.16 3190.79 90.72 3182.46 89.16 3173.09 87.08 3182.46 89.16 3190.79"/><circle class="cls-3" cx="461.44" cy="3061.35" r="2.76"/><circle class="cls-3" cx="966.44" cy="3060.35" r="2.76"/><circle class="cls-3" cx="1537.44" cy="1894.35" r="2.76"/><circle class="cls-4" cx="103.44" cy="376.35" r="2.76"/><circle class="cls-4" cx="207.44" cy="485.35" r="2.76"/><circle class="cls-4" cx="715.44" cy="372.35" r="2.76"/><circle class="cls-3" cx="1226.44" cy="2929.35" r="2.76"/><circle class="cls-4" cx="1443.44" cy="343.35" r="2.76"/><circle class="cls-3" cx="1816.44" cy="3159.35" r="2.76"/><circle class="cls-3" cx="836.44" cy="2842.35" r="2.76"/><circle class="cls-2" cx="1598.76" cy="3726.57" r="2.76"/><circle class="cls-2" cx="338.76" cy="2926.57" r="2.76"/><circle class="cls-2" cx="1601.76" cy="2138.57" r="2.76"/><circle class="cls-2" cx="167.76" cy="3474.57" r="2.76"/><circle class="cls-2" cx="620.76" cy="3258.57" r="2.76"/><circle class="cls-2" cx="1282.76" cy="2129.57" r="2.76"/><circle class="cls-2" cx="1598.76" cy="839.57" r="2.76"/><polygon class="cls-2" points="711.65 2263.83 719.98 2265.39 727.49 2263.94 719.98 2261.75 711.65 2263.83"/><polygon class="cls-2" points="719.72 2254.53 718.16 2262.86 719.72 2272.24 721.8 2262.86 719.72 2254.53"/><polygon class="cls-3" points="422.41 2042.12 430.74 2043.68 438.25 2042.22 430.74 2040.03 422.41 2042.12"/><polygon class="cls-3" points="430.48 2032.82 428.92 2041.15 430.48 2050.52 432.56 2041.15 430.48 2032.82"/><polygon class="cls-3" points="257.23 2628.73 265.56 2630.29 273.07 2628.84 265.56 2626.65 257.23 2628.73"/><polygon class="cls-3" points="265.3 2619.44 263.74 2627.77 265.3 2637.14 267.38 2627.77 265.3 2619.44"/><polygon class="cls-3" points="1350.02 1462.89 1341.69 1461.33 1334.18 1462.78 1341.69 1464.97 1350.02 1462.89"/><polygon class="cls-3" points="1341.95 1472.18 1343.51 1463.85 1341.95 1454.48 1339.87 1463.85 1341.95 1472.18"/><polygon class="cls-1" points="1517.61 1601.73 1525.93 1603.29 1533.45 1601.84 1525.93 1599.64 1517.61 1601.73"/><polygon class="cls-1" points="1525.67 1592.43 1524.11 1600.76 1525.67 1610.13 1527.76 1600.76 1525.67 1592.43"/></g></g></g></svg>