<svg xmlns="http://www.w3.org/2000/svg" viewBox="0 0 90.27 90.27"><defs><style>.cls-1{fill:#dee3ec;}</style></defs><g id="Layer_2" data-name="Layer 2"><g id="Layer_1-2" data-name="Layer 1"><path class="cls-1" d="M28.25,27.6c-2.45,0-4.53.07-5.18.14v15c1.29.07,2.16.07,4.32.07,6,0,10.66-1.73,10.66-7.7C38.05,30.55,34.8,27.6,28.25,27.6Z"/><path class="cls-1" d="M78.27,0H12A12,12,0,0,0,0,12V78.27a12,12,0,0,0,12,12H78.27a12,12,0,0,0,12-12V12A12,12,0,0,0,78.27,0ZM27.53,51.65H23.07v14c0,.43-.15.65-.58.65h-9a.53.53,0,0,1-.57-.58V19.61c0-.36.14-.58.5-.58,2.88-.07,8.93-.22,14.62-.22,15.05,0,20,8.36,20,16.06C48.05,46.68,38.84,51.65,27.53,51.65ZM65.69,67.06c-4.53,0-8.49-.79-10.8-2a.86.86,0,0,1-.5-.86V56.4c0-.43.28-.65.57-.43a21.91,21.91,0,0,0,10.95,3C69.44,59,71,58,71,56.4c0-1.37-1.3-2.38-5.54-3.82-8.57-3-11.31-6.48-11.31-11.66,0-5.62,4.47-11.09,14.4-11.09,4.32,0,7.78.58,9.65,1.44a1,1,0,0,1,.5,1v7.2c0,.43-.28.72-.72.5a23.78,23.78,0,0,0-9.64-2.16c-3.46,0-4.68,1.23-4.68,2.45s1.08,2.16,5.25,3.67c9.07,3.1,12,6.48,12,11.74C80.89,62.38,75.63,67.06,65.69,67.06Z"/></g></g></svg>