<svg xmlns="http://www.w3.org/2000/svg" xmlns:xlink="http://www.w3.org/1999/xlink" viewBox="0 0 408.73 293.75"><defs><style>.cls-1{isolation:isolate;}.cls-2{fill:#ffeddc;}.cls-3{mix-blend-mode:hard-light;fill:url(#radial-gradient);}.cls-4{fill:none;}.cls-5{fill:url(#radial-gradient-2);}.cls-6{fill:url(#radial-gradient-3);}</style><radialGradient id="radial-gradient" cx="124.35" cy="76.74" r="187.66" gradientUnits="userSpaceOnUse"><stop offset="0" stop-color="#a67c52" stop-opacity="0.7"/><stop offset="0.2" stop-color="#9c7249" stop-opacity="0.69"/><stop offset="0.53" stop-color="#7f562f" stop-opacity="0.64"/><stop offset="0.82" stop-color="#603813" stop-opacity="0.6"/><stop offset="1" stop-color="#230c08" stop-opacity="0.8"/></radialGradient><radialGradient id="radial-gradient-2" cx="204.37" cy="146.88" r="177.96" gradientUnits="userSpaceOnUse"><stop offset="0" stop-color="#ffb800"/><stop offset="0.18" stop-color="#fcb200"/><stop offset="0.43" stop-color="#f2a100"/><stop offset="0.71" stop-color="#e38500"/><stop offset="0.98" stop-color="#d16300"/></radialGradient><radialGradient id="radial-gradient-3" cx="208.15" cy="145.81" r="137.07" gradientUnits="userSpaceOnUse"><stop offset="0" stop-color="#a67c52"/><stop offset="1" stop-color="#720b20"/></radialGradient></defs><title>saturn</title><g class="cls-1"><g id="Layer_2" data-name="Layer 2"><g id="Layer_10" data-name="Layer 10"><ellipse class="cls-2" cx="202.84" cy="146.03" rx="117.21" ry="115.05"/><ellipse class="cls-3" cx="202.84" cy="146.03" rx="117.21" ry="115.05"/><path class="cls-4" d="M317.5,169.9c.08-.31.15-.55.17-.68A113.66,113.66,0,0,0,320.05,146c0-63.54-52.47-115-117.21-115A118.22,118.22,0,0,0,141.9,47.74l-.11.06c28.63,16,59.74,35.37,91.52,57.5C264.46,127,293,149,317.5,169.9Z"/><path class="cls-5" d="M317.5,169.9c-.24.91-.7,2.53-1.27,4.49,45.89,39.79,71.88,73.62,63.23,86.44-13,19.28-99.42-16.28-193-79.43S27.51,51.43,40.52,32.16c8.06-11.95,44.34-2.82,93,20.88,4.05-2.6,7.24-4.64,8.23-5.24C69.78,7.7,13.53-10.38,2.09,6.05c-16,23,61.61,104.63,173.33,182.41S390.66,310.67,406.65,287.7C418.18,271.14,381,224.05,317.5,169.9Z"/><path class="cls-6" d="M51.71,36.9c-11.07,15.89,50,77.54,136.4,137.69s165.41,96,176.47,80.14c6.84-9.83-13.9-37.15-51.15-70.8-.39,1.31-.75,2.53-1.05,3.58,15.58,16.71,23.09,29.6,19.16,35.25-8.65,12.43-69.54-15-136-61.25S82.27,67.67,90.93,55.24c3.56-5.12,15.95-3.49,33.93,3.42l3.44-2.23C87.69,36,58.16,27.64,51.71,36.9Z"/></g></g></g></svg>