<svg xmlns="http://www.w3.org/2000/svg" viewBox="0 0 1816.26 331.04"><defs><style>.cls-1{opacity:0.46;}.cls-2{fill:#dce3ff;}.cls-3{fill:#8934ec;}</style></defs><g id="Layer_2" data-name="Layer 2"><g id="TopBottomNames"><g id="TopName"><g id="_1stTextGroup" data-name="1stTextGroup"><g class="cls-1"><polygon class="cls-2" points="385.79 23.53 396.71 25.48 406.55 23.66 396.71 20.93 385.79 23.53"/><polygon class="cls-2" points="396.37 11.92 394.32 22.32 396.37 34.02 399.1 22.32 396.37 11.92"/><polygon class="cls-2" points="338.42 29.93 344.3 30.98 349.61 30 344.3 28.52 338.42 29.93"/><polygon class="cls-2" points="344.12 23.67 343.01 29.28 344.12 35.59 345.59 29.28 344.12 23.67"/><polygon class="cls-2" points="237.82 23.12 243.71 24.17 249.01 23.2 243.71 21.72 237.82 23.12"/><polygon class="cls-2" points="243.52 16.86 242.42 22.47 243.52 28.78 244.99 22.47 243.52 16.86"/><polygon class="cls-2" points="400.72 99.82 406.6 100.87 411.91 99.89 406.6 98.42 400.72 99.82"/><polygon class="cls-2" points="406.42 93.56 405.32 99.17 406.42 105.48 407.89 99.17 406.42 93.56"/><polygon class="cls-2" points="45.47 30.09 56.38 32.04 66.23 30.23 56.38 27.49 45.47 30.09"/><polygon class="cls-2" points="56.04 18.48 54 28.89 56.04 40.59 58.77 28.89 56.04 18.48"/><polygon class="cls-2" points="195.64 173.83 206.55 175.78 216.4 173.97 206.55 171.23 195.64 173.83"/><polygon class="cls-2" points="206.21 162.22 204.16 172.63 206.21 184.33 208.94 172.63 206.21 162.22"/><polygon class="cls-2" points="375.41 184.97 386.33 186.92 396.17 185.1 386.33 182.37 375.41 184.97"/><polygon class="cls-2" points="385.99 173.36 383.94 183.76 385.99 195.47 388.71 183.76 385.99 173.36"/><ellipse class="cls-2" cx="93.04" cy="162.48" rx="4.22" ry="4.02"/><ellipse class="cls-2" cx="345.71" cy="107.63" rx="1.95" ry="1.86"/><ellipse class="cls-2" cx="295.09" cy="129.9" rx="1.95" ry="1.86"/><polygon class="cls-2" points="291.04 71.99 296.92 73.04 302.23 72.06 296.92 70.58 291.04 71.99"/><polygon class="cls-2" points="296.74 65.73 295.64 71.34 296.74 77.65 298.21 71.34 296.74 65.73"/><polygon class="cls-2" points="101.46 111.06 107.34 112.12 112.64 111.14 107.34 109.66 101.46 111.06"/><polygon class="cls-2" points="107.16 104.81 106.05 110.42 107.16 116.72 108.63 110.42 107.16 104.81"/><ellipse class="cls-2" cx="117.55" cy="229.89" rx="1.95" ry="1.86"/><polygon class="cls-2" points="77.69 285.57 88.61 287.52 98.45 285.71 88.61 282.97 77.69 285.57"/><polygon class="cls-2" points="88.26 273.96 86.22 284.37 88.26 296.07 90.99 284.37 88.26 273.96"/><ellipse class="cls-2" cx="521.8" cy="22.2" rx="1.95" ry="1.86"/><ellipse class="cls-2" cx="20.35" cy="102.3" rx="1.95" ry="1.86"/><polygon class="cls-2" points="444.76 134.19 450.64 135.24 455.95 134.26 450.64 132.79 444.76 134.19"/><polygon class="cls-2" points="450.46 127.93 449.36 133.54 450.46 139.85 451.93 133.54 450.46 127.93"/><ellipse class="cls-2" cx="451.88" cy="47.78" rx="1.95" ry="1.86"/><ellipse class="cls-2" cx="235.76" cy="279.33" rx="1.95" ry="1.86"/><polygon class="cls-2" points="0 184.6 10.92 186.55 20.76 184.74 10.92 182 0 184.6"/><polygon class="cls-2" points="10.57 172.99 8.53 183.4 10.57 195.1 13.3 183.4 10.57 172.99"/><polygon class="cls-2" points="7.17 320.54 18.09 322.49 27.93 320.67 18.09 317.94 7.17 320.54"/><polygon class="cls-2" points="17.75 308.93 15.7 319.33 17.75 331.04 20.48 319.33 17.75 308.93"/><polygon class="cls-2" points="161.03 11.61 171.94 13.56 181.79 11.74 171.94 9.01 161.03 11.61"/><polygon class="cls-2" points="171.6 0 169.56 10.4 171.6 22.11 174.33 10.4 171.6 0"/><polygon class="cls-2" points="196.15 125.44 202.03 126.49 207.34 125.51 202.03 124.03 196.15 125.44"/><polygon class="cls-2" points="201.85 119.18 200.75 124.79 201.85 131.1 203.32 124.79 201.85 119.18"/><polygon class="cls-2" points="477.25 6.97 483.13 8.02 488.44 7.04 483.13 5.57 477.25 6.97"/><polygon class="cls-2" points="482.95 0.71 481.84 6.32 482.95 12.63 484.42 6.32 482.95 0.71"/><polygon class="cls-2" points="164.37 251.31 170.25 252.36 175.56 251.38 170.25 249.91 164.37 251.31"/><polygon class="cls-2" points="170.07 245.06 168.97 250.66 170.07 256.97 171.54 250.66 170.07 245.06"/></g></g><ellipse class="cls-3" cx="1812.04" cy="11.48" rx="4.22" ry="4.02"/><ellipse class="cls-3" cx="1235.04" cy="220.48" rx="4.22" ry="4.02"/><ellipse class="cls-3" cx="1287.35" cy="2.3" rx="1.95" ry="1.86"/><ellipse class="cls-3" cx="1600.35" cy="120.3" rx="1.95" ry="1.86"/><polygon class="cls-3" points="1138.47 116.09 1149.38 118.04 1159.23 116.23 1149.38 113.49 1138.47 116.09"/><polygon class="cls-3" points="1149.04 104.48 1147 114.89 1149.04 126.59 1151.77 114.89 1149.04 104.48"/><polygon class="cls-3" points="1396.47 54.09 1407.38 56.04 1417.23 54.23 1407.38 51.49 1396.47 54.09"/><polygon class="cls-3" points="1407.04 42.48 1405 52.89 1407.04 64.59 1409.77 52.89 1407.04 42.48"/><polygon class="cls-3" points="686.47 192.09 697.38 194.04 707.23 192.23 697.38 189.49 686.47 192.09"/><polygon class="cls-3" points="697.04 180.48 695 190.89 697.04 202.59 699.77 190.89 697.04 180.48"/><polygon class="cls-3" points="850.47 61.09 861.38 63.04 871.23 61.23 861.38 58.49 850.47 61.09"/><polygon class="cls-3" points="861.04 49.48 859 59.89 861.04 71.59 863.77 59.89 861.04 49.48"/><polygon class="cls-3" points="1296.37 140.31 1302.25 141.36 1307.56 140.38 1302.25 138.91 1296.37 140.31"/><polygon class="cls-3" points="1302.07 134.06 1300.97 139.66 1302.07 145.97 1303.54 139.66 1302.07 134.06"/><polygon class="cls-3" points="860.37 253.31 866.25 254.36 871.56 253.38 866.25 251.91 860.37 253.31"/><polygon class="cls-3" points="866.07 247.06 864.97 252.66 866.07 258.97 867.54 252.66 866.07 247.06"/><polygon class="cls-3" points="368.37 281.31 374.25 282.36 379.56 281.38 374.25 279.91 368.37 281.31"/><polygon class="cls-3" points="374.07 275.06 372.97 280.66 374.07 286.97 375.54 280.66 374.07 275.06"/><polygon class="cls-3" points="535.37 158.31 541.25 159.36 546.56 158.38 541.25 156.91 535.37 158.31"/><polygon class="cls-3" points="541.07 152.06 539.97 157.66 541.07 163.97 542.54 157.66 541.07 152.06"/><polygon class="cls-3" points="621.37 21.31 627.25 22.36 632.56 21.39 627.25 19.91 621.37 21.31"/><polygon class="cls-3" points="627.07 15.05 625.97 20.66 627.07 26.97 628.54 20.66 627.07 15.05"/><polygon class="cls-3" points="952.37 137.31 958.25 138.36 963.56 137.38 958.25 135.91 952.37 137.31"/><polygon class="cls-3" points="958.07 131.06 956.97 136.66 958.07 142.97 959.54 136.66 958.07 131.06"/><polygon class="cls-3" points="1614.37 13.31 1620.25 14.36 1625.56 13.38 1620.25 11.91 1614.37 13.31"/><polygon class="cls-3" points="1620.07 7.05 1618.97 12.66 1620.07 18.97 1621.54 12.66 1620.07 7.05"/></g></g></g></svg>