<svg xmlns="http://www.w3.org/2000/svg" xmlns:xlink="http://www.w3.org/1999/xlink" viewBox="0 0 191.21 265.63"><defs><style>.cls-1{isolation:isolate;}.cls-2{fill:#90e4df;}.cls-3{fill:#004a91;opacity:0.33;}.cls-4{opacity:0.7;mix-blend-mode:hard-light;fill:url(#radial-gradient);}.cls-5{fill:#dce3ff;}</style><radialGradient id="radial-gradient" cx="26.92" cy="87.34" r="145.38" gradientUnits="userSpaceOnUse"><stop offset="0" stop-color="#84c6c6"/><stop offset="0.48" stop-color="#367ca7"/><stop offset="0.8" stop-color="#004892"/><stop offset="0.85" stop-color="#01458e"/><stop offset="0.9" stop-color="#053a84"/><stop offset="0.94" stop-color="#0c2872"/><stop offset="0.98" stop-color="#160f58"/><stop offset="1" stop-color="#1c0049"/></radialGradient></defs><title>uranus</title><g class="cls-1"><g id="Layer_2" data-name="Layer 2"><g id="Layer_11" data-name="Layer 11"><circle class="cls-2" cx="95.6" cy="135.13" r="95.6"/><path class="cls-3" d="M27.32,191.71c3.9-7.8,28.64-43.92,35.12-58.53C78.59,96.71,88.63,52.34,89.66,47.72c0,0-.11-8.2.09-8.2h7.81c3.9,3.91,1.44,23.63-19.52,78,0,0,41.61-66.45,42.93-74.14-.52-.93,11.9,2.82,11.71,3.9,0,0-35.12,66.34-42.93,82s-46.83,70.24-46.83,70.24,42.93-35.12,54.64-50.73c10.68-14.25,55.56-71,63.33-80.81a2.09,2.09,0,0,1,2.57-.36l6.75,7.6a2,2,0,0,1-.15,1.81c-7.31,9.11-76.61,95.38-80.31,99.07-3.9,3.91,7.81,0,11.71-3.9s71-77.42,74.14-81.95c3.73-5.35,7,5.45,7,5.45s-85,111.62-116.23,131.13C66.34,226.83,18.42,209.51,27.32,191.71Z"/><path class="cls-3" d="M93.65,230.73s39-42.92,50.73-58.53S189.05,113,189.05,113s2.16,10.56,2.16,18.37-62.44,91.58-62.44,91.58S124.87,230.73,93.65,230.73Z"/><path class="cls-3" d="M7.8,172.2s26.46-46.83,30.65-62.43,8.38-42.93,8.38-42.93S34.26,94.16,30.08,102,5,152.69,5,152.69,0,156.59,7.8,172.2Z"/><path class="cls-3" d="M132.87,222.09,189.05,153s0,15.13-16.2,38.89C150.79,224.19,132.87,222.09,132.87,222.09Z"/><circle class="cls-4" cx="95.6" cy="135.13" r="95.6"/><path class="cls-5" d="M25.35,199c-4.56,9.83-8.86,19.81-12.42,30.06-2.49,7.15-4.76,14.52-5.59,22.07-.45,4-.7,9.33,2.31,12.5,2.09,2.2,5.24,2.29,8,1.54,3.81-1,7.3-3.3,10.46-5.6A121.65,121.65,0,0,0,41.61,248c12.18-11.89,23.08-25.11,33.49-38.55,13.65-17.63,26.4-35.94,38.49-54.67,12.58-19.5,24.47-39.47,35.38-60a465.3,465.3,0,0,0,23.56-50.21A178.49,178.49,0,0,0,179,25.33,60.38,60.38,0,0,0,181.32,11c.05-3-.29-6.52-2.38-8.9-2.42-2.76-6.36-2.45-9.51-1.29-5.68,2.08-10.63,6.08-15.17,10a212.88,212.88,0,0,0-19.95,20c-3.78,4.23-7.45,8.56-11.06,12.94-1.22,1.48.89,3.61,2.12,2.12,6.77-8.22,13.78-16.28,21.29-23.84,5.29-5.32,10.83-10.59,17.07-14.78a31.5,31.5,0,0,1,6.5-3.53A13.4,13.4,0,0,1,172.94,3c-.27,0,.28,0,.33,0l.56,0,.53,0c.42,0,0,0,.36,0a3,3,0,0,1,1.53.66c.16.11-.21-.2.05,0l.3.28c.09.09.17.19.25.28s-.13-.23.11.14l.4.68c.07.14.14.28.2.42-.15-.33,0,.07.07.19a13.73,13.73,0,0,1,.5,2c0,.09.08.57,0,.25a5,5,0,0,1,.06.54c0,.42.07.85.08,1.28,0,.9,0,1.8-.05,2.7a47.1,47.1,0,0,1-.85,6.23,123.77,123.77,0,0,1-4.77,16.88c-5.45,15.73-12.56,30.9-20.07,45.74-9.83,19.4-20.64,38.31-32.07,56.81C108.69,157.28,96.21,176,82.92,194.08a491.83,491.83,0,0,1-34.41,42.43c-4.61,5-9.37,9.87-14.43,14.39a75.73,75.73,0,0,1-11.72,8.93,24.47,24.47,0,0,1-4.58,2.2,14.25,14.25,0,0,1-2,.54c-.43.08,0,0-.21,0l-.43,0c-.31,0-.62,0-.93,0l-.39,0c.33,0,.11,0-.07,0s-.53-.14-.79-.23.29.16-.06,0l-.31-.16-.35-.23c-.23-.16,0,0,0,0l-.27-.24a2.9,2.9,0,0,1-.48-.56,6.69,6.69,0,0,1-.58-1.05c.1.23-.08-.22-.11-.31s-.14-.43-.2-.65a10.47,10.47,0,0,1-.29-1.35c-.83-5.24.68-11.37,2-16.56a199.14,199.14,0,0,1,8.94-25.54c2.11-5.1,4.36-10.14,6.68-15.15.81-1.74-1.78-3.27-2.59-1.51Z"/></g></g></g></svg>