<svg xmlns="http://www.w3.org/2000/svg" xmlns:xlink="http://www.w3.org/1999/xlink" viewBox="0 0 175.2 177.65"><defs><style>.cls-1{isolation:isolate;}.cls-2{fill:#fee9a3;}.cls-3{fill:#e56500;}.cls-4{fill:#c69c6d;}.cls-5{fill:#c7b299;}.cls-6{fill:#a67c52;}.cls-7{fill:#ccc;}.cls-8{fill:#fbdf4c;}.cls-9{fill:#b14622;}.cls-10{opacity:0.44;fill:url(#radial-gradient);}.cls-10,.cls-11{mix-blend-mode:hard-light;}.cls-11{fill:url(#radial-gradient-2);}</style><radialGradient id="radial-gradient" cx="83.59" cy="88.32" r="89.53" gradientUnits="userSpaceOnUse"><stop offset="0.01" stop-color="#fff" stop-opacity="0.6"/><stop offset="0.55" stop-color="#c69c6d" stop-opacity="0.6"/><stop offset="0.99" stop-color="#42210b"/></radialGradient><radialGradient id="radial-gradient-2" cx="27.6" cy="27.22" r="133.74" xlink:href="#radial-gradient"/></defs><title>venus</title><g class="cls-1"><g id="Layer_2" data-name="Layer 2"><g id="Layer_15" data-name="Layer 15"><path class="cls-2" d="M2.59,101.76c-.2-.59-1-.61-1.8-1,.14,1.07.3,2.14.48,3.2C1.92,103.31,2.82,102.46,2.59,101.76Z"/><path class="cls-3" d="M51.22,8a44.18,44.18,0,0,0,9.55-3.75A87.6,87.6,0,0,0,51.22,8Z"/><path class="cls-4" d="M23.28,124.18c7.66-.45,8.46-2,8.63-2.58a3.06,3.06,0,0,0-1.73-3.45c-.75-.2-1.14.39-2.58.86-1.82.59-4.08.6-4.32,0s2-2.54,4.32-3.45c3.79-1.48,6.69,0,11.21.86a45.83,45.83,0,0,0,19-.86c6.78-1.89,5.82-3.89,10.35-4.31,6.62-.62,8.12,3.69,19,5.17,5.16.71,8.05.17,10.35-.86,2.67-1.2,3.11-2.41,5.17-3.45,5-2.51,10.79.4,14.66,1.73,3.22,1.1,15.54,3.89,25-.87a25.16,25.16,0,0,0,8.63-7.76c1.19-1.65,1.35-2.29,4.31-6.9,3.64-5.66,4.62-6.59,6-6.9a6.2,6.2,0,0,1,6,2.59c1.58,2.26,1.59,5.8,0,6.9a2.18,2.18,0,0,1-2.58,0c-.63-.71.41-1.82,0-3.45-.34-1.32-1.56-2.65-2.59-2.59-1.57.1-3.31,3.47-2.59,6,.92,3.28,5.83,5.11,9.49,4.31,2.67-.58,4.13-2.44,5.11-3.19a91,91,0,0,0,1-13.19c0-1.25,0-2.48-.08-3.71-.05,2.52-.19,3.15-.82,3.71s-1.52.57-6.9,0c-6.3-.68-8.65-3-12.93-1.73-1.46.42-4.17,1.22-5.18,3.45-.83,1.86.32,2.92,0,5.18-.54,4-4.89,6.69-7.76,7.76-3.13,1.16-8.54,1.81-10.35-.87-.86-1.27-1-3.36,0-4.31,1.36-1.35,4.06.42,5.18-.86.85-1,.41-3.29-.87-4.31-2-1.64-5.81.3-6.89.86-5.56,2.86-5.25,7.06-9.49,10.35-3.49,2.71-7.5,2.67-15.52,2.59-7.38-.08-7.19-1.23-19.84-2.59a72.77,72.77,0,0,0-19,0,24.46,24.46,0,0,0-6.9,1.72c-5.16,2.39-5.83,5.6-9.49,6-2.88.35-3.5-1.52-7.76-2.59-4.79-1.19-8.88,0-12.07.87-6.78,1.91-7.73,4.63-14.66,6.89A35.48,35.48,0,0,1,5.17,119q.9,2.52,1.94,5C8.6,122.54,13.46,124.77,23.28,124.18Z"/><path class="cls-5" d="M25.33,27.6c3.56-.91,5,1.79,8.76.86,3.46-.87,3.64-3.55,7-5.18,3.85-1.86,8-.5,12.27.87,8.79,2.84,9.2,6.63,17.51,8.62,2.12.51,8.07,1.93,10.51-.86.82-.93,1.52-2.64.88-3.45s-2.34-.64-3.5,0c-1.49.81-1.33,2.06-2.63,2.59s-3,.07-3.5-.87c-.85-1.51,1.48-4.55,3.5-6,4.38-3.23,10.53-1.45,16.64,0,11,2.59,18.5,4.37,26.28,4.31,13.25-.11,22.08-5.54,29.77-.86a29.64,29.64,0,0,1,3.51,2.58,48.92,48.92,0,0,1,4.77,4.69A87.74,87.74,0,0,0,116,4.78c.88.46,1.37.89,1.33,1.26-.09.89-3.37,1.25-7.76,1.72a56.53,56.53,0,0,1-12.07,0C90.1,7,90.92,5.72,87.1,6S78,7.92,76.75,6c-.18-.28-.47-.88-.86-.87s-1,1-.86,1.73c.12.57.7,1.19,2.58,1.72,4.53,1.28,9.56.07,13.8,0,3.65,0,3,.8,9.49,1.73,4.49.64,10.24.72,21.56.86,3.2,0,5.14,0,7.76.86,4.84,1.51,9.08,4.89,8.62,6-.39,1-4.25.36-6,0-3.13-.64-3.67-1.83-6.9-2.59a18.33,18.33,0,0,0-7.76,0c-3.49.66-4.32,1.75-6.9,2.59s-4.7.65-15.52-1.72C84.5,13.93,84.55,13.7,82.79,13.8c-6,.34-6.37,3-13.8,4.31a29.53,29.53,0,0,1-14.66-.86c-4-1.36-8.55-4.05-9.38-6a88.22,88.22,0,0,0-23.17,19C23.64,28.17,24.57,27.79,25.33,27.6Z"/><path class="cls-6" d="M.86,86.24C2.12,85.81,3.09,88.3,6,88.83c2,.36,4.74-.26,5.17-1.73s-1.46-3.64-2.59-3.45c-.69.12-.64,1-1.72,1.73s-2.65.81-3.45,0c-1.05-1.07-.08-3.27,0-3.45a6.67,6.67,0,0,1,6.9-3.45c2.61.47,3.27,2.68,5.17,4.31,3.86,3.3,9.91,1.73,32.77-2.59,4.74-.89,9.8-1.78,12.08.86.83,1,1.44,2.58.86,3.45-1.33,2-7.84-1.4-9.49.87a2.41,2.41,0,0,0,0,2.58c1,1.5,4.44,1.46,14.66-1.72,12.39-3.86,12.12-5.29,19-6.9a50,50,0,0,1,20.69-.86c4.31.78,5.89,1.85,14.66,3.45a48.27,48.27,0,0,0,11.22.86c3.43-.15,7.78-.39,8.62-2.59.49-1.28-.2-3.27-.86-5.17s-1.06-2.14-.87-2.59c.64-1.44,5.63.25,12.94.86,8.5.72,12.75,1.07,17.25,0,1.59-.38,3.38-.93,4.68-.3a89,89,0,0,0-13.86-34.27,3,3,0,0,1,.36,2.66c-1.44,2.57-11.45,1-18.39-1.72a35.22,35.22,0,0,0-8.76-2.59c-3.24-.48-6.46-.95-7.88.87a4.56,4.56,0,0,0,.87,6c1.44,1,3.77,1,4.38,0s-.76-2.27,0-3.45a2,2,0,0,1,1.75-.86c1.42.09,2.43,2.07,2.63,3.45.37,2.57-1.71,5.84-4.38,6.9-5.13,2-8.56-5.63-19.27-7.76-5-1-9.1-.29-15.76.86-9.28,1.6-9,3.41-15.77,4.31-3.13.42-5.91.39-23.65-2.59-12.89-2.16-12-2.25-14.89-2.58-16.53-1.92-27.2,5.49-28.9,2.58a1.7,1.7,0,0,1,.11-1.44A89.25,89.25,0,0,0,2.4,68.11c.49-1,1.15-2.35,1.91-4.29C7.41,56,6.44,52.65,9.49,50.88c1.16-.67.79.1,6-.86,3-.55,5.32-1.21,8.63-.86,2.42.25,2.56.74,2.58.86.14.79-2.73,1.17-4.31,3.45-1,1.43-1.54,3.73-.86,5.17,1.51,3.21,9.22,2.52,17.25,1.73s10.95-1.84,21.56-3.45c7.72-1.17,11.58-1.76,13.8-1.73,13,.19,22.19,6,25,2.59.34-.4,1.33-1.83.87-2.59s-2.35-.27-2.59-.86,1.3-1.95,2.59-2.59c3.7-1.82,8.21.94,12.07,2.59,11.8,5.05,24.58,2.78,25,.86.22-1-2.76-1.83-2.59-3.45.21-2,4.85-3,6.9-3.45,5.22-1.15,6.11-.08,11.21-.86,6.27-1,8-3.07,10.35-1.72,1.67,1,1.75,2.63,3.45,6.9a57.68,57.68,0,0,0,4.31,8.62A29.44,29.44,0,0,1,162.13,63c-6.47.31-11.19-1.65-12.07,0a2.41,2.41,0,0,0,.86,2.59c1,.87,2.45.43,5.17,0,4.58-.73,6.87-1.09,7.76,0s.42,3.33-.86,4.31c-1.55,1.2-3.59-.17-7.76-.86-3.91-.64-4.41.18-9.49,0-4.43-.16-4.36-.79-11.21-1.72-10.64-1.45-13.22-.23-14.66.86s-3.1,3.18-2.59,4.31c.64,1.39,4.57,1.68,6.9,0,1.35-1,1.24-1.92,2.59-2.59,1.78-.87,4.48-.44,5.18.87.94,1.76-1.65,5.29-4.32,6.89-4.2,2.54-8.76-.2-14.66-1.72-12.23-3.14-13.38,2.85-32.77,1.72-11.17-.64-19-1.72-19-1.72a39.69,39.69,0,0,0-13.8,0,47.7,47.7,0,0,0-6,1.72c-7.86,2.37-15.12,1-29.32-1.72-7.23-1.41-9.63-2.33-10.35-4.31a.57.57,0,0,0,0-.14A90.37,90.37,0,0,0,0,87,1.78,1.78,0,0,1,.86,86.24Zm63-34.5c-2.82.86-4.37.13-6.9.87a11.84,11.84,0,0,0-4.31,2.58c-5.79,4.37-17.45,4.3-19.84,0-1.12-2,0-4.71.86-6C37.09,44,47,44.8,48.29,47.43a1.8,1.8,0,0,1,0,1.73,1.86,1.86,0,0,1-2.58,0c-.34-.56.37-1.37,0-1.73a.77.77,0,0,0-.87,0c-.58.41-.54,1.87,0,2.59.76,1,2.49.58,6.9,0,8.38-1.1,6.69-.12,9.49-.86,1.44-.39,3.57-1.09,5.17,0a3.21,3.21,0,0,1,.87.86A11.66,11.66,0,0,1,63.82,51.74Z"/><path class="cls-3" d="M19.47,33q-1.91,2.39-3.65,4.91l2.5-3.39C18.73,33.94,19.11,33.44,19.47,33Z"/><path class="cls-4" d="M17.25,93.14a3.42,3.42,0,0,0-.86-2.59C13,87.18,3.08,95.05.07,92.34c.07,1.69.18,3.38.34,5,.72.09,1.77,1.17,3,1.78C8.24,101.49,17,97.33,17.25,93.14Z"/><path class="cls-4" d="M115.56,158.68c-2.27-.1-8.07-.34-9.49,2.59a3.7,3.7,0,0,0,.87,4.31c1.55,1.08,4.45-.29,6-1.73,1.11-1,1.27-1.78,1.73-1.72,1.18.15,2.84,5.75.86,8.62-2.54,3.69-10.6,2.25-22.42,0-13.75-2.6-13.49-4.3-19.84-4.31-10.18,0-12.81,4.34-19,4.57a86.58,86.58,0,0,0,81.44-8c-1.4-.12-3.07-.42-5.51-.87C122.73,160.75,121.11,158.91,115.56,158.68Z"/><path class="cls-5" d="M145.74,125.05c-9-1.59-14.16-2.42-19.83,0-.77.32-5.38,2.29-5.18,4.31.18,1.8,4.17,3.44,7.77,3.45,5.17,0,7.93-3.36,11.21-1.73.45.23,1.54.77,1.72,1.73.45,2.33-4.67,5.57-8.62,6.9-5,1.69-7.77.15-18.11-1.73-16.79-3-23.45-1.52-25.87-.86-4.3,1.16-3.19,1.69-6.9,2.59-10,2.4-15-2.2-29.32-3.45-5.25-.46-8.47-.74-12.94,0-11.55,1.91-16.93,8.21-21.83,6.3,1.51,2,3.1,4,4.76,5.83,1.19-3.48,7.52-5.54,11.9-7,4.11-1.33,9.28-3,14.66-.86,3,1.2,7.48,4.17,6.9,6.9-.46,2.1-3.33,4.05-5.18,3.45s-1.6-3.88-4.31-5.18c-1.13-.53-2.8-.74-3.45,0-1,1.17.46,4.72,2.59,6.9,5.12,5.26,14,2.77,14.66,2.59,1.54-.46,5.32-1.57,6-4.31.4-1.53-.2-3.35-.86-3.45s-.94,1.82-2.59,2.59c-1.47.68-3.72.26-4.31-.87-.92-1.74,1.77-5.91,5.18-6.9,3.14-.9,5.83,1.2,8.62,2.59,5.26,2.62,8.87,1.72,22.42.86,23.35-1.47,24.09-1.17,26.74-.86,8.06,1,9.32,2.37,17.24,2.59,8.95.24,13.24-1.41,14.94-.55a89.07,89.07,0,0,0,12.72-19.65C164.05,128.52,160.53,127.66,145.74,125.05Zm-4.31,4.31c.26-.76,1.68-1,2.59-.86,1.06.11,2.57.78,2.59,1.72S145.23,132,144,132C142.48,131.86,141.13,130.25,141.43,129.36Zm5.18,10.35c-2.75.8-6.08-1.16-6-2.59s3.17-2.36,5.17-2.59c.66-.07,3.73-.41,4.32.86S148.83,139.05,146.61,139.71Z"/><path class="cls-5" d="M138.84,147.47c-7.92-.22-9.18-1.64-17.24-2.59-2.65-.31-3.39-.61-26.74.86-13.55.86-17.16,1.76-22.42-.86-2.79-1.39-5.48-3.49-8.62-2.59-3.41,1-6.1,5.16-5.18,6.9.59,1.13,2.84,1.55,4.31.87,1.65-.77,1.89-2.7,2.59-2.59s1.26,1.92.86,3.45c-.71,2.74-4.49,3.85-6,4.31-.61.18-9.54,2.67-14.66-2.59-2.13-2.18-3.63-5.73-2.59-6.9.65-.74,2.32-.53,3.45,0,2.71,1.3,2.32,4.53,4.31,5.18s4.72-1.35,5.18-3.45c.58-2.73-3.89-5.7-6.9-6.9-5.38-2.15-10.55-.47-14.66.86-4.38,1.42-10.71,3.48-11.9,7A87.75,87.75,0,0,0,54.29,171c6.2-.23,8.83-4.58,19-4.57,6.35,0,6.09,1.71,19.84,4.31,11.82,2.25,19.88,3.69,22.42,0,2-2.87.32-8.47-.86-8.62-.46-.06-.62.72-1.73,1.72-1.58,1.44-4.48,2.81-6,1.73a3.7,3.7,0,0,1-.87-4.31c1.42-2.93,7.22-2.69,9.49-2.59,5.55.23,7.17,2.07,14.66,3.45,2.44.45,4.11.75,5.51.87a88.56,88.56,0,0,0,18.05-16.08C152.08,146.06,147.79,147.71,138.84,147.47Z"/><path class="cls-7" d="M145.74,134.53c-2,.23-5.13,1.22-5.17,2.59s3.29,3.39,6,2.59c2.22-.66,4-3.1,3.45-4.32S146.4,134.46,145.74,134.53Z"/><path class="cls-7" d="M144,132c1.21.06,2.6-.82,2.59-1.73s-1.53-1.61-2.59-1.72c-.91-.1-2.33.1-2.59.86S142.48,131.86,144,132Z"/><path class="cls-6" d="M169,105.21c-3.66.8-8.57-1-9.49-4.31-.72-2.57,1-5.94,2.59-6,1-.06,2.25,1.27,2.59,2.59.41,1.63-.63,2.74,0,3.45a2.18,2.18,0,0,0,2.58,0c1.59-1.1,1.58-4.64,0-6.9a6.2,6.2,0,0,0-6-2.59c-1.42.31-2.4,1.24-6,6.9-3,4.61-3.12,5.25-4.31,6.9a25.16,25.16,0,0,1-8.63,7.76c-9.47,4.76-21.79,2-25,.87-3.87-1.33-9.66-4.24-14.66-1.73-2.06,1-2.5,2.25-5.17,3.45-2.3,1-5.19,1.57-10.35.86-10.85-1.48-12.35-5.79-19-5.17-4.53.42-3.57,2.42-10.35,4.31a45.83,45.83,0,0,1-19,.86c-4.52-.89-7.42-2.34-11.21-.86-2.33.91-4.58,2.77-4.32,3.45s2.5.59,4.32,0c1.44-.47,1.83-1.06,2.58-.86a3.06,3.06,0,0,1,1.73,3.45c-.17.54-1,2.13-8.63,2.58-9.82.59-14.68-1.64-16.17-.24a89,89,0,0,0,10.73,18.62c4.9,1.91,10.28-4.39,21.83-6.3,4.47-.74,7.69-.46,12.94,0,14.3,1.25,19.32,5.85,29.32,3.45,3.71-.9,2.6-1.43,6.9-2.59,2.42-.66,9.08-2.19,25.87.86,10.34,1.88,13.08,3.42,18.11,1.73,3.95-1.33,9.07-4.57,8.62-6.9-.18-1-1.27-1.5-1.72-1.73-3.28-1.63-6,1.74-11.21,1.73-3.6,0-7.59-1.65-7.77-3.45-.2-2,4.41-4,5.18-4.31,5.67-2.42,10.86-1.59,19.83,0,14.79,2.61,18.31,3.47,20.76,2.22A89,89,0,0,0,174.14,102C173.16,102.77,171.7,104.63,169,105.21Z"/><path class="cls-4" d="M28.46,110.39c3.19-.91,7.28-2.06,12.07-.87,4.26,1.07,4.88,2.94,7.76,2.59,3.66-.44,4.33-3.65,9.49-6a24.46,24.46,0,0,1,6.9-1.72,72.77,72.77,0,0,1,19,0c12.65,1.36,12.46,2.51,19.84,2.59,8,.08,12,.12,15.52-2.59,4.24-3.29,3.93-7.49,9.49-10.35,1.08-.56,4.86-2.5,6.89-.86,1.28,1,1.72,3.33.87,4.31-1.12,1.28-3.82-.49-5.18.86-1,1-.86,3,0,4.31,1.81,2.68,7.22,2,10.35.87,2.87-1.07,7.22-3.81,7.76-7.76.32-2.26-.83-3.32,0-5.18,1-2.23,3.72-3,5.18-3.45,4.28-1.25,6.63,1.05,12.93,1.73,5.38.57,6.28.55,6.9,0s.77-1.19.82-3.71A89.33,89.33,0,0,0,173.71,73c-1.3-.63-3.09-.08-4.68.3-4.5,1.07-8.75.72-17.25,0-7.31-.61-12.3-2.3-12.94-.86-.19.45.23.75.87,2.59s1.35,3.89.86,5.17c-.84,2.2-5.19,2.44-8.62,2.59a48.27,48.27,0,0,1-11.22-.86c-8.77-1.6-10.35-2.67-14.66-3.45a50,50,0,0,0-20.69.86c-6.86,1.61-6.59,3-19,6.9C56.18,89.42,52.77,89.46,51.74,88a2.41,2.41,0,0,1,0-2.58c1.65-2.27,8.16,1.12,9.49-.87.58-.87,0-2.48-.86-3.45-2.28-2.64-7.34-1.75-12.08-.86-22.86,4.32-28.91,5.89-32.77,2.59C13.62,81.16,13,79,10.35,78.48a6.67,6.67,0,0,0-6.9,3.45c-.08.18-1.05,2.38,0,3.45.8.81,2.44.62,3.45,0s1-1.61,1.72-1.73c1.13-.19,3,2,2.59,3.45S8.07,89.19,6,88.83c-2.95-.53-3.92-3-5.18-2.59A1.78,1.78,0,0,0,0,87c0,.61,0,1.22,0,1.84C0,90,0,91.17.07,92.34c3,2.71,12.93-5.16,16.32-1.79a3.42,3.42,0,0,1,.86,2.59c-.29,4.19-9,8.35-13.8,6-1.27-.61-2.32-1.69-3-1.78.1,1.12.23,2.24.38,3.35.75.41,1.6.43,1.8,1s-.67,1.55-1.32,2.18a89.5,89.5,0,0,0,3.9,15,35.48,35.48,0,0,0,8.63-1.68C20.73,115,21.68,112.3,28.46,110.39ZM65.83,99a13.27,13.27,0,0,1,1.44-1.5c3.29-2.79,12.93-1.72,12.93-1.72,8.73,1,13.1,1.45,18.11.86,4.16-.49,8.28-1,12.94-3.45,4.47-2.38,6.94-5.26,8.62-4.31,1.28.71,1.48,3.29.86,5.17-1.67,5.12-9.81,6.51-12.07,6.9-7.11,1.21-8-1.21-23.28-2.59-9.9-.89-13-.19-15.53.86-1.48.63-4.82,2.27-5.17,1.73C64.5,100.62,65.15,99.8,65.83,99Z"/><path class="cls-4" d="M69.85,99.17c2.49-1,5.63-1.75,15.53-.86,15.31,1.38,16.17,3.8,23.28,2.59,2.26-.39,10.4-1.78,12.07-6.9.62-1.88.42-4.46-.86-5.17-1.68-1-4.15,1.93-8.62,4.31-4.66,2.47-8.78,3-12.94,3.45-5,.59-9.38.1-18.11-.86,0,0-9.64-1.07-12.93,1.72A13.27,13.27,0,0,0,65.83,99c-.68.85-1.33,1.67-1.15,2C65,101.44,68.37,99.8,69.85,99.17Z"/><path class="cls-8" d="M1.68,71.44q.33-1.68.72-3.33"/><path class="cls-4" d="M12.07,75.89c14.2,2.76,21.46,4.09,29.32,1.72a47.7,47.7,0,0,1,6-1.72,39.69,39.69,0,0,1,13.8,0S69,77,80.2,77.61c19.39,1.13,20.54-4.86,32.77-1.72,5.9,1.52,10.46,4.26,14.66,1.72,2.67-1.6,5.26-5.13,4.32-6.89-.7-1.31-3.4-1.74-5.18-.87-1.35.67-1.24,1.62-2.59,2.59-2.33,1.68-6.26,1.39-6.9,0-.51-1.13,1.07-3.16,2.59-4.31s4-2.31,14.66-.86c6.85.93,6.78,1.56,11.21,1.72,5.08.18,5.58-.64,9.49,0,4.17.69,6.21,2.06,7.76.86,1.28-1,1.7-3.28.86-4.31s-3.18-.73-7.76,0c-2.72.43-4.14.87-5.17,0a2.41,2.41,0,0,1-.86-2.59c.88-1.65,5.6.31,12.07,0a29.44,29.44,0,0,0,8.62-1.72c-1.19-1.95-1.82-4.87-3.32-8.62-1.7-4.27-2.77-5.94-4.44-6.9-2.32-1.35-4.08.76-10.35,1.72-5.1.78-6-.29-11.21.86-2.05.46-6.69,1.49-6.9,3.45-.17,1.62,2.81,2.48,2.59,3.45-.43,1.92-13.21,4.19-25-.86-3.86-1.65-8.37-4.41-12.07-2.59-1.29.64-2.83,2-2.59,2.59s2.09,0,2.59.86-.53,2.19-.87,2.59c-2.81,3.38-12-2.4-25-2.59-2.22,0-6.08.56-13.8,1.73-10.61,1.61-13.52,2.65-21.56,3.45s-15.74,1.48-17.25-1.73c-.68-1.44-.13-3.74.86-5.17C24,51.19,26.87,50.81,26.73,50c0-.12-.16-.61-2.58-.86-3.31-.35-5.66.31-8.63.86-5.24,1-4.87.19-6,.86-3,1.77-2.08,5.07-5.18,12.94-.76,1.94-1.42,3.27-1.91,4.29Q2,69.76,1.68,71.44a.57.57,0,0,1,0,.14C2.44,73.56,4.84,74.48,12.07,75.89Z"/><path class="cls-5" d="M66.4,49.16c-1.6-1.09-3.73-.39-5.17,0-2.8.74-1.11-.24-9.49.86-4.41.58-6.14,1-6.9,0-.54-.72-.58-2.18,0-2.59a.77.77,0,0,1,.87,0c.37.36-.34,1.17,0,1.73a1.86,1.86,0,0,0,2.58,0,1.8,1.8,0,0,0,0-1.73C47,44.8,37.09,44,33.63,49.16c-.88,1.32-2,4-.86,6,2.39,4.3,14,4.37,19.84,0a11.84,11.84,0,0,1,4.31-2.58c2.53-.74,4.08,0,6.9-.87A11.66,11.66,0,0,0,67.27,50,3.21,3.21,0,0,0,66.4,49.16Z"/><path class="cls-9" d="M12.3,43.4q1.66-2.82,3.52-5.51A31.86,31.86,0,0,0,12.3,43.4Z"/><path class="cls-9" d="M19.47,33c.76-.94,1.53-1.87,2.31-2.78C21.14,30.9,20.38,31.81,19.47,33Z"/><path class="cls-9" d="M157.1,34.87c1,1.26,1.87,2.54,2.75,3.86A19.08,19.08,0,0,0,157.1,34.87Z"/><path class="cls-6" d="M12.19,44.84c1.7,2.91,12.37-4.5,28.9-2.58,2.87.33,2,.42,14.89,2.58,17.74,3,20.52,3,23.65,2.59,6.77-.9,6.49-2.71,15.77-4.31,6.66-1.15,10.76-1.86,15.76-.86,10.71,2.13,14.14,9.8,19.27,7.76,2.67-1.06,4.75-4.33,4.38-6.9-.2-1.38-1.21-3.36-2.63-3.45a2,2,0,0,0-1.75.86c-.76,1.18.61,2.52,0,3.45s-2.94,1-4.38,0a4.56,4.56,0,0,1-.87-6c1.42-1.82,4.64-1.35,7.88-.87a35.22,35.22,0,0,1,8.76,2.59c6.94,2.77,17,4.29,18.39,1.72a3,3,0,0,0-.36-2.66c-.88-1.32-1.8-2.6-2.75-3.86a48.92,48.92,0,0,0-4.77-4.69,29.64,29.64,0,0,0-3.51-2.58c-7.69-4.68-16.52.75-29.77.86-7.78.06-15.3-1.72-26.28-4.31-6.11-1.45-12.26-3.23-16.64,0-2,1.48-4.35,4.52-3.5,6,.52.94,2.29,1.35,3.5.87s1.14-1.78,2.63-2.59c1.16-.64,2.89-.77,3.5,0s-.06,2.52-.88,3.45c-2.44,2.79-8.39,1.37-10.51.86-8.31-2-8.72-5.78-17.51-8.62-4.24-1.37-8.42-2.73-12.27-.87-3.36,1.63-3.54,4.31-7,5.18-3.74.93-5.2-1.77-8.76-.86-.76.19-1.69.57-3.55,2.6C21,31.11,20.23,32,19.47,33c-.36.46-.74,1-1.15,1.52l-2.5,3.39Q14,40.58,12.3,43.4A1.7,1.7,0,0,0,12.19,44.84Z"/><path class="cls-5" d="M54.33,17.25A29.53,29.53,0,0,0,69,18.11c7.43-1.34,7.77-4,13.8-4.31,1.76-.1,1.71.13,12.94,2.59,10.82,2.37,12.85,2.59,15.52,1.72s3.41-1.93,6.9-2.59a18.33,18.33,0,0,1,7.76,0c3.23.76,3.77,1.95,6.9,2.59,1.78.36,5.64,1,6,0,.46-1.15-3.78-4.53-8.62-6-2.62-.82-4.56-.82-7.76-.86-11.32-.14-17.07-.22-21.56-.86-6.53-.93-5.84-1.78-9.49-1.73-4.24.07-9.27,1.28-13.8,0C75.73,8.09,75.15,7.47,75,6.9c-.16-.74.37-1.7.86-1.73s.68.59.86.87C78,7.92,83.39,6.35,87.1,6s3,.94,10.35,1.72a56.53,56.53,0,0,0,12.07,0c4.39-.47,7.67-.83,7.76-1.72,0-.37-.45-.8-1.33-1.26a86.73,86.73,0,0,0-55.18-.54A44.18,44.18,0,0,1,51.22,8C49.08,9,47,10.06,45,11.21,45.78,13.2,50.35,15.89,54.33,17.25Z"/><ellipse class="cls-10" cx="87.7" cy="89.07" rx="87.5" ry="88.58"/><ellipse class="cls-11" cx="87.7" cy="89.07" rx="87.5" ry="88.58"/></g></g></g></svg>