<svg xmlns="http://www.w3.org/2000/svg" viewBox="0 0 90.27 90.27"><defs><style>.cls-1{fill:#dce3ff;}</style></defs><g id="Layer_2" data-name="Layer 2"><g id="Layer_1-2" data-name="Layer 1"><path class="cls-1" d="M78.27,0H12A12,12,0,0,0,0,12V78.27a12,12,0,0,0,12,12H78.27a12,12,0,0,0,12-12V12A12,12,0,0,0,78.27,0ZM45.53,66.34H35.09a1.19,1.19,0,0,1-1.22-.65C30.55,60,27.17,54.31,23.78,48.34h-.07c-3.09,5.83-6.33,11.73-9.5,17.42a1.1,1.1,0,0,1-1,.58h-10c-.5,0-.5-.51-.29-.79l14.33-23-14-22.9A.43.43,0,0,1,3.55,19H13.92c.5,0,.79.07.94.57,3,5.84,6.62,11.6,9.72,17.36h.07c3-5.84,6.26-11.45,9.43-17.28a.91.91,0,0,1,1-.65h9.43c.58,0,.65.36.36.86L31.06,41.93,45.89,65.55C46.18,65.91,46,66.27,45.53,66.34Zm36.65-2.16a37.76,37.76,0,0,1-14.69,2.88c-10.88,0-19.3-6.05-19.3-18.22,0-10.37,7.92-19,21.46-19,.65,0,1.44.07,2.59.14V15.5a.45.45,0,0,1,.5-.5H82c.36,0,.43.14.43.43v42.7c0,1.8.15,4,.29,5.33C82.68,63.89,82.61,64,82.18,64.18Z"/><path class="cls-1" d="M58.63,48.26c0,7.13,4.25,10.16,9.94,10.16A12,12,0,0,0,72.24,58V38.62a8.52,8.52,0,0,0-2.81-.36C63.6,38.26,58.63,41.57,58.63,48.26Z"/></g></g></svg>